<svg width="18" height="18" viewBox="0 0 18 18" fill="none" xmlns="http://www.w3.org/2000/svg">
<g clip-path="url(#clip0_130_10795)">
<path d="M13.5 11.1937C13.5 11.4698 13.7239 11.6937 14 11.6937C14.2761 11.6937 14.5 11.4698 14.5 11.1937H14H13.5ZM13.7071 2.29289L14.0607 1.93934L13.7071 2.29289ZM6 2V2.5H12V2V1.5H6V2ZM14 3.99915H13.5C13.5 4.00297 13.5 4.0068 13.5 4.01063C13.5 4.01447 13.5 4.0183 13.5 4.02214C13.5 4.02598 13.5 4.02983 13.5 4.03368C13.5 4.03752 13.5 4.04138 13.5 4.04523C13.5 4.04909 13.5 4.05295 13.5 4.05681C13.5 4.06068 13.5 4.06455 13.5 4.06842C13.5 4.07229 13.5 4.07617 13.5 4.08005C13.5 4.08393 13.5 4.08781 13.5 4.0917C13.5 4.09559 13.5 4.09948 13.5 4.10337C13.5 4.10727 13.5 4.11117 13.5 4.11507C13.5 4.11897 13.5 4.12288 13.5 4.12679C13.5 4.1307 13.5 4.13462 13.5 4.13854C13.5 4.14245 13.5 4.14638 13.5 4.1503C13.5 4.15423 13.5 4.15816 13.5 4.16209C13.5 4.16603 13.5 4.16996 13.5 4.17391C13.5 4.17785 13.5 4.18179 13.5 4.18574C13.5 4.18969 13.5 4.19364 13.5 4.1976C13.5 4.20156 13.5 4.20552 13.5 4.20948C13.5 4.21345 13.5 4.21741 13.5 4.22139C13.5 4.22536 13.5 4.22933 13.5 4.23331C13.5 4.23729 13.5 4.24127 13.5 4.24526C13.5 4.24925 13.5 4.25324 13.5 4.25723C13.5 4.26122 13.5 4.26522 13.5 4.26922C13.5 4.27322 13.5 4.27723 13.5 4.28124C13.5 4.28525 13.5 4.28926 13.5 4.29328C13.5 4.29729 13.5 4.30131 13.5 4.30533C13.5 4.30936 13.5 4.31339 13.5 4.31742C13.5 4.32145 13.5 4.32548 13.5 4.32952C13.5 4.33356 13.5 4.3376 13.5 4.34164C13.5 4.34569 13.5 4.34974 13.5 4.35379C13.5 4.35784 13.5 4.3619 13.5 4.36596C13.5 4.37002 13.5 4.37408 13.5 4.37815C13.5 4.38221 13.5 4.38628 13.5 4.39036C13.5 4.39443 13.5 4.39851 13.5 4.40259C13.5 4.40667 13.5 4.41075 13.5 4.41484C13.5 4.41893 13.5 4.42302 13.5 4.42711C13.5 4.43121 13.5 4.43531 13.5 4.43941C13.5 4.44351 13.5 4.44762 13.5 4.45173C13.5 4.45583 13.5 4.45995 13.5 4.46406C13.5 4.46818 13.5 4.4723 13.5 4.47642C13.5 4.48054 13.5 4.48467 13.5 4.4888C13.5 4.49293 13.5 4.49706 13.5 4.5012C13.5 4.50533 13.5 4.50947 13.5 4.51362C13.5 4.51776 13.5 4.52191 13.5 4.52606C13.5 4.53021 13.5 4.53436 13.5 4.53852C13.5 4.54268 13.5 4.54684 13.5 4.551C13.5 4.55516 13.5 4.55933 13.5 4.5635C13.5 4.56767 13.5 4.57184 13.5 4.57602C13.5 4.5802 13.5 4.58438 13.5 4.58856C13.5 4.59275 13.5 4.59693 13.5 4.60112C13.5 4.60532 13.5 4.60951 13.5 4.61371C13.5 4.6179 13.5 4.6221 13.5 4.62631C13.5 4.63051 13.5 4.63472 13.5 4.63893C13.5 4.64314 13.5 4.64735 13.5 4.65157C13.5 4.65579 13.5 4.66001 13.5 4.66423C13.5 4.66845 13.5 4.67268 13.5 4.67691C13.5 4.68114 13.5 4.68537 13.5 4.68961C13.5 4.69384 13.5 4.69808 13.5 4.70233C13.5 4.70657 13.5 4.71081 13.5 4.71506C13.5 4.71931 13.5 4.72357 13.5 4.72782C13.5 4.73208 13.5 4.73633 13.5 4.7406C13.5 4.74486 13.5 4.74912 13.5 4.75339C13.5 4.75766 13.5 4.76193 13.5 4.76621C13.5 4.77048 13.5 4.77476 13.5 4.77904C13.5 4.78332 13.5 4.7876 13.5 4.79189C13.5 4.79618 13.5 4.80047 13.5 4.80476C13.5 4.80905 13.5 4.81335 13.5 4.81765C13.5 4.82195 13.5 4.82625 13.5 4.83056C13.5 4.83486 13.5 4.83917 13.5 4.84348C13.5 4.84779 13.5 4.85211 13.5 4.85643C13.5 4.86074 13.5 4.86507 13.5 4.86939C13.5 4.87371 13.5 4.87804 13.5 4.88237C13.5 4.8867 13.5 4.89103 13.5 4.89537C13.5 4.8997 13.5 4.90404 13.5 4.90839C13.5 4.91273 13.5 4.91707 13.5 4.92142C13.5 4.92577 13.5 4.93012 13.5 4.93447C13.5 4.93883 13.5 4.94318 13.5 4.94754C13.5 4.9519 13.5 4.95627 13.5 4.96063C13.5 4.965 13.5 4.96937 13.5 4.97374C13.5 4.97811 13.5 4.98248 13.5 4.98686C13.5 4.99124 13.5 4.99562 13.5 5C13.5 5.00438 13.5 5.00877 13.5 5.01316C13.5 5.01755 13.5 5.02194 13.5 5.02633C13.5 5.03073 13.5 5.03513 13.5 5.03953C13.5 5.04393 13.5 5.04833 13.5 5.05274C13.5 5.05714 13.5 5.06155 13.5 5.06596C13.5 5.07038 13.5 5.07479 13.5 5.07921C13.5 5.08363 13.5 5.08805 13.5 5.09247C13.5 5.09689 13.5 5.10132 13.5 5.10575C13.5 5.11018 13.5 5.11461 13.5 5.11904C13.5 5.12348 13.5 5.12791 13.5 5.13235C13.5 5.13679 13.5 5.14123 13.5 5.14568C13.5 5.15012 13.5 5.15457 13.5 5.15902C13.5 5.16347 13.5 5.16793 13.5 5.17238C13.5 5.17684 13.5 5.1813 13.5 5.18576C13.5 5.19022 13.5 5.19469 13.5 5.19915C13.5 5.20362 13.5 5.20809 13.5 5.21256C13.5 5.21704 13.5 5.22151 13.5 5.22599C13.5 5.23047 13.5 5.23495 13.5 5.23943C13.5 5.24391 13.5 5.2484 13.5 5.25289C13.5 5.25738 13.5 5.26187 13.5 5.26636C13.5 5.27085 13.5 5.27535 13.5 5.27985C13.5 5.28435 13.5 5.28885 13.5 5.29335C13.5 5.29786 13.5 5.30236 13.5 5.30687C13.5 5.31138 13.5 5.31589 13.5 5.32041C13.5 5.32492 13.5 5.32944 13.5 5.33396C13.5 5.33848 13.5 5.343 13.5 5.34753C13.5 5.35205 13.5 5.35658 13.5 5.36111C13.5 5.36564 13.5 5.37017 13.5 5.3747C13.5 5.37924 13.5 5.38378 13.5 5.38832C13.5 5.39286 13.5 5.3974 13.5 5.40194C13.5 5.40649 13.5 5.41103 13.5 5.41558C13.5 5.42013 13.5 5.42469 13.5 5.42924C13.5 5.4338 13.5 5.43835 13.5 5.44291C13.5 5.44747 13.5 5.45203 13.5 5.4566C13.5 5.46116 13.5 5.46573 13.5 5.4703C13.5 5.47487 13.5 5.47944 13.5 5.48401C13.5 5.48859 13.5 5.49317 13.5 5.49774C13.5 5.50232 13.5 5.5069 13.5 5.51149C13.5 5.51607 13.5 5.52066 13.5 5.52525C13.5 5.52984 13.5 5.53443 13.5 5.53902C13.5 5.54361 13.5 5.54821 13.5 5.55281C13.5 5.5574 13.5 5.562 13.5 5.56661C13.5 5.57121 13.5 5.57581 13.5 5.58042C13.5 5.58503 13.5 5.58964 13.5 5.59425C13.5 5.59886 13.5 5.60348 13.5 5.60809C13.5 5.61271 13.5 5.61733 13.5 5.62195C13.5 5.62657 13.5 5.63119 13.5 5.63582C13.5 5.64044 13.5 5.64507 13.5 5.6497C13.5 5.65433 13.5 5.65896 13.5 5.6636C13.5 5.66823 13.5 5.67287 13.5 5.67751C13.5 5.68215 13.5 5.68679 13.5 5.69143C13.5 5.69608 13.5 5.70072 13.5 5.70537C13.5 5.71002 13.5 5.71467 13.5 5.71932C13.5 5.72397 13.5 5.72862 13.5 5.73328C13.5 5.73794 13.5 5.7426 13.5 5.74726C13.5 5.75192 13.5 5.75658 13.5 5.76125C13.5 5.76591 13.5 5.77058 13.5 5.77525C13.5 5.77992 13.5 5.78459 13.5 5.78926C13.5 5.79394 13.5 5.79861 13.5 5.80329C13.5 5.80797 13.5 5.81265 13.5 5.81733C13.5 5.82201 13.5 5.82669 13.5 5.83138C13.5 5.83607 13.5 5.84075 13.5 5.84544C13.5 5.85013 13.5 5.85483 13.5 5.85952C13.5 5.86422 13.5 5.86891 13.5 5.87361C13.5 5.87831 13.5 5.88301 13.5 5.88771C13.5 5.89241 13.5 5.89712 13.5 5.90182C13.5 5.90653 13.5 5.91124 13.5 5.91595C13.5 5.92066 13.5 5.92537 13.5 5.93009C13.5 5.9348 13.5 5.93952 13.5 5.94424C13.5 5.94895 13.5 5.95367 13.5 5.9584C13.5 5.96312 13.5 5.96784 13.5 5.97257C13.5 5.9773 13.5 5.98202 13.5 5.98675C13.5 5.99148 13.5 5.99622 13.5 6.00095C13.5 6.00568 13.5 6.01042 13.5 6.01516C13.5 6.01989 13.5 6.02463 13.5 6.02937C13.5 6.03412 13.5 6.03886 13.5 6.0436C13.5 6.04835 13.5 6.0531 13.5 6.05784C13.5 6.06259 13.5 6.06734 13.5 6.0721C13.5 6.07685 13.5 6.0816 13.5 6.08636C13.5 6.09112 13.5 6.09587 13.5 6.10063C13.5 6.10539 13.5 6.11015 13.5 6.11492C13.5 6.11968 13.5 6.12445 13.5 6.12921C13.5 6.13398 13.5 6.13875 13.5 6.14352C13.5 6.14829 13.5 6.15306 13.5 6.15784C13.5 6.16261 13.5 6.16739 13.5 6.17216C13.5 6.17694 13.5 6.18172 13.5 6.1865C13.5 6.19128 13.5 6.19606 13.5 6.20085C13.5 6.20563 13.5 6.21042 13.5 6.21521C13.5 6.22 13.5 6.22479 13.5 6.22958C13.5 6.23437 13.5 6.23916 13.5 6.24396C13.5 6.24875 13.5 6.25355 13.5 6.25834C13.5 6.26314 13.5 6.26794 13.5 6.27274C13.5 6.27754 13.5 6.28235 13.5 6.28715C13.5 6.29196 13.5 6.29676 13.5 6.30157C13.5 6.30638 13.5 6.31119 13.5 6.316C13.5 6.32081 13.5 6.32562 13.5 6.33044C13.5 6.33525 13.5 6.34007 13.5 6.34488C13.5 6.3497 13.5 6.35452 13.5 6.35934C13.5 6.36416 13.5 6.36898 13.5 6.37381C13.5 6.37863 13.5 6.38346 13.5 6.38828C13.5 6.39311 13.5 6.39794 13.5 6.40277C13.5 6.4076 13.5 6.41243 13.5 6.41726C13.5 6.42209 13.5 6.42693 13.5 6.43176C13.5 6.4366 13.5 6.44144 13.5 6.44628C13.5 6.45111 13.5 6.45595 13.5 6.4608C13.5 6.46564 13.5 6.47048 13.5 6.47533C13.5 6.48017 13.5 6.48502 13.5 6.48986C13.5 6.49471 13.5 6.49956 13.5 6.50441C13.5 6.50926 13.5 6.51411 13.5 6.51897C13.5 6.52382 13.5 6.52868 13.5 6.53353C13.5 6.53839 13.5 6.54324 13.5 6.5481C13.5 6.55296 13.5 6.55782 13.5 6.56268C13.5 6.56755 13.5 6.57241 13.5 6.57727C13.5 6.58214 13.5 6.587 13.5 6.59187C13.5 6.59674 13.5 6.60161 13.5 6.60648C13.5 6.61135 13.5 6.61622 13.5 6.62109C13.5 6.62596 13.5 6.63084 13.5 6.63571C13.5 6.64059 13.5 6.64546 13.5 6.65034C13.5 6.65522 13.5 6.6601 13.5 6.66498C13.5 6.66986 13.5 6.67474 13.5 6.67962C13.5 6.6845 13.5 6.68939 13.5 6.69427C13.5 6.69916 13.5 6.70405 13.5 6.70893C13.5 6.71382 13.5 6.71871 13.5 6.7236C13.5 6.72849 13.5 6.73338 13.5 6.73828C13.5 6.74317 13.5 6.74806 13.5 6.75296C13.5 6.75785 13.5 6.76275 13.5 6.76765C13.5 6.77254 13.5 6.77744 13.5 6.78234C13.5 6.78724 13.5 6.79214 13.5 6.79704C13.5 6.80195 13.5 6.80685 13.5 6.81175C13.5 6.81666 13.5 6.82156 13.5 6.82647C13.5 6.83138 13.5 6.83629 13.5 6.8412C13.5 6.8461 13.5 6.85101 13.5 6.85593C13.5 6.86084 13.5 6.86575 13.5 6.87066C13.5 6.87558 13.5 6.88049 13.5 6.88541C13.5 6.89032 13.5 6.89524 13.5 6.90016C13.5 6.90507 13.5 6.90999 13.5 6.91491C13.5 6.91983 13.5 6.92475 13.5 6.92967C13.5 6.9346 13.5 6.93952 13.5 6.94444C13.5 6.94937 13.5 6.95429 13.5 6.95922C13.5 6.96414 13.5 6.96907 13.5 6.974C13.5 6.97893 13.5 6.98386 13.5 6.98879C13.5 6.99372 13.5 6.99865 13.5 7.00358C13.5 7.00851 13.5 7.01344 13.5 7.01838C13.5 7.02331 13.5 7.02825 13.5 7.03318C13.5 7.03812 13.5 7.04306 13.5 7.04799C13.5 7.05293 13.5 7.05787 13.5 7.06281C13.5 7.06775 13.5 7.07269 13.5 7.07763C13.5 7.08257 13.5 7.08751 13.5 7.09246C13.5 7.0974 13.5 7.10234 13.5 7.10729C13.5 7.11223 13.5 7.11718 13.5 7.12212C13.5 7.12707 13.5 7.13202 13.5 7.13697C13.5 7.14191 13.5 7.14686 13.5 7.15181C13.5 7.15676 13.5 7.16171 13.5 7.16667C13.5 7.17162 13.5 7.17657 13.5 7.18152C13.5 7.18648 13.5 7.19143 13.5 7.19638C13.5 7.20134 13.5 7.2063 13.5 7.21125C13.5 7.21621 13.5 7.22116 13.5 7.22612C13.5 7.23108 13.5 7.23604 13.5 7.241C13.5 7.24596 13.5 7.25092 13.5 7.25588C13.5 7.26084 13.5 7.2658 13.5 7.27076C13.5 7.27573 13.5 7.28069 13.5 7.28565C13.5 7.29062 13.5 7.29558 13.5 7.30055C13.5 7.30551 13.5 7.31048 13.5 7.31544C13.5 7.32041 13.5 7.32538 13.5 7.33035C13.5 7.33531 13.5 7.34028 13.5 7.34525C13.5 7.35022 13.5 7.35519 13.5 7.36016C13.5 7.36513 13.5 7.3701 13.5 7.37507C13.5 7.38005 13.5 7.38502 13.5 7.38999C13.5 7.39496 13.5 7.39994 13.5 7.40491C13.5 7.40989 13.5 7.41486 13.5 7.41984C13.5 7.42481 13.5 7.42979 13.5 7.43476C13.5 7.43974 13.5 7.44472 13.5 7.4497C13.5 7.45467 13.5 7.45965 13.5 7.46463C13.5 7.46961 13.5 7.47459 13.5 7.47957C13.5 7.48455 13.5 7.48953 13.5 7.49451C13.5 7.49949 13.5 7.50447 13.5 7.50945C13.5 7.51444 13.5 7.51942 13.5 7.5244C13.5 7.52938 13.5 7.53437 13.5 7.53935C13.5 7.54434 13.5 7.54932 13.5 7.55431C13.5 7.55929 13.5 7.56428 13.5 7.56926C13.5 7.57425 13.5 7.57923 13.5 7.58422C13.5 7.58921 13.5 7.59419 13.5 7.59918C13.5 7.60417 13.5 7.60916 13.5 7.61414C13.5 7.61913 13.5 7.62412 13.5 7.62911C13.5 7.6341 13.5 7.63909 13.5 7.64408C13.5 7.64907 13.5 7.65406 13.5 7.65905C13.5 7.66404 13.5 7.66903 13.5 7.67402C13.5 7.67902 13.5 7.68401 13.5 7.689C13.5 7.69399 13.5 7.69898 13.5 7.70398C13.5 7.70897 13.5 7.71396 13.5 7.71896C13.5 7.72395 13.5 7.72894 13.5 7.73394C13.5 7.73893 13.5 7.74393 13.5 7.74892C13.5 7.75391 13.5 7.75891 13.5 7.76391C13.5 7.7689 13.5 7.7739 13.5 7.77889C13.5 7.78389 13.5 7.78888 13.5 7.79388C13.5 7.79888 13.5 7.80387 13.5 7.80887C13.5 7.81387 13.5 7.81886 13.5 7.82386C13.5 7.82886 13.5 7.83385 13.5 7.83885C13.5 7.84385 13.5 7.84885 13.5 7.85385C13.5 7.85884 13.5 7.86384 13.5 7.86884C13.5 7.87384 13.5 7.87884 13.5 7.88383C13.5 7.88883 13.5 7.89383 13.5 7.89883C13.5 7.90383 13.5 7.90883 13.5 7.91383C13.5 7.91883 13.5 7.92383 13.5 7.92883C13.5 7.93383 13.5 7.93883 13.5 7.94383C13.5 7.94883 13.5 7.95383 13.5 7.95883C13.5 7.96383 13.5 7.96883 13.5 7.97383C13.5 7.97883 13.5 7.98383 13.5 7.98883C13.5 7.99383 13.5 7.99883 13.5 8.00383C13.5 8.00883 13.5 8.01383 13.5 8.01883C13.5 8.02383 13.5 8.02883 13.5 8.03383C13.5 8.03883 13.5 8.04383 13.5 8.04883C13.5 8.05383 13.5 8.05884 13.5 8.06384C13.5 8.06884 13.5 8.07384 13.5 8.07884C13.5 8.08384 13.5 8.08884 13.5 8.09384C13.5 8.09884 13.5 8.10384 13.5 8.10884C13.5 8.11384 13.5 8.11884 13.5 8.12384C13.5 8.12884 13.5 8.13384 13.5 8.13884C13.5 8.14385 13.5 8.14885 13.5 8.15385C13.5 8.15885 13.5 8.16385 13.5 8.16885C13.5 8.17385 13.5 8.17885 13.5 8.18385C13.5 8.18885 13.5 8.19385 13.5 8.19884C13.5 8.20384 13.5 8.20884 13.5 8.21384C13.5 8.21884 13.5 8.22384 13.5 8.22884C13.5 8.23384 13.5 8.23884 13.5 8.24384C13.5 8.24884 13.5 8.25384 13.5 8.25883C13.5 8.26383 13.5 8.26883 13.5 8.27383C13.5 8.27883 13.5 8.28382 13.5 8.28882C13.5 8.29382 13.5 8.29882 13.5 8.30381C13.5 8.30881 13.5 8.31381 13.5 8.31881C13.5 8.3238 13.5 8.3288 13.5 8.3338C13.5 8.33879 13.5 8.34379 13.5 8.34878C13.5 8.35378 13.5 8.35878 13.5 8.36377C13.5 8.36877 13.5 8.37376 13.5 8.37876C13.5 8.38375 13.5 8.38874 13.5 8.39374C13.5 8.39873 13.5 8.40373 13.5 8.40872C13.5 8.41371 13.5 8.41871 13.5 8.4237C13.5 8.42869 13.5 8.43369 13.5 8.43868C13.5 8.44367 13.5 8.44866 13.5 8.45365C13.5 8.45865 13.5 8.46364 13.5 8.46863C13.5 8.47362 13.5 8.47861 13.5 8.4836C13.5 8.48859 13.5 8.49358 13.5 8.49857C13.5 8.50356 13.5 8.50855 13.5 8.51354C13.5 8.51852 13.5 8.52351 13.5 8.5285C13.5 8.53349 13.5 8.53848 13.5 8.54346C13.5 8.54845 13.5 8.55344 13.5 8.55842C13.5 8.56341 13.5 8.56839 13.5 8.57338C13.5 8.57836 13.5 8.58335 13.5 8.58833C13.5 8.59332 13.5 8.5983 13.5 8.60328C13.5 8.60827 13.5 8.61325 13.5 8.61823C13.5 8.62321 13.5 8.62819 13.5 8.63318C13.5 8.63816 13.5 8.64314 13.5 8.64812C13.5 8.6531 13.5 8.65808 13.5 8.66306C13.5 8.66804 13.5 8.67301 13.5 8.67799C13.5 8.68297 13.5 8.68795 13.5 8.69292C13.5 8.6979 13.5 8.70288 13.5 8.70785C13.5 8.71283 13.5 8.7178 13.5 8.72278C13.5 8.72775 13.5 8.73273 13.5 8.7377C13.5 8.74267 13.5 8.74765 13.5 8.75262C13.5 8.75759 13.5 8.76256 13.5 8.76753C13.5 8.7725 13.5 8.77747 13.5 8.78244C13.5 8.78741 13.5 8.79238 13.5 8.79735C13.5 8.80232 13.5 8.80729 13.5 8.81225C13.5 8.81722 13.5 8.82219 13.5 8.82715C13.5 8.83212 13.5 8.83708 13.5 8.84205C13.5 8.84701 13.5 8.85197 13.5 8.85694C13.5 8.8619 13.5 8.86686 13.5 8.87182C13.5 8.87678 13.5 8.88174 13.5 8.8867C13.5 8.89166 13.5 8.89662 13.5 8.90158C13.5 8.90654 13.5 8.9115 13.5 8.91645C13.5 8.92141 13.5 8.92637 13.5 8.93132C13.5 8.93628 13.5 8.94123 13.5 8.94618C13.5 8.95114 13.5 8.95609 13.5 8.96104C13.5 8.96599 13.5 8.97094 13.5 8.9759C13.5 8.98085 13.5 8.9858 13.5 8.99074C13.5 8.99569 13.5 9.00064 13.5 9.00559C13.5 9.01053 13.5 9.01548 13.5 9.02043C13.5 9.02537 13.5 9.03031 13.5 9.03526C13.5 9.0402 13.5 9.04514 13.5 9.05009C13.5 9.05503 13.5 9.05997 13.5 9.06491C13.5 9.06985 13.5 9.07479 13.5 9.07973C13.5 9.08466 13.5 9.0896 13.5 9.09454C13.5 9.09947 13.5 9.10441 13.5 9.10934C13.5 9.11428 13.5 9.11921 13.5 9.12414C13.5 9.12908 13.5 9.13401 13.5 9.13894C13.5 9.14387 13.5 9.1488 13.5 9.15373C13.5 9.15865 13.5 9.16358 13.5 9.16851C13.5 9.17343 13.5 9.17836 13.5 9.18328C13.5 9.18821 13.5 9.19313 13.5 9.19805C13.5 9.20298 13.5 9.2079 13.5 9.21282C13.5 9.21774 13.5 9.22266 13.5 9.22758C13.5 9.23249 13.5 9.23741 13.5 9.24233C13.5 9.24724 13.5 9.25216 13.5 9.25707C13.5 9.26199 13.5 9.2669 13.5 9.27181C13.5 9.27672 13.5 9.28163 13.5 9.28654C13.5 9.29145 13.5 9.29636 13.5 9.30127C13.5 9.30618 13.5 9.31108 13.5 9.31599C13.5 9.32089 13.5 9.3258 13.5 9.3307C13.5 9.3356 13.5 9.3405 13.5 9.3454C13.5 9.3503 13.5 9.3552 13.5 9.3601C13.5 9.365 13.5 9.3699 13.5 9.37479C13.5 9.37969 13.5 9.38458 13.5 9.38948C13.5 9.39437 13.5 9.39926 13.5 9.40415C13.5 9.40904 13.5 9.41393 13.5 9.41882C13.5 9.42371 13.5 9.4286 13.5 9.43348C13.5 9.43837 13.5 9.44325 13.5 9.44814C13.5 9.45302 13.5 9.4579 13.5 9.46278C13.5 9.46766 13.5 9.47254 13.5 9.47742C13.5 9.4823 13.5 9.48718 13.5 9.49205C13.5 9.49693 13.5 9.5018 13.5 9.50668C13.5 9.51155 13.5 9.51642 13.5 9.52129C13.5 9.52616 13.5 9.53103 13.5 9.5359C13.5 9.54077 13.5 9.54563 13.5 9.5505C13.5 9.55536 13.5 9.56023 13.5 9.56509C13.5 9.56995 13.5 9.57481 13.5 9.57967C13.5 9.58453 13.5 9.58939 13.5 9.59425C13.5 9.5991 13.5 9.60396 13.5 9.60881C13.5 9.61367 13.5 9.61852 13.5 9.62337C13.5 9.62822 13.5 9.63307 13.5 9.63792C13.5 9.64277 13.5 9.64762 13.5 9.65246C13.5 9.65731 13.5 9.66215 13.5 9.66699C13.5 9.67183 13.5 9.67668 13.5 9.68152C13.5 9.68636 13.5 9.69119 13.5 9.69603C13.5 9.70087 13.5 9.7057 13.5 9.71054C13.5 9.71537 13.5 9.7202 13.5 9.72503C13.5 9.72986 13.5 9.73469 13.5 9.73952C13.5 9.74435 13.5 9.74917 13.5 9.754C13.5 9.75882 13.5 9.76364 13.5 9.76846C13.5 9.77329 13.5 9.77811 13.5 9.78292C13.5 9.78774 13.5 9.79256 13.5 9.79737C13.5 9.80219 13.5 9.807 13.5 9.81181C13.5 9.81663 13.5 9.82144 13.5 9.82624C13.5 9.83105 13.5 9.83586 13.5 9.84066C13.5 9.84547 13.5 9.85027 13.5 9.85508C13.5 9.85988 13.5 9.86468 13.5 9.86948C13.5 9.87428 13.5 9.87907 13.5 9.88387C13.5 9.88866 13.5 9.89346 13.5 9.89825C13.5 9.90304 13.5 9.90783 13.5 9.91262C13.5 9.91741 13.5 9.9222 13.5 9.92698C13.5 9.93177 13.5 9.93655 13.5 9.94133C13.5 9.94611 13.5 9.95089 13.5 9.95567C13.5 9.96045 13.5 9.96523 13.5 9.97C13.5 9.97478 13.5 9.97955 13.5 9.98432C13.5 9.98909 13.5 9.99386 13.5 9.99863C13.5 10.0034 13.5 10.0082 13.5 10.0129C13.5 10.0177 13.5 10.0225 13.5 10.0272C13.5 10.032 13.5 10.0367 13.5 10.0415C13.5 10.0462 13.5 10.051 13.5 10.0558C13.5 10.0605 13.5 10.0653 13.5 10.07C13.5 10.0748 13.5 10.0795 13.5 10.0843C13.5 10.089 13.5 10.0937 13.5 10.0985C13.5 10.1032 13.5 10.108 13.5 10.1127C13.5 10.1174 13.5 10.1222 13.5 10.1269C13.5 10.1317 13.5 10.1364 13.5 10.1411C13.5 10.1458 13.5 10.1506 13.5 10.1553C13.5 10.16 13.5 10.1648 13.5 10.1695C13.5 10.1742 13.5 10.1789 13.5 10.1836C13.5 10.1884 13.5 10.1931 13.5 10.1978C13.5 10.2025 13.5 10.2072 13.5 10.2119C13.5 10.2166 13.5 10.2214 13.5 10.2261C13.5 10.2308 13.5 10.2355 13.5 10.2402C13.5 10.2449 13.5 10.2496 13.5 10.2543C13.5 10.259 13.5 10.2637 13.5 10.2684C13.5 10.2731 13.5 10.2778 13.5 10.2825C13.5 10.2871 13.5 10.2918 13.5 10.2965C13.5 10.3012 13.5 10.3059 13.5 10.3106C13.5 10.3153 13.5 10.3199 13.5 10.3246C13.5 10.3293 13.5 10.334 13.5 10.3387C13.5 10.3433 13.5 10.348 13.5 10.3527C13.5 10.3573 13.5 10.362 13.5 10.3667C13.5 10.3713 13.5 10.376 13.5 10.3807C13.5 10.3853 13.5 10.39 13.5 10.3946C13.5 10.3993 13.5 10.404 13.5 10.4086C13.5 10.4133 13.5 10.4179 13.5 10.4226C13.5 10.4272 13.5 10.4319 13.5 10.4365C13.5 10.4411 13.5 10.4458 13.5 10.4504C13.5 10.4551 13.5 10.4597 13.5 10.4643C13.5 10.469 13.5 10.4736 13.5 10.4782C13.5 10.4829 13.5 10.4875 13.5 10.4921C13.5 10.4968 13.5 10.5014 13.5 10.506C13.5 10.5106 13.5 10.5152 13.5 10.5199C13.5 10.5245 13.5 10.5291 13.5 10.5337C13.5 10.5383 13.5 10.5429 13.5 10.5475C13.5 10.5521 13.5 10.5568 13.5 10.5614C13.5 10.566 13.5 10.5706 13.5 10.5752C13.5 10.5798 13.5 10.5844 13.5 10.589C13.5 10.5935 13.5 10.5981 13.5 10.6027C13.5 10.6073 13.5 10.6119 13.5 10.6165C13.5 10.6211 13.5 10.6257 13.5 10.6302C13.5 10.6348 13.5 10.6394 13.5 10.644C13.5 10.6485 13.5 10.6531 13.5 10.6577C13.5 10.6623 13.5 10.6668 13.5 10.6714C13.5 10.676 13.5 10.6805 13.5 10.6851C13.5 10.6896 13.5 10.6942 13.5 10.6988C13.5 10.7033 13.5 10.7079 13.5 10.7124C13.5 10.717 13.5 10.7215 13.5 10.7261C13.5 10.7306 13.5 10.7352 13.5 10.7397C13.5 10.7442 13.5 10.7488 13.5 10.7533C13.5 10.7578 13.5 10.7624 13.5 10.7669C13.5 10.7714 13.5 10.776 13.5 10.7805C13.5 10.785 13.5 10.7895 13.5 10.7941C13.5 10.7986 13.5 10.8031 13.5 10.8076C13.5 10.8121 13.5 10.8167 13.5 10.8212C13.5 10.8257 13.5 10.8302 13.5 10.8347C13.5 10.8392 13.5 10.8437 13.5 10.8482C13.5 10.8527 13.5 10.8572 13.5 10.8617C13.5 10.8662 13.5 10.8707 13.5 10.8752C13.5 10.8797 13.5 10.8841 13.5 10.8886C13.5 10.8931 13.5 10.8976 13.5 10.9021C13.5 10.9065 13.5 10.911 13.5 10.9155C13.5 10.92 13.5 10.9244 13.5 10.9289C13.5 10.9334 13.5 10.9378 13.5 10.9423C13.5 10.9468 13.5 10.9512 13.5 10.9557C13.5 10.9601 13.5 10.9646 13.5 10.9691C13.5 10.9735 13.5 10.978 13.5 10.9824C13.5 10.9868 13.5 10.9913 13.5 10.9957C13.5 11.0002 13.5 11.0046 13.5 11.009C13.5 11.0135 13.5 11.0179 13.5 11.0223C13.5 11.0268 13.5 11.0312 13.5 11.0356C13.5 11.0401 13.5 11.0445 13.5 11.0489C13.5 11.0533 13.5 11.0577 13.5 11.0621C13.5 11.0666 13.5 11.071 13.5 11.0754C13.5 11.0798 13.5 11.0842 13.5 11.0886C13.5 11.093 13.5 11.0974 13.5 11.1018C13.5 11.1062 13.5 11.1106 13.5 11.115C13.5 11.1194 13.5 11.1237 13.5 11.1281C13.5 11.1325 13.5 11.1369 13.5 11.1413C13.5 11.1456 13.5 11.15 13.5 11.1544C13.5 11.1588 13.5 11.1631 13.5 11.1675C13.5 11.1719 13.5 11.1762 13.5 11.1806C13.5 11.185 13.5 11.1893 13.5 11.1937H14H14.5C14.5 11.1893 14.5 11.185 14.5 11.1806C14.5 11.1762 14.5 11.1719 14.5 11.1675C14.5 11.1631 14.5 11.1588 14.5 11.1544C14.5 11.15 14.5 11.1456 14.5 11.1413C14.5 11.1369 14.5 11.1325 14.5 11.1281C14.5 11.1237 14.5 11.1194 14.5 11.115C14.5 11.1106 14.5 11.1062 14.5 11.1018C14.5 11.0974 14.5 11.093 14.5 11.0886C14.5 11.0842 14.5 11.0798 14.5 11.0754C14.5 11.071 14.5 11.0666 14.5 11.0621C14.5 11.0577 14.5 11.0533 14.5 11.0489C14.5 11.0445 14.5 11.0401 14.5 11.0356C14.5 11.0312 14.5 11.0268 14.5 11.0223C14.5 11.0179 14.5 11.0135 14.5 11.009C14.5 11.0046 14.5 11.0002 14.5 10.9957C14.5 10.9913 14.5 10.9868 14.5 10.9824C14.5 10.978 14.5 10.9735 14.5 10.9691C14.5 10.9646 14.5 10.9601 14.5 10.9557C14.5 10.9512 14.5 10.9468 14.5 10.9423C14.5 10.9378 14.5 10.9334 14.5 10.9289C14.5 10.9244 14.5 10.92 14.5 10.9155C14.5 10.911 14.5 10.9065 14.5 10.9021C14.5 10.8976 14.5 10.8931 14.5 10.8886C14.5 10.8841 14.5 10.8797 14.5 10.8752C14.5 10.8707 14.5 10.8662 14.5 10.8617C14.5 10.8572 14.5 10.8527 14.5 10.8482C14.5 10.8437 14.5 10.8392 14.5 10.8347C14.5 10.8302 14.5 10.8257 14.5 10.8212C14.5 10.8167 14.5 10.8121 14.5 10.8076C14.5 10.8031 14.5 10.7986 14.5 10.7941C14.5 10.7895 14.5 10.785 14.5 10.7805C14.5 10.776 14.5 10.7714 14.5 10.7669C14.5 10.7624 14.5 10.7578 14.5 10.7533C14.5 10.7488 14.5 10.7442 14.5 10.7397C14.5 10.7352 14.5 10.7306 14.5 10.7261C14.5 10.7215 14.5 10.717 14.5 10.7124C14.5 10.7079 14.5 10.7033 14.5 10.6988C14.5 10.6942 14.5 10.6896 14.5 10.6851C14.5 10.6805 14.5 10.676 14.5 10.6714C14.5 10.6668 14.5 10.6623 14.5 10.6577C14.5 10.6531 14.5 10.6485 14.5 10.644C14.5 10.6394 14.5 10.6348 14.5 10.6302C14.5 10.6257 14.5 10.6211 14.5 10.6165C14.5 10.6119 14.5 10.6073 14.5 10.6027C14.5 10.5981 14.5 10.5935 14.5 10.589C14.5 10.5844 14.5 10.5798 14.5 10.5752C14.5 10.5706 14.5 10.566 14.5 10.5614C14.5 10.5568 14.5 10.5521 14.5 10.5475C14.5 10.5429 14.5 10.5383 14.5 10.5337C14.5 10.5291 14.5 10.5245 14.5 10.5199C14.5 10.5152 14.5 10.5106 14.5 10.506C14.5 10.5014 14.5 10.4968 14.5 10.4921C14.5 10.4875 14.5 10.4829 14.5 10.4782C14.5 10.4736 14.5 10.469 14.5 10.4643C14.5 10.4597 14.5 10.4551 14.5 10.4504C14.5 10.4458 14.5 10.4411 14.5 10.4365C14.5 10.4319 14.5 10.4272 14.5 10.4226C14.5 10.4179 14.5 10.4133 14.5 10.4086C14.5 10.404 14.5 10.3993 14.5 10.3946C14.5 10.39 14.5 10.3853 14.5 10.3807C14.5 10.376 14.5 10.3713 14.5 10.3667C14.5 10.362 14.5 10.3573 14.5 10.3527C14.5 10.348 14.5 10.3433 14.5 10.3387C14.5 10.334 14.5 10.3293 14.5 10.3246C14.5 10.3199 14.5 10.3153 14.5 10.3106C14.5 10.3059 14.5 10.3012 14.5 10.2965C14.5 10.2918 14.5 10.2871 14.5 10.2825C14.5 10.2778 14.5 10.2731 14.5 10.2684C14.5 10.2637 14.5 10.259 14.5 10.2543C14.5 10.2496 14.5 10.2449 14.5 10.2402C14.5 10.2355 14.5 10.2308 14.5 10.2261C14.5 10.2214 14.5 10.2166 14.5 10.2119C14.5 10.2072 14.5 10.2025 14.5 10.1978C14.5 10.1931 14.5 10.1884 14.5 10.1836C14.5 10.1789 14.5 10.1742 14.5 10.1695C14.5 10.1648 14.5 10.16 14.5 10.1553C14.5 10.1506 14.5 10.1458 14.5 10.1411C14.5 10.1364 14.5 10.1317 14.5 10.1269C14.5 10.1222 14.5 10.1174 14.5 10.1127C14.5 10.108 14.5 10.1032 14.5 10.0985C14.5 10.0937 14.5 10.089 14.5 10.0843C14.5 10.0795 14.5 10.0748 14.5 10.07C14.5 10.0653 14.5 10.0605 14.5 10.0558C14.5 10.051 14.5 10.0462 14.5 10.0415C14.5 10.0367 14.5 10.032 14.5 10.0272C14.5 10.0225 14.5 10.0177 14.5 10.0129C14.5 10.0082 14.5 10.0034 14.5 9.99863C14.5 9.99386 14.5 9.98909 14.5 9.98432C14.5 9.97955 14.5 9.97478 14.5 9.97C14.5 9.96523 14.5 9.96045 14.5 9.95567C14.5 9.95089 14.5 9.94611 14.5 9.94133C14.5 9.93655 14.5 9.93177 14.5 9.92698C14.5 9.9222 14.5 9.91741 14.5 9.91262C14.5 9.90783 14.5 9.90304 14.5 9.89825C14.5 9.89346 14.5 9.88866 14.5 9.88387C14.5 9.87907 14.5 9.87428 14.5 9.86948C14.5 9.86468 14.5 9.85988 14.5 9.85508C14.5 9.85027 14.5 9.84547 14.5 9.84066C14.5 9.83586 14.5 9.83105 14.5 9.82624C14.5 9.82144 14.5 9.81663 14.5 9.81181C14.5 9.807 14.5 9.80219 14.5 9.79737C14.5 9.79256 14.5 9.78774 14.5 9.78292C14.5 9.77811 14.5 9.77329 14.5 9.76846C14.5 9.76364 14.5 9.75882 14.5 9.754C14.5 9.74917 14.5 9.74435 14.5 9.73952C14.5 9.73469 14.5 9.72986 14.5 9.72503C14.5 9.7202 14.5 9.71537 14.5 9.71054C14.5 9.7057 14.5 9.70087 14.5 9.69603C14.5 9.69119 14.5 9.68636 14.5 9.68152C14.5 9.67668 14.5 9.67183 14.5 9.66699C14.5 9.66215 14.5 9.65731 14.5 9.65246C14.5 9.64762 14.5 9.64277 14.5 9.63792C14.5 9.63307 14.5 9.62822 14.5 9.62337C14.5 9.61852 14.5 9.61367 14.5 9.60881C14.5 9.60396 14.5 9.5991 14.5 9.59425C14.5 9.58939 14.5 9.58453 14.5 9.57967C14.5 9.57481 14.5 9.56995 14.5 9.56509C14.5 9.56023 14.5 9.55536 14.5 9.5505C14.5 9.54563 14.5 9.54077 14.5 9.5359C14.5 9.53103 14.5 9.52616 14.5 9.52129C14.5 9.51642 14.5 9.51155 14.5 9.50668C14.5 9.5018 14.5 9.49693 14.5 9.49205C14.5 9.48718 14.5 9.4823 14.5 9.47742C14.5 9.47254 14.5 9.46766 14.5 9.46278C14.5 9.4579 14.5 9.45302 14.5 9.44814C14.5 9.44325 14.5 9.43837 14.5 9.43348C14.5 9.4286 14.5 9.42371 14.5 9.41882C14.5 9.41393 14.5 9.40904 14.5 9.40415C14.5 9.39926 14.5 9.39437 14.5 9.38948C14.5 9.38458 14.5 9.37969 14.5 9.37479C14.5 9.3699 14.5 9.365 14.5 9.3601C14.5 9.3552 14.5 9.3503 14.5 9.3454C14.5 9.3405 14.5 9.3356 14.5 9.3307C14.5 9.3258 14.5 9.32089 14.5 9.31599C14.5 9.31108 14.5 9.30618 14.5 9.30127C14.5 9.29636 14.5 9.29145 14.5 9.28654C14.5 9.28163 14.5 9.27672 14.5 9.27181C14.5 9.2669 14.5 9.26199 14.5 9.25707C14.5 9.25216 14.5 9.24724 14.5 9.24233C14.5 9.23741 14.5 9.23249 14.5 9.22758C14.5 9.22266 14.5 9.21774 14.5 9.21282C14.5 9.2079 14.5 9.20298 14.5 9.19805C14.5 9.19313 14.5 9.18821 14.5 9.18328C14.5 9.17836 14.5 9.17343 14.5 9.16851C14.5 9.16358 14.5 9.15865 14.5 9.15373C14.5 9.1488 14.5 9.14387 14.5 9.13894C14.5 9.13401 14.5 9.12908 14.5 9.12414C14.5 9.11921 14.5 9.11428 14.5 9.10934C14.5 9.10441 14.5 9.09947 14.5 9.09454C14.5 9.0896 14.5 9.08466 14.5 9.07973C14.5 9.07479 14.5 9.06985 14.5 9.06491C14.5 9.05997 14.5 9.05503 14.5 9.05009C14.5 9.04514 14.5 9.0402 14.5 9.03526C14.5 9.03031 14.5 9.02537 14.5 9.02043C14.5 9.01548 14.5 9.01053 14.5 9.00559C14.5 9.00064 14.5 8.99569 14.5 8.99074C14.5 8.9858 14.5 8.98085 14.5 8.9759C14.5 8.97094 14.5 8.96599 14.5 8.96104C14.5 8.95609 14.5 8.95114 14.5 8.94618C14.5 8.94123 14.5 8.93628 14.5 8.93132C14.5 8.92637 14.5 8.92141 14.5 8.91645C14.5 8.9115 14.5 8.90654 14.5 8.90158C14.5 8.89662 14.5 8.89166 14.5 8.8867C14.5 8.88174 14.5 8.87678 14.5 8.87182C14.5 8.86686 14.5 8.8619 14.5 8.85694C14.5 8.85197 14.5 8.84701 14.5 8.84205C14.5 8.83708 14.5 8.83212 14.5 8.82715C14.5 8.82219 14.5 8.81722 14.5 8.81225C14.5 8.80729 14.5 8.80232 14.5 8.79735C14.5 8.79238 14.5 8.78741 14.5 8.78244C14.5 8.77747 14.5 8.7725 14.5 8.76753C14.5 8.76256 14.5 8.75759 14.5 8.75262C14.5 8.74765 14.5 8.74267 14.5 8.7377C14.5 8.73273 14.5 8.72775 14.5 8.72278C14.5 8.7178 14.5 8.71283 14.5 8.70785C14.5 8.70288 14.5 8.6979 14.5 8.69292C14.5 8.68795 14.5 8.68297 14.5 8.67799C14.5 8.67301 14.5 8.66804 14.5 8.66306C14.5 8.65808 14.5 8.6531 14.5 8.64812C14.5 8.64314 14.5 8.63816 14.5 8.63318C14.5 8.62819 14.5 8.62321 14.5 8.61823C14.5 8.61325 14.5 8.60827 14.5 8.60328C14.5 8.5983 14.5 8.59332 14.5 8.58833C14.5 8.58335 14.5 8.57836 14.5 8.57338C14.5 8.56839 14.5 8.56341 14.5 8.55842C14.5 8.55344 14.5 8.54845 14.5 8.54346C14.5 8.53848 14.5 8.53349 14.5 8.5285C14.5 8.52351 14.5 8.51852 14.5 8.51354C14.5 8.50855 14.5 8.50356 14.5 8.49857C14.5 8.49358 14.5 8.48859 14.5 8.4836C14.5 8.47861 14.5 8.47362 14.5 8.46863C14.5 8.46364 14.5 8.45865 14.5 8.45365C14.5 8.44866 14.5 8.44367 14.5 8.43868C14.5 8.43369 14.5 8.42869 14.5 8.4237C14.5 8.41871 14.5 8.41371 14.5 8.40872C14.5 8.40373 14.5 8.39873 14.5 8.39374C14.5 8.38874 14.5 8.38375 14.5 8.37876C14.5 8.37376 14.5 8.36877 14.5 8.36377C14.5 8.35878 14.5 8.35378 14.5 8.34878C14.5 8.34379 14.5 8.33879 14.5 8.3338C14.5 8.3288 14.5 8.3238 14.5 8.31881C14.5 8.31381 14.5 8.30881 14.5 8.30381C14.5 8.29882 14.5 8.29382 14.5 8.28882C14.5 8.28382 14.5 8.27883 14.5 8.27383C14.5 8.26883 14.5 8.26383 14.5 8.25883C14.5 8.25384 14.5 8.24884 14.5 8.24384C14.5 8.23884 14.5 8.23384 14.5 8.22884C14.5 8.22384 14.5 8.21884 14.5 8.21384C14.5 8.20884 14.5 8.20384 14.5 8.19884C14.5 8.19385 14.5 8.18885 14.5 8.18385C14.5 8.17885 14.5 8.17385 14.5 8.16885C14.5 8.16385 14.5 8.15885 14.5 8.15385C14.5 8.14885 14.5 8.14385 14.5 8.13884C14.5 8.13384 14.5 8.12884 14.5 8.12384C14.5 8.11884 14.5 8.11384 14.5 8.10884C14.5 8.10384 14.5 8.09884 14.5 8.09384C14.5 8.08884 14.5 8.08384 14.5 8.07884C14.5 8.07384 14.5 8.06884 14.5 8.06384C14.5 8.05884 14.5 8.05383 14.5 8.04883C14.5 8.04383 14.5 8.03883 14.5 8.03383C14.5 8.02883 14.5 8.02383 14.5 8.01883C14.5 8.01383 14.5 8.00883 14.5 8.00383C14.5 7.99883 14.5 7.99383 14.5 7.98883C14.5 7.98383 14.5 7.97883 14.5 7.97383C14.5 7.96883 14.5 7.96383 14.5 7.95883C14.5 7.95383 14.5 7.94883 14.5 7.94383C14.5 7.93883 14.5 7.93383 14.5 7.92883C14.5 7.92383 14.5 7.91883 14.5 7.91383C14.5 7.90883 14.5 7.90383 14.5 7.89883C14.5 7.89383 14.5 7.88883 14.5 7.88383C14.5 7.87884 14.5 7.87384 14.5 7.86884C14.5 7.86384 14.5 7.85884 14.5 7.85385C14.5 7.84885 14.5 7.84385 14.5 7.83885C14.5 7.83385 14.5 7.82886 14.5 7.82386C14.5 7.81886 14.5 7.81387 14.5 7.80887C14.5 7.80387 14.5 7.79888 14.5 7.79388C14.5 7.78888 14.5 7.78389 14.5 7.77889C14.5 7.7739 14.5 7.7689 14.5 7.76391C14.5 7.75891 14.5 7.75391 14.5 7.74892C14.5 7.74393 14.5 7.73893 14.5 7.73394C14.5 7.72894 14.5 7.72395 14.5 7.71896C14.5 7.71396 14.5 7.70897 14.5 7.70398C14.5 7.69898 14.5 7.69399 14.5 7.689C14.5 7.68401 14.5 7.67902 14.5 7.67402C14.5 7.66903 14.5 7.66404 14.5 7.65905C14.5 7.65406 14.5 7.64907 14.5 7.64408C14.5 7.63909 14.5 7.6341 14.5 7.62911C14.5 7.62412 14.5 7.61913 14.5 7.61414C14.5 7.60916 14.5 7.60417 14.5 7.59918C14.5 7.59419 14.5 7.58921 14.5 7.58422C14.5 7.57923 14.5 7.57425 14.5 7.56926C14.5 7.56428 14.5 7.55929 14.5 7.55431C14.5 7.54932 14.5 7.54434 14.5 7.53935C14.5 7.53437 14.5 7.52938 14.5 7.5244C14.5 7.51942 14.5 7.51444 14.5 7.50945C14.5 7.50447 14.5 7.49949 14.5 7.49451C14.5 7.48953 14.5 7.48455 14.5 7.47957C14.5 7.47459 14.5 7.46961 14.5 7.46463C14.5 7.45965 14.5 7.45467 14.5 7.4497C14.5 7.44472 14.5 7.43974 14.5 7.43476C14.5 7.42979 14.5 7.42481 14.5 7.41984C14.5 7.41486 14.5 7.40989 14.5 7.40491C14.5 7.39994 14.5 7.39496 14.5 7.38999C14.5 7.38502 14.5 7.38005 14.5 7.37507C14.5 7.3701 14.5 7.36513 14.5 7.36016C14.5 7.35519 14.5 7.35022 14.5 7.34525C14.5 7.34028 14.5 7.33531 14.5 7.33035C14.5 7.32538 14.5 7.32041 14.5 7.31544C14.5 7.31048 14.5 7.30551 14.5 7.30055C14.5 7.29558 14.5 7.29062 14.5 7.28565C14.5 7.28069 14.5 7.27573 14.5 7.27076C14.5 7.2658 14.5 7.26084 14.5 7.25588C14.5 7.25092 14.5 7.24596 14.5 7.241C14.5 7.23604 14.5 7.23108 14.5 7.22612C14.5 7.22116 14.5 7.21621 14.5 7.21125C14.5 7.2063 14.5 7.20134 14.5 7.19638C14.5 7.19143 14.5 7.18648 14.5 7.18152C14.5 7.17657 14.5 7.17162 14.5 7.16667C14.5 7.16171 14.5 7.15676 14.5 7.15181C14.5 7.14686 14.5 7.14191 14.5 7.13697C14.5 7.13202 14.5 7.12707 14.5 7.12212C14.5 7.11718 14.5 7.11223 14.5 7.10729C14.5 7.10234 14.5 7.0974 14.5 7.09246C14.5 7.08751 14.5 7.08257 14.5 7.07763C14.5 7.07269 14.5 7.06775 14.5 7.06281C14.5 7.05787 14.5 7.05293 14.5 7.04799C14.5 7.04306 14.5 7.03812 14.5 7.03318C14.5 7.02825 14.5 7.02331 14.5 7.01838C14.5 7.01344 14.5 7.00851 14.5 7.00358C14.5 6.99865 14.5 6.99372 14.5 6.98879C14.5 6.98386 14.5 6.97893 14.5 6.974C14.5 6.96907 14.5 6.96414 14.5 6.95922C14.5 6.95429 14.5 6.94937 14.5 6.94444C14.5 6.93952 14.5 6.9346 14.5 6.92967C14.5 6.92475 14.5 6.91983 14.5 6.91491C14.5 6.90999 14.5 6.90507 14.5 6.90016C14.5 6.89524 14.5 6.89032 14.5 6.88541C14.5 6.88049 14.5 6.87558 14.5 6.87066C14.5 6.86575 14.5 6.86084 14.5 6.85593C14.5 6.85101 14.5 6.8461 14.5 6.8412C14.5 6.83629 14.5 6.83138 14.5 6.82647C14.5 6.82156 14.5 6.81666 14.5 6.81175C14.5 6.80685 14.5 6.80195 14.5 6.79704C14.5 6.79214 14.5 6.78724 14.5 6.78234C14.5 6.77744 14.5 6.77254 14.5 6.76765C14.5 6.76275 14.5 6.75785 14.5 6.75296C14.5 6.74806 14.5 6.74317 14.5 6.73828C14.5 6.73338 14.5 6.72849 14.5 6.7236C14.5 6.71871 14.5 6.71382 14.5 6.70893C14.5 6.70405 14.5 6.69916 14.5 6.69427C14.5 6.68939 14.5 6.6845 14.5 6.67962C14.5 6.67474 14.5 6.66986 14.5 6.66498C14.5 6.6601 14.5 6.65522 14.5 6.65034C14.5 6.64546 14.5 6.64059 14.5 6.63571C14.5 6.63084 14.5 6.62596 14.5 6.62109C14.5 6.61622 14.5 6.61135 14.5 6.60648C14.5 6.60161 14.5 6.59674 14.5 6.59187C14.5 6.587 14.5 6.58214 14.5 6.57727C14.5 6.57241 14.5 6.56755 14.5 6.56268C14.5 6.55782 14.5 6.55296 14.5 6.5481C14.5 6.54324 14.5 6.53839 14.5 6.53353C14.5 6.52868 14.5 6.52382 14.5 6.51897C14.5 6.51411 14.5 6.50926 14.5 6.50441C14.5 6.49956 14.5 6.49471 14.5 6.48986C14.5 6.48502 14.5 6.48017 14.5 6.47533C14.5 6.47048 14.5 6.46564 14.5 6.4608C14.5 6.45595 14.5 6.45111 14.5 6.44628C14.5 6.44144 14.5 6.4366 14.5 6.43176C14.5 6.42693 14.5 6.42209 14.5 6.41726C14.5 6.41243 14.5 6.4076 14.5 6.40277C14.5 6.39794 14.5 6.39311 14.5 6.38828C14.5 6.38346 14.5 6.37863 14.5 6.37381C14.5 6.36898 14.5 6.36416 14.5 6.35934C14.5 6.35452 14.5 6.3497 14.5 6.34488C14.5 6.34007 14.5 6.33525 14.5 6.33044C14.5 6.32562 14.5 6.32081 14.5 6.316C14.5 6.31119 14.5 6.30638 14.5 6.30157C14.5 6.29676 14.5 6.29196 14.5 6.28715C14.5 6.28235 14.5 6.27754 14.5 6.27274C14.5 6.26794 14.5 6.26314 14.5 6.25834C14.5 6.25355 14.5 6.24875 14.5 6.24396C14.5 6.23916 14.5 6.23437 14.5 6.22958C14.5 6.22479 14.5 6.22 14.5 6.21521C14.5 6.21042 14.5 6.20563 14.5 6.20085C14.5 6.19606 14.5 6.19128 14.5 6.1865C14.5 6.18172 14.5 6.17694 14.5 6.17216C14.5 6.16739 14.5 6.16261 14.5 6.15784C14.5 6.15306 14.5 6.14829 14.5 6.14352C14.5 6.13875 14.5 6.13398 14.5 6.12921C14.5 6.12445 14.5 6.11968 14.5 6.11492C14.5 6.11015 14.5 6.10539 14.5 6.10063C14.5 6.09587 14.5 6.09112 14.5 6.08636C14.5 6.0816 14.5 6.07685 14.5 6.0721C14.5 6.06734 14.5 6.06259 14.5 6.05784C14.5 6.0531 14.5 6.04835 14.5 6.0436C14.5 6.03886 14.5 6.03412 14.5 6.02937C14.5 6.02463 14.5 6.01989 14.5 6.01516C14.5 6.01042 14.5 6.00568 14.5 6.00095C14.5 5.99622 14.5 5.99148 14.5 5.98675C14.5 5.98202 14.5 5.9773 14.5 5.97257C14.5 5.96784 14.5 5.96312 14.5 5.9584C14.5 5.95367 14.5 5.94895 14.5 5.94424C14.5 5.93952 14.5 5.9348 14.5 5.93009C14.5 5.92537 14.5 5.92066 14.5 5.91595C14.5 5.91124 14.5 5.90653 14.5 5.90182C14.5 5.89712 14.5 5.89241 14.5 5.88771C14.5 5.88301 14.5 5.87831 14.5 5.87361C14.5 5.86891 14.5 5.86422 14.5 5.85952C14.5 5.85483 14.5 5.85013 14.5 5.84544C14.5 5.84075 14.5 5.83607 14.5 5.83138C14.5 5.82669 14.5 5.82201 14.5 5.81733C14.5 5.81265 14.5 5.80797 14.5 5.80329C14.5 5.79861 14.5 5.79394 14.5 5.78926C14.5 5.78459 14.5 5.77992 14.5 5.77525C14.5 5.77058 14.5 5.76591 14.5 5.76125C14.5 5.75658 14.5 5.75192 14.5 5.74726C14.5 5.7426 14.5 5.73794 14.5 5.73328C14.5 5.72862 14.5 5.72397 14.5 5.71932C14.5 5.71467 14.5 5.71002 14.5 5.70537C14.5 5.70072 14.5 5.69608 14.5 5.69143C14.5 5.68679 14.5 5.68215 14.5 5.67751C14.5 5.67287 14.5 5.66823 14.5 5.6636C14.5 5.65896 14.5 5.65433 14.5 5.6497C14.5 5.64507 14.5 5.64044 14.5 5.63582C14.5 5.63119 14.5 5.62657 14.5 5.62195C14.5 5.61733 14.5 5.61271 14.5 5.60809C14.5 5.60348 14.5 5.59886 14.5 5.59425C14.5 5.58964 14.5 5.58503 14.5 5.58042C14.5 5.57581 14.5 5.57121 14.5 5.56661C14.5 5.562 14.5 5.5574 14.5 5.55281C14.5 5.54821 14.5 5.54361 14.5 5.53902C14.5 5.53443 14.5 5.52984 14.5 5.52525C14.5 5.52066 14.5 5.51607 14.5 5.51149C14.5 5.5069 14.5 5.50232 14.5 5.49774C14.5 5.49317 14.5 5.48859 14.5 5.48401C14.5 5.47944 14.5 5.47487 14.5 5.4703C14.5 5.46573 14.5 5.46116 14.5 5.4566C14.5 5.45203 14.5 5.44747 14.5 5.44291C14.5 5.43835 14.5 5.4338 14.5 5.42924C14.5 5.42469 14.5 5.42013 14.5 5.41558C14.5 5.41103 14.5 5.40649 14.5 5.40194C14.5 5.3974 14.5 5.39286 14.5 5.38832C14.5 5.38378 14.5 5.37924 14.5 5.3747C14.5 5.37017 14.5 5.36564 14.5 5.36111C14.5 5.35658 14.5 5.35205 14.5 5.34753C14.5 5.343 14.5 5.33848 14.5 5.33396C14.5 5.32944 14.5 5.32492 14.5 5.32041C14.5 5.31589 14.5 5.31138 14.5 5.30687C14.5 5.30236 14.5 5.29786 14.5 5.29335C14.5 5.28885 14.5 5.28435 14.5 5.27985C14.5 5.27535 14.5 5.27085 14.5 5.26636C14.5 5.26187 14.5 5.25738 14.5 5.25289C14.5 5.2484 14.5 5.24391 14.5 5.23943C14.5 5.23495 14.5 5.23047 14.5 5.22599C14.5 5.22151 14.5 5.21704 14.5 5.21256C14.5 5.20809 14.5 5.20362 14.5 5.19915C14.5 5.19469 14.5 5.19022 14.5 5.18576C14.5 5.1813 14.5 5.17684 14.5 5.17238C14.5 5.16793 14.5 5.16347 14.5 5.15902C14.5 5.15457 14.5 5.15012 14.5 5.14568C14.5 5.14123 14.5 5.13679 14.5 5.13235C14.5 5.12791 14.5 5.12348 14.5 5.11904C14.5 5.11461 14.5 5.11018 14.5 5.10575C14.5 5.10132 14.5 5.09689 14.5 5.09247C14.5 5.08805 14.5 5.08363 14.5 5.07921C14.5 5.07479 14.5 5.07038 14.5 5.06596C14.5 5.06155 14.5 5.05714 14.5 5.05274C14.5 5.04833 14.5 5.04393 14.5 5.03953C14.5 5.03513 14.5 5.03073 14.5 5.02633C14.5 5.02194 14.5 5.01755 14.5 5.01316C14.5 5.00877 14.5 5.00438 14.5 5C14.5 4.99562 14.5 4.99124 14.5 4.98686C14.5 4.98248 14.5 4.97811 14.5 4.97374C14.5 4.96937 14.5 4.965 14.5 4.96063C14.5 4.95627 14.5 4.9519 14.5 4.94754C14.5 4.94318 14.5 4.93883 14.5 4.93447C14.5 4.93012 14.5 4.92577 14.5 4.92142C14.5 4.91707 14.5 4.91273 14.5 4.90839C14.5 4.90404 14.5 4.8997 14.5 4.89537C14.5 4.89103 14.5 4.8867 14.5 4.88237C14.5 4.87804 14.5 4.87371 14.5 4.86939C14.5 4.86507 14.5 4.86074 14.5 4.85643C14.5 4.85211 14.5 4.84779 14.5 4.84348C14.5 4.83917 14.5 4.83486 14.5 4.83056C14.5 4.82625 14.5 4.82195 14.5 4.81765C14.5 4.81335 14.5 4.80905 14.5 4.80476C14.5 4.80047 14.5 4.79618 14.5 4.79189C14.5 4.7876 14.5 4.78332 14.5 4.77904C14.5 4.77476 14.5 4.77048 14.5 4.76621C14.5 4.76193 14.5 4.75766 14.5 4.75339C14.5 4.74912 14.5 4.74486 14.5 4.7406C14.5 4.73633 14.5 4.73208 14.5 4.72782C14.5 4.72357 14.5 4.71931 14.5 4.71506C14.5 4.71081 14.5 4.70657 14.5 4.70233C14.5 4.69808 14.5 4.69384 14.5 4.68961C14.5 4.68537 14.5 4.68114 14.5 4.67691C14.5 4.67268 14.5 4.66845 14.5 4.66423C14.5 4.66001 14.5 4.65579 14.5 4.65157C14.5 4.64735 14.5 4.64314 14.5 4.63893C14.5 4.63472 14.5 4.63051 14.5 4.62631C14.5 4.6221 14.5 4.6179 14.5 4.61371C14.5 4.60951 14.5 4.60532 14.5 4.60112C14.5 4.59693 14.5 4.59275 14.5 4.58856C14.5 4.58438 14.5 4.5802 14.5 4.57602C14.5 4.57184 14.5 4.56767 14.5 4.5635C14.5 4.55933 14.5 4.55516 14.5 4.551C14.5 4.54684 14.5 4.54268 14.5 4.53852C14.5 4.53436 14.5 4.53021 14.5 4.52606C14.5 4.52191 14.5 4.51776 14.5 4.51362C14.5 4.50947 14.5 4.50533 14.5 4.5012C14.5 4.49706 14.5 4.49293 14.5 4.4888C14.5 4.48467 14.5 4.48054 14.5 4.47642C14.5 4.4723 14.5 4.46818 14.5 4.46406C14.5 4.45995 14.5 4.45583 14.5 4.45173C14.5 4.44762 14.5 4.44351 14.5 4.43941C14.5 4.43531 14.5 4.43121 14.5 4.42711C14.5 4.42302 14.5 4.41893 14.5 4.41484C14.5 4.41075 14.5 4.40667 14.5 4.40259C14.5 4.39851 14.5 4.39443 14.5 4.39036C14.5 4.38628 14.5 4.38221 14.5 4.37815C14.5 4.37408 14.5 4.37002 14.5 4.36596C14.5 4.3619 14.5 4.35784 14.5 4.35379C14.5 4.34974 14.5 4.34569 14.5 4.34164C14.5 4.3376 14.5 4.33356 14.5 4.32952C14.5 4.32548 14.5 4.32145 14.5 4.31742C14.5 4.31339 14.5 4.30936 14.5 4.30533C14.5 4.30131 14.5 4.29729 14.5 4.29328C14.5 4.28926 14.5 4.28525 14.5 4.28124C14.5 4.27723 14.5 4.27322 14.5 4.26922C14.5 4.26522 14.5 4.26122 14.5 4.25723C14.5 4.25324 14.5 4.24925 14.5 4.24526C14.5 4.24127 14.5 4.23729 14.5 4.23331C14.5 4.22933 14.5 4.22536 14.5 4.22139C14.5 4.21741 14.5 4.21345 14.5 4.20948C14.5 4.20552 14.5 4.20156 14.5 4.1976C14.5 4.19364 14.5 4.18969 14.5 4.18574C14.5 4.18179 14.5 4.17785 14.5 4.17391C14.5 4.16996 14.5 4.16603 14.5 4.16209C14.5 4.15816 14.5 4.15423 14.5 4.1503C14.5 4.14638 14.5 4.14245 14.5 4.13854C14.5 4.13462 14.5 4.1307 14.5 4.12679C14.5 4.12288 14.5 4.11897 14.5 4.11507C14.5 4.11117 14.5 4.10727 14.5 4.10337C14.5 4.09948 14.5 4.09559 14.5 4.0917C14.5 4.08781 14.5 4.08393 14.5 4.08005C14.5 4.07617 14.5 4.07229 14.5 4.06842C14.5 4.06455 14.5 4.06068 14.5 4.05681C14.5 4.05295 14.5 4.04909 14.5 4.04523C14.5 4.04138 14.5 4.03752 14.5 4.03368C14.5 4.02983 14.5 4.02598 14.5 4.02214C14.5 4.0183 14.5 4.01447 14.5 4.01063C14.5 4.0068 14.5 4.00297 14.5 3.99915H14ZM4 15H4.5V4H4H3.5V15H4ZM12 2V2.5C12.4855 2.5 12.7994 2.50106 13.0306 2.53215C13.2475 2.56131 13.3155 2.60838 13.3536 2.64645L13.7071 2.29289L14.0607 1.93934C13.8058 1.68451 13.4917 1.58514 13.1639 1.54107C12.8505 1.49894 12.4573 1.5 12 1.5V2ZM14 3.99915H14.5C14.5 3.54217 14.5011 3.14911 14.4589 2.83586C14.4148 2.50818 14.3154 2.19413 14.0607 1.93934L13.7071 2.29289L13.3536 2.64645C13.3917 2.68455 13.4387 2.75251 13.4679 2.96917C13.4989 3.20026 13.5 3.51389 13.5 3.99915H14ZM6 2V1.5C5.54273 1.5 5.14948 1.49894 4.8361 1.54107C4.50835 1.58514 4.19417 1.68451 3.93934 1.93934L4.29289 2.29289L4.64645 2.64645C4.68451 2.60838 4.75248 2.56131 4.96935 2.53215C5.20061 2.50106 5.51446 2.5 6 2.5V2ZM4 4H4.5C4.5 3.51446 4.50106 3.20061 4.53215 2.96935C4.56131 2.75248 4.60838 2.68451 4.64645 2.64645L4.29289 2.29289L3.93934 1.93934C3.68451 2.19417 3.58514 2.50835 3.54107 2.8361C3.49894 3.14948 3.5 3.54273 3.5 4H4Z" fill="white"/>
<path d="M12 2H7V13H12C12.9428 13 13.4142 13 13.7071 12.7071C14 12.4142 14 11.943 14 11.0007V3.9986C14 3.05673 14 2.58579 13.7071 2.29289C13.4142 2 12.9428 2 12 2Z" stroke="white"/>
<path d="M14 16.5C14.2761 16.5 14.5 16.2761 14.5 16C14.5 15.7239 14.2761 15.5 14 15.5V16V16.5ZM14 16V15.5H5.5V16V16.5H14V16ZM5.5 13V13.5H7.15789V13V12.5H5.5V13ZM4 14.5H3.5C3.5 15.6046 4.39543 16.5 5.5 16.5V16V15.5C4.94772 15.5 4.5 15.0523 4.5 14.5H4ZM4 14.5H4.5C4.5 13.9477 4.94772 13.5 5.5 13.5V13V12.5C4.39543 12.5 3.5 13.3954 3.5 14.5H4Z" fill="white"/>
<path d="M14 16H13.5C12.6716 16 12 15.3284 12 14.5V14.3333C12 13.597 12.597 13 13.3333 13C13.7015 13 14 12.7015 14 12.3333V9" stroke="white"/>
</g>
<defs>
<clipPath id="clip0_130_10795">
<rect width="18" height="18" fill="white"/>
</clipPath>
</defs>
</svg>
