<svg width="18" height="18" viewBox="0 0 18 18" fill="none" xmlns="http://www.w3.org/2000/svg">
<g clip-path="url(#clip0_130_10798)">
<path d="M5 13H4.5C3.55719 13 3.08579 13 2.79289 12.7071C2.5 12.4142 2.5 11.9428 2.5 11L2.50001 5C2.50001 4.05719 2.50001 3.58579 2.7929 3.29289C3.08579 3 3.5572 3 4.50001 3H13.5C14.4428 3 14.9142 3 15.2071 3.29289C15.5 3.58579 15.5 4.05719 15.5 5V11C15.5 11.9428 15.5 12.4142 15.2071 12.7071C14.9142 13 14.4428 13 13.5 13H13" stroke="white" stroke-linecap="round"/>
<path d="M7.8 12.6C8.1611 12.1185 8.34164 11.8778 8.55279 11.7722C8.83432 11.6315 9.16569 11.6315 9.44722 11.7722C9.65836 11.8778 9.83891 12.1185 10.2 12.6C10.7136 13.2848 10.9704 13.6273 10.996 13.9102C11.03 14.2874 10.8479 14.6515 10.5257 14.8507C10.2841 15 9.85605 15 9 15C8.14395 15 7.71592 15 7.47427 14.8507C7.15207 14.6515 6.97003 14.2874 7.00404 13.9102C7.02955 13.6273 7.28637 13.2848 7.8 12.6Z" stroke="white"/>
</g>
<defs>
<clipPath id="clip0_130_10798">
<rect width="18" height="18" fill="white"/>
</clipPath>
</defs>
</svg>
