<svg width="18" height="18" viewBox="0 0 18 18" fill="none" xmlns="http://www.w3.org/2000/svg">
<path d="M15.5 9C15.5 12.5899 12.5899 15.5 9 15.5C5.41015 15.5 2.5 12.5899 2.5 9C2.5 5.41015 5.41015 2.5 9 2.5C12.5899 2.5 15.5 5.41015 15.5 9Z" stroke="white"/>
<path d="M2.5 9V11.5C2.5 13.3856 2.5 14.3284 3.08579 14.9142C3.67157 15.5 4.61438 15.5 6.5 15.5H11.5C13.3856 15.5 14.3284 15.5 14.9142 14.9142C15.5 14.3284 15.5 13.3856 15.5 11.5V9" stroke="white" stroke-linecap="round"/>
<path d="M9 9V6" stroke="white" stroke-linecap="round"/>
<path d="M9 9L5.5 9" stroke="white" stroke-linecap="round"/>
</svg>
