<svg width="18" height="18" viewBox="0 0 18 18" fill="none" xmlns="http://www.w3.org/2000/svg">
<g clip-path="url(#clip0_130_10805)">
<path d="M3.5 6.5V14C3.5 14.9428 3.5 15.4142 3.79289 15.7071C4.08579 16 4.55719 16 5.5 16H12.5C13.4428 16 13.9142 16 14.2071 15.7071C14.5 15.4142 14.5 14.9428 14.5 14V6.5" stroke="white" stroke-linecap="round" stroke-linejoin="round"/>
<path d="M4.5 6.5L13.5 6.5C14.4428 6.5 14.9142 6.5 15.2071 6.20711C15.5 5.91421 15.5 5.44281 15.5 4.5C15.5 3.55719 15.5 3.08579 15.2071 2.79289C14.9142 2.5 14.4428 2.5 13.5 2.5L8.3 2.5L4.5 2.5C3.55719 2.5 3.08579 2.5 2.79289 2.79289C2.5 3.08579 2.5 3.55719 2.5 4.5C2.5 5.44281 2.5 5.91421 2.79289 6.20711C3.08579 6.5 3.55719 6.5 4.5 6.5Z" stroke="white" stroke-linecap="round" stroke-linejoin="round"/>
<path d="M7 10L11 10" stroke="white" stroke-linecap="round" stroke-linejoin="round"/>
</g>
<defs>
<clipPath id="clip0_130_10805">
<rect width="18" height="18" fill="white"/>
</clipPath>
</defs>
</svg>
