<svg width="18" height="18" viewBox="0 0 18 18" fill="none" xmlns="http://www.w3.org/2000/svg">
<g clip-path="url(#clip0_130_10830)">
<path d="M3.52069 7.55172L5.04138 6.10345C5.61353 5.55855 5.8996 5.28609 6.25722 5.14305C6.61484 5 7.00989 5 7.8 5L13.6495 5C14.6535 5 15.1554 5 15.2849 5.30425C15.4143 5.60851 15.0662 5.97016 14.37 6.69347L13.4849 7.61306C12.8536 8.26898 12.538 8.59693 12.538 9C12.538 9.40307 12.8536 9.73102 13.4849 10.3869L14.37 11.3065C15.0662 12.0298 15.4143 12.3915 15.2849 12.6957C15.1554 13 14.6535 13 13.6495 13L7.8 13C7.00989 13 6.61483 13 6.25722 12.857C5.8996 12.7139 5.61353 12.4415 5.04138 11.8966L3.52069 10.4483C2.8069 9.76847 2.45 9.42857 2.45 9C2.45 8.57143 2.8069 8.23153 3.52069 7.55172Z" stroke="white" stroke-linecap="round" stroke-linejoin="round"/>
</g>
<defs>
<clipPath id="clip0_130_10830">
<rect width="18" height="18" fill="white"/>
</clipPath>
</defs>
</svg>
