<svg width="18" height="18" viewBox="0 0 18 18" fill="none" xmlns="http://www.w3.org/2000/svg">
<g clip-path="url(#clip0_130_10814)">
<g clip-path="url(#clip1_130_10814)">
<path d="M3.5 9.99994C3.5 12.9744 5.96243 15.5 9 15.5C12.0376 15.5 14.5 12.9744 14.5 9.99999C14.5 7.02555 12.0376 4.49998 9 4.49998L4 4.49999M4 4.49999L6.07222 2.49994M4 4.49999L6.07222 6.49994" stroke="white" stroke-linecap="round" stroke-linejoin="round"/>
</g>
<path d="M8.50003 11.9999L6.5 12.0001L8.00004 9.99992C9.50003 7.99992 6.50003 7.49995 6.50003 8.99997M9.87502 10C9.87501 8.45959 10.1875 8.00006 10.8125 8.00006C11.4375 8.00006 11.75 8.54052 11.75 10C11.75 11.4596 11.4375 12 10.8125 12C10.1875 12 9.87502 11.5405 9.87502 10Z" stroke="white" stroke-width="0.5" stroke-linecap="round" stroke-linejoin="round"/>
</g>
<defs>
<clipPath id="clip0_130_10814">
<rect width="18" height="18" fill="white" transform="matrix(-1 0 0 1 18 0)"/>
</clipPath>
<clipPath id="clip1_130_10814">
<rect width="18" height="18" fill="white" transform="matrix(-1 0 0 1 18 0)"/>
</clipPath>
</defs>
</svg>
