<svg width="18" height="18" viewBox="0 0 18 18" fill="none" xmlns="http://www.w3.org/2000/svg">
<g clip-path="url(#clip0_130_10832)">
<path d="M10.4142 3.41421L11.8284 4.82843C12.4065 5.40649 12.6955 5.69552 12.8478 6.06306C13 6.4306 13 6.83935 13 7.65685V13.5858C13 14.6133 13 15.127 12.6913 15.2548C12.3827 15.3827 12.0194 15.0194 11.2929 14.2929L10.4142 13.4142C9.74755 12.7475 9.41421 12.4142 9 12.4142C8.58579 12.4142 8.25245 12.7475 7.58579 13.4142L6.70711 14.2929C5.98058 15.0194 5.61732 15.3827 5.30866 15.2548C5 15.127 5 14.6133 5 13.5858L5 7.65685C5 6.83935 5 6.4306 5.15224 6.06306C5.30448 5.69552 5.59351 5.40649 6.17157 4.82843L7.58579 3.41421L7.58579 3.41421C8.25245 2.74755 8.58579 2.41421 9 2.41421C9.41421 2.41421 9.74755 2.74755 10.4142 3.41421Z" stroke="white" stroke-linecap="round" stroke-linejoin="round"/>
</g>
<defs>
<clipPath id="clip0_130_10832">
<rect width="18" height="18" fill="white"/>
</clipPath>
</defs>
</svg>
