<svg width="18" height="18" viewBox="0 0 18 18" fill="none" xmlns="http://www.w3.org/2000/svg">
<g clip-path="url(#clip0_130_10831)">
<path d="M14.4793 10.4483L12.9586 11.8966C12.3865 12.4415 12.1004 12.7139 11.7428 12.857C11.3852 13 10.9901 13 10.2 13H4.35045C3.34654 13 2.84458 13 2.71513 12.6957C2.58569 12.3915 2.93378 12.0298 3.62996 11.3065L4.51507 10.3869C5.14639 9.73102 5.46205 9.40307 5.46205 9C5.46205 8.59693 5.14639 8.26898 4.51507 7.61306L3.62996 6.69347C2.93378 5.97016 2.58569 5.60851 2.71513 5.30425C2.84458 5 3.34654 5 4.35045 5H10.2C10.9901 5 11.3852 5 11.7428 5.14305C12.1004 5.28609 12.3865 5.55854 12.9586 6.10345L14.4793 7.55172C15.1931 8.23153 15.55 8.57143 15.55 9C15.55 9.42857 15.1931 9.76847 14.4793 10.4483Z" stroke="white" stroke-linecap="round" stroke-linejoin="round"/>
</g>
<defs>
<clipPath id="clip0_130_10831">
<rect width="18" height="18" fill="white"/>
</clipPath>
</defs>
</svg>
