<svg width="18" height="18" viewBox="0 0 18 18" fill="none" xmlns="http://www.w3.org/2000/svg">
<g clip-path="url(#clip0_130_10816)">
<g clip-path="url(#clip1_130_10816)">
<path d="M3.5 9.99994C3.5 12.9744 5.96243 15.5 9 15.5C12.0376 15.5 14.5 12.9744 14.5 9.99999C14.5 7.02555 12.0376 4.49998 9 4.49998L4 4.49999M4 4.49999L6.07222 2.49994M4 4.49999L6.07222 6.49994" stroke="white" stroke-linecap="round" stroke-linejoin="round"/>
</g>
<path d="M7.14566 10.0184C7.59371 9.97228 8.3655 9.94129 8.3655 9.04311C8.3655 7.72902 6.5 8.05755 6.5 8.71463M7.14566 10.0184C6.96242 10.0373 6.83333 10.0288 6.83333 10.0288C6.83333 10.0288 6.96242 10.0092 7.14566 10.0184ZM7.14566 10.0184C7.59371 10.041 8.3655 10.0184 8.3655 11.0143C8.3655 12.1708 6.83333 12.3285 6.5 11.6715M9.5 10.0288C9.5 8.51048 9.83333 8.05755 10.5 8.05755C11.1667 8.05755 11.5 8.59024 11.5 10.0288C11.5 11.4673 11.1667 12 10.5 12C9.83333 12 9.50001 11.5471 9.5 10.0288Z" stroke="white" stroke-width="0.5" stroke-linecap="round" stroke-linejoin="round"/>
</g>
<defs>
<clipPath id="clip0_130_10816">
<rect width="18" height="18" fill="white" transform="matrix(-1 0 0 1 18 0)"/>
</clipPath>
<clipPath id="clip1_130_10816">
<rect width="18" height="18" fill="white" transform="matrix(-1 0 0 1 18 0)"/>
</clipPath>
</defs>
</svg>
