<svg width="18" height="18" viewBox="0 0 18 18" fill="none" xmlns="http://www.w3.org/2000/svg">
<g clip-path="url(#clip0_130_10829)">
<path d="M7.58579 14.5858L6.17157 13.1716C5.59351 12.5935 5.30448 12.3045 5.15224 11.9369C5 11.5694 5 11.1606 5 10.3431L5 4.41421C5 3.38675 5 2.87302 5.30866 2.74517C5.61732 2.61732 5.98058 2.98058 6.70711 3.70711L7.58579 4.58579C8.25245 5.25245 8.58579 5.58579 9 5.58579C9.41421 5.58579 9.74755 5.25245 10.4142 4.58579L11.2929 3.70711C12.0194 2.98058 12.3827 2.61732 12.6913 2.74517C13 2.87302 13 3.38675 13 4.41421L13 10.3431C13 11.1606 13 11.5694 12.8478 11.9369C12.6955 12.3045 12.4065 12.5935 11.8284 13.1716L10.4142 14.5858L10.4142 14.5858C9.74755 15.2525 9.41421 15.5858 9 15.5858C8.58579 15.5858 8.25245 15.2525 7.58579 14.5858Z" stroke="white" stroke-linecap="round" stroke-linejoin="round"/>
</g>
<defs>
<clipPath id="clip0_130_10829">
<rect width="18" height="18" fill="white"/>
</clipPath>
</defs>
</svg>
