<svg width="18" height="18" viewBox="0 0 18 18" fill="none" xmlns="http://www.w3.org/2000/svg">
<g clip-path="url(#clip0_130_10818)">
<g clip-path="url(#clip1_130_10818)">
<path d="M14.5 9.99994C14.5 12.9744 12.0376 15.5 9 15.5C5.96243 15.5 3.5 12.9744 3.5 9.99999C3.5 7.02555 5.96243 4.49998 9 4.49998L14 4.49999M14 4.49999L11.9278 2.49994M14 4.49999L11.9278 6.49994" stroke="white" stroke-linecap="round" stroke-linejoin="round"/>
</g>
<path d="M10.5 8.11505H7.98791L7.50404 10.7343C7.98791 10.4168 8.5 10.1984 9 10.1984C9.5 10.1984 10.5 10.1152 10.5 11.5001C10.5 12.8849 9.67742 13 9 13C8.32258 13 7.5 13.0483 7.5 12.215" stroke="white" stroke-width="0.5" stroke-linecap="round" stroke-linejoin="round"/>
</g>
<defs>
<clipPath id="clip0_130_10818">
<rect width="18" height="18" fill="white" transform="matrix(-1 0 0 1 18 0)"/>
</clipPath>
<clipPath id="clip1_130_10818">
<rect width="18" height="18" fill="white"/>
</clipPath>
</defs>
</svg>
