<svg width="18" height="18" viewBox="0 0 18 18" fill="none" xmlns="http://www.w3.org/2000/svg">
<g clip-path="url(#clip0_130_10813)">
<g clip-path="url(#clip1_130_10813)">
<path d="M3.5 9.99994C3.5 12.9744 5.96243 15.5 9 15.5C12.0376 15.5 14.5 12.9744 14.5 9.99999C14.5 7.02555 12.0376 4.49998 9 4.49998L4 4.49999M4 4.49999L6.07222 2.49994M4 4.49999L6.07222 6.49994" stroke="white" stroke-linecap="round" stroke-linejoin="round"/>
</g>
<path d="M7.5 12V8L6.5 9M9 10C9 8.45954 9.50001 8 10 8C10.5 8 11 8.54046 11 10C11 11.4595 10.5 12 10 12C9.50001 12 9.00001 11.5405 9 10Z" stroke="white" stroke-width="0.5" stroke-linecap="round" stroke-linejoin="round"/>
</g>
<defs>
<clipPath id="clip0_130_10813">
<rect width="18" height="18" fill="white" transform="matrix(-1 0 0 1 18 0)"/>
</clipPath>
<clipPath id="clip1_130_10813">
<rect width="18" height="18" fill="white" transform="matrix(-1 0 0 1 18 0)"/>
</clipPath>
</defs>
</svg>
