<svg width="18" height="18" viewBox="0 0 18 18" fill="none" xmlns="http://www.w3.org/2000/svg">
<g clip-path="url(#clip0_130_10837)">
<path d="M6.33333 2.5V6.62186C6.33333 6.81038 6.33333 6.90464 6.31593 6.99671C6.29852 7.08878 6.2641 7.17653 6.19528 7.35204L4.07066 12.7698C3.58516 14.0079 3.34241 14.6269 3.64014 15.0634C3.93787 15.5 4.60278 15.5 5.9326 15.5H12.0674C13.3972 15.5 14.0621 15.5 14.3599 15.0634C14.6576 14.6269 14.4148 14.0079 13.9293 12.7698L11.8047 7.35204C11.7359 7.17653 11.7015 7.08878 11.6841 6.99671C11.6667 6.90464 11.6667 6.81038 11.6667 6.62186V2.5" stroke="white" stroke-linecap="round" stroke-linejoin="round"/>
<path d="M12.8891 10.5555L5.11133 10.5555" stroke="white" stroke-linecap="round" stroke-linejoin="round"/>
<path d="M13 2.5L5 2.5" stroke="white" stroke-linecap="round" stroke-linejoin="round"/>
</g>
<defs>
<clipPath id="clip0_130_10837">
<rect width="18" height="18" fill="white"/>
</clipPath>
</defs>
</svg>
