<svg width="18" height="18" viewBox="0 0 18 18" fill="none" xmlns="http://www.w3.org/2000/svg">
<g clip-path="url(#clip0_130_10838)">
<path d="M5.00001 6.49999C5.00001 4.29085 6.79088 2.5 9.00001 2.5C11.2091 2.5 13 4.29086 13 6.5V8.34682C13 8.44781 13.0212 8.54769 13.0622 8.63998L14.1594 11.1085C14.3501 11.5377 14.4454 11.7523 14.4584 11.9251C14.4922 12.374 14.2217 12.7902 13.7978 12.9417C13.6346 13 13.3998 13 12.9301 13H9H5.06986C4.60024 13 4.36543 13 4.20221 12.9417C3.77828 12.7902 3.50785 12.374 3.54157 11.9251C3.55455 11.7523 3.64992 11.5377 3.84065 11.1085L4.93779 8.63998C4.97881 8.54769 5 8.44781 5 8.34682L5.00001 6.49999Z" stroke="white"/>
<path d="M7 15.4815L7.49429 15.6097C8.48178 15.8657 9.51822 15.8657 10.5057 15.6097L11 15.4815" stroke="white" stroke-linecap="round"/>
</g>
<defs>
<clipPath id="clip0_130_10838">
<rect width="18" height="18" fill="white"/>
</clipPath>
</defs>
</svg>
