<svg width="18" height="18" viewBox="0 0 18 18" fill="none" xmlns="http://www.w3.org/2000/svg">
<g clip-path="url(#clip0_130_10840)">
<path d="M3 2.00006C2.72386 2.00006 2.5 2.22392 2.5 2.50006C2.5 2.7762 2.72386 3.00006 3 3.00006V2.50006V2.00006ZM10.5 2.49999L10.5 3.00015L10.5127 2.99983L10.5 2.49999ZM10.8636 8.99946L10.8153 8.5018C10.5531 8.52727 10.3556 8.75185 10.3639 9.01518C10.3722 9.27852 10.5834 9.49024 10.8467 9.49917L10.8636 8.99946ZM10.5 15.5L10.5164 15.0002L10.5082 15H10.5L10.5 15.5ZM3 15C2.72386 15 2.5 15.2239 2.5 15.5C2.5 15.7762 2.72386 16 3 16V15.5V15ZM5.90909 15.5V16H5.9091L5.90909 15.5ZM10.5 2.49999C10.5127 2.99983 10.5125 2.99983 10.5124 2.99984C10.5124 2.99984 10.5123 2.99984 10.5122 2.99984C10.5121 2.99984 10.5121 2.99985 10.5121 2.99985C10.5122 2.99984 10.5125 2.99984 10.513 2.99983C10.5142 2.9998 10.5163 2.99976 10.5195 2.99972C10.5258 2.99963 10.536 2.99953 10.5498 2.9995C10.5776 2.99946 10.6199 2.99974 10.6747 3.00114C10.7846 3.00394 10.9436 3.0112 11.1353 3.02911C11.5214 3.06517 12.0268 3.14326 12.5247 3.30808C13.0256 3.47391 13.488 3.71736 13.8207 4.06471C14.1421 4.40016 14.3636 4.85315 14.3636 5.50001H14.8636H15.3636C15.3636 4.59142 15.0398 3.89168 14.5429 3.37298C14.0574 2.86618 13.4289 2.55406 12.839 2.35875C12.2459 2.16243 11.6604 2.0738 11.2283 2.03344C11.0109 2.01313 10.8291 2.00475 10.7003 2.00147C10.6358 1.99982 10.5844 1.99945 10.5482 1.99951C10.5301 1.99954 10.5158 1.99967 10.5056 1.99982C10.5004 1.99989 10.4963 1.99996 10.4933 2.00002C10.4918 2.00005 10.4905 2.00008 10.4895 2.0001C10.489 2.00011 10.4886 2.00012 10.4882 2.00013C10.488 2.00014 10.4878 2.00014 10.4877 2.00014C10.4875 2.00015 10.4873 2.00015 10.5 2.49999ZM14.8636 5.50001H14.3636C14.3636 6.78517 13.5576 7.52315 12.6451 7.96662C12.1898 8.18789 11.7288 8.32298 11.3781 8.40252C11.2038 8.44204 11.0594 8.46725 10.96 8.48241C10.9105 8.48999 10.8723 8.49502 10.8475 8.49808C10.8351 8.4996 10.826 8.50063 10.8206 8.50123C10.8179 8.50153 10.816 8.50172 10.8152 8.50181C10.8147 8.50186 10.8145 8.50188 10.8145 8.50188C10.8145 8.50187 10.8146 8.50187 10.8147 8.50185C10.8148 8.50185 10.8149 8.50183 10.815 8.50183C10.8151 8.50182 10.8153 8.5018 10.8636 8.99946C10.912 9.49711 10.9122 9.4971 10.9124 9.49707C10.9125 9.49706 10.9127 9.49704 10.9129 9.49702C10.9133 9.49699 10.9137 9.49694 10.9142 9.49689C10.9152 9.49679 10.9164 9.49667 10.9179 9.49652C10.9209 9.49621 10.9248 9.4958 10.9296 9.49527C10.9393 9.4942 10.9527 9.49267 10.9696 9.49059C11.0034 9.48643 11.0512 9.48009 11.111 9.47096C11.2304 9.45272 11.3985 9.42327 11.5992 9.37776C11.9984 9.28723 12.5375 9.13075 13.0822 8.86603C14.1697 8.3375 15.3636 7.32576 15.3636 5.50001H14.8636ZM10.8636 8.99946C10.8467 9.49917 10.8465 9.49916 10.8463 9.49916C10.8463 9.49916 10.8461 9.49915 10.8461 9.49915C10.8459 9.49914 10.8458 9.49914 10.8458 9.49914C10.8458 9.49914 10.8459 9.49914 10.8464 9.49916C10.8472 9.49919 10.849 9.49927 10.8516 9.49939C10.8569 9.49964 10.8658 9.5001 10.8781 9.50085C10.9026 9.50234 10.9404 9.50501 10.9897 9.50954C11.0883 9.51862 11.2318 9.5351 11.4051 9.56447C11.754 9.62362 12.2112 9.73296 12.662 9.93159C13.555 10.3251 14.3636 11.0304 14.3636 12.389H14.8636H15.3636C15.3636 10.4938 14.1723 9.50431 13.0653 9.0165C12.516 8.77448 11.9733 8.64652 11.5722 8.57854C11.3704 8.54434 11.2015 8.5248 11.0813 8.51375C11.0212 8.50821 10.9731 8.50478 10.939 8.5027C10.922 8.50166 10.9084 8.50096 10.8986 8.5005C10.8937 8.50027 10.8897 8.5001 10.8867 8.49997C10.8852 8.49991 10.8839 8.49987 10.8829 8.49983C10.8824 8.49981 10.882 8.49979 10.8816 8.49978C10.8814 8.49977 10.8811 8.49976 10.881 8.49976C10.8808 8.49975 10.8806 8.49974 10.8636 8.99946ZM14.8636 12.389H14.3636C14.3636 13.0785 14.1371 13.5583 13.814 13.9091C13.4807 14.271 13.0192 14.5219 12.5208 14.6913C12.0248 14.86 11.5212 14.9383 11.1363 14.9735C10.9451 14.991 10.7866 14.9976 10.6773 14.9998C10.6226 15.001 10.5805 15.001 10.553 15.0008C10.5392 15.0007 10.5291 15.0005 10.5229 15.0004C10.5198 15.0003 10.5177 15.0003 10.5166 15.0002C10.516 15.0002 10.5157 15.0002 10.5157 15.0002C10.5157 15.0002 10.5157 15.0002 10.5158 15.0002C10.5159 15.0002 10.516 15.0002 10.5161 15.0002C10.5162 15.0002 10.5164 15.0002 10.5 15.5C10.4836 15.9997 10.4838 15.9997 10.484 15.9997C10.4841 15.9997 10.4844 15.9997 10.4846 15.9997C10.4849 15.9997 10.4854 15.9997 10.4859 15.9998C10.4869 15.9998 10.4882 15.9998 10.4897 15.9999C10.4928 15.9999 10.497 16 10.5022 16.0002C10.5125 16.0004 10.5269 16.0006 10.5451 16.0007C10.5814 16.001 10.633 16.001 10.6977 15.9996C10.827 15.997 11.0094 15.9893 11.2274 15.9694C11.6606 15.9297 12.2479 15.8404 12.8428 15.6381C13.4354 15.4366 14.0647 15.113 14.5496 14.5866C15.0447 14.049 15.3636 13.3266 15.3636 12.389H14.8636ZM10.5 15.5L10.5 15L5.90908 15L5.90909 15.5L5.9091 16L10.5 16L10.5 15.5ZM5.90909 15.5V15H3V15.5V16H5.90909V15.5ZM3 2.50006V3.00006H5.90909V2.50006V2.00006H3V2.50006ZM5.90909 2.50006L5.9091 3.00006L10.5 2.99999L10.5 2.49999L10.5 1.99999L5.90908 2.00006L5.90909 2.50006ZM5.90909 15.5H6.40909V2.50006H5.90909H5.40909V15.5H5.90909Z" fill="white"/>
</g>
<defs>
<clipPath id="clip0_130_10840">
<rect width="18" height="18" fill="white"/>
</clipPath>
</defs>
</svg>
