<svg width="18" height="18" viewBox="0 0 18 18" fill="none" xmlns="http://www.w3.org/2000/svg">
<path d="M2.5 4.5C2.5 3.55719 2.5 3.08579 2.79289 2.79289C3.08579 2.5 3.55719 2.5 4.5 2.5H9.5C10.4428 2.5 10.9142 2.5 11.2071 2.79289C11.5 3.08579 11.5 3.55719 11.5 4.5V9.5C11.5 10.4428 11.5 10.9142 11.2071 11.2071C10.9142 11.5 10.4428 11.5 9.5 11.5H4.5C3.55719 11.5 3.08579 11.5 2.79289 11.2071C2.5 10.9142 2.5 10.4428 2.5 9.5V4.5Z" fill="white" stroke="white"/>
<path d="M6.5 8.5C6.5 7.55719 6.5 7.08579 6.79289 6.79289C7.08579 6.5 7.55719 6.5 8.5 6.5H13.5C14.4428 6.5 14.9142 6.5 15.2071 6.79289C15.5 7.08579 15.5 7.55719 15.5 8.5V13.5C15.5 14.4428 15.5 14.9142 15.2071 15.2071C14.9142 15.5 14.4428 15.5 13.5 15.5H8.5C7.55719 15.5 7.08579 15.5 6.79289 15.2071C6.5 14.9142 6.5 14.4428 6.5 13.5V8.5Z" fill="white" stroke="white"/>
</svg>
