<svg width="18" height="18" viewBox="0 0 18 18" fill="none" xmlns="http://www.w3.org/2000/svg">
<path fill-rule="evenodd" clip-rule="evenodd" d="M6.5 11.5V13.5C6.5 14.4428 6.5 14.9142 6.79289 15.2071C7.08579 15.5 7.55719 15.5 8.5 15.5H13.5C14.4428 15.5 14.9142 15.5 15.2071 15.2071C15.5 14.9142 15.5 14.4428 15.5 13.5V8.5C15.5 7.55719 15.5 7.08579 15.2071 6.79289C14.9142 6.5 14.4428 6.5 13.5 6.5H11.5V9.5C11.5 10.4428 11.5 10.9142 11.2071 11.2071C10.9142 11.5 10.4428 11.5 9.5 11.5H6.5Z" fill="white"/>
<path d="M6.5 11.5V11H6V11.5H6.5ZM11.5 6.5V6H11V6.5H11.5ZM6.5 13.5H7V11.5H6.5H6V13.5H6.5ZM6.79289 15.2071L7.14645 14.8536C7.10838 14.8155 7.06131 14.7475 7.03215 14.5306C7.00106 14.2994 7 13.9855 7 13.5H6.5H6C6 13.9573 5.99894 14.3505 6.04107 14.6639C6.08514 14.9917 6.18451 15.3058 6.43934 15.5607L6.79289 15.2071ZM8.5 15.5V15C8.01446 15 7.70061 14.9989 7.46935 14.9678C7.25248 14.9387 7.18451 14.8916 7.14645 14.8536L6.79289 15.2071L6.43934 15.5607C6.69417 15.8155 7.00835 15.9149 7.3361 15.9589C7.64948 16.0011 8.04273 16 8.5 16V15.5ZM13.5 15.5V15H8.5V15.5V16H13.5V15.5ZM15.2071 15.2071L14.8536 14.8536C14.8155 14.8916 14.7475 14.9387 14.5306 14.9678C14.2994 14.9989 13.9855 15 13.5 15V15.5V16C13.9573 16 14.3505 16.0011 14.6639 15.9589C14.9917 15.9149 15.3058 15.8155 15.5607 15.5607L15.2071 15.2071ZM15.5 13.5H15C15 13.9855 14.9989 14.2994 14.9678 14.5306C14.9387 14.7475 14.8916 14.8155 14.8536 14.8536L15.2071 15.2071L15.5607 15.5607C15.8155 15.3058 15.9149 14.9917 15.9589 14.6639C16.0011 14.3505 16 13.9573 16 13.5H15.5ZM15.5 8.5H15V13.5H15.5H16V8.5H15.5ZM15.2071 6.79289L14.8536 7.14645C14.8916 7.18451 14.9387 7.25248 14.9678 7.46935C14.9989 7.70061 15 8.01446 15 8.5H15.5H16C16 8.04273 16.0011 7.64948 15.9589 7.3361C15.9149 7.00835 15.8155 6.69417 15.5607 6.43934L15.2071 6.79289ZM13.5 6.5V7C13.9855 7 14.2994 7.00106 14.5306 7.03215C14.7475 7.06131 14.8155 7.10838 14.8536 7.14645L15.2071 6.79289L15.5607 6.43934C15.3058 6.18451 14.9917 6.08514 14.6639 6.04107C14.3505 5.99894 13.9573 6 13.5 6V6.5ZM11.5 6.5V7H13.5V6.5V6H11.5V6.5ZM11.5 6.5H11V9.5H11.5H12V6.5H11.5ZM11.5 9.5H11C11 9.98554 10.9989 10.2994 10.9678 10.5306C10.9387 10.7475 10.8916 10.8155 10.8536 10.8536L11.2071 11.2071L11.5607 11.5607C11.8155 11.3058 11.9149 10.9917 11.9589 10.6639C12.0011 10.3505 12 9.95727 12 9.5H11.5ZM11.2071 11.2071L10.8536 10.8536C10.8155 10.8916 10.7475 10.9387 10.5306 10.9678C10.2994 10.9989 9.98554 11 9.5 11V11.5V12C9.95727 12 10.3505 12.0011 10.6639 11.9589C10.9917 11.9149 11.3058 11.8155 11.5607 11.5607L11.2071 11.2071ZM9.5 11.5V11H6.5V11.5V12H9.5V11.5Z" fill="white"/>
<path d="M2.5 4.5C2.5 3.55719 2.5 3.08579 2.79289 2.79289C3.08579 2.5 3.55719 2.5 4.5 2.5H9.5C10.4428 2.5 10.9142 2.5 11.2071 2.79289C11.5 3.08579 11.5 3.55719 11.5 4.5V9.5C11.5 10.4428 11.5 10.9142 11.2071 11.2071C10.9142 11.5 10.4428 11.5 9.5 11.5H4.5C3.55719 11.5 3.08579 11.5 2.79289 11.2071C2.5 10.9142 2.5 10.4428 2.5 9.5V4.5Z" stroke="white"/>
</svg>
