<svg width="18" height="18" viewBox="0 0 18 18" fill="none" xmlns="http://www.w3.org/2000/svg">
<path d="M6.5 8.5C6.5 7.55719 6.5 7.08579 6.79289 6.79289C7.08579 6.5 7.55719 6.5 8.5 6.5H13.5C14.4428 6.5 14.9142 6.5 15.2071 6.79289C15.5 7.08579 15.5 7.55719 15.5 8.5V13.5C15.5 14.4428 15.5 14.9142 15.2071 15.2071C14.9142 15.5 14.4428 15.5 13.5 15.5H8.5C7.55719 15.5 7.08579 15.5 6.79289 15.2071C6.5 14.9142 6.5 14.4428 6.5 13.5V8.5Z" stroke="white"/>
<path fill-rule="evenodd" clip-rule="evenodd" d="M11.5 6.5V9.5C11.5 10.4428 11.5 10.9142 11.2071 11.2071C10.9142 11.5 10.4428 11.5 9.5 11.5H6.5V8.5C6.5 7.55719 6.5 7.08579 6.79289 6.79289C7.08579 6.5 7.55719 6.5 8.5 6.5H11.5Z" fill="white"/>
<path d="M11.5 6.5H12V6H11.5V6.5ZM6.5 11.5H6V12H6.5V11.5ZM11.5 6.5H11V9.5H11.5H12V6.5H11.5ZM11.5 9.5H11C11 9.98554 10.9989 10.2994 10.9678 10.5306C10.9387 10.7475 10.8916 10.8155 10.8536 10.8536L11.2071 11.2071L11.5607 11.5607C11.8155 11.3058 11.9149 10.9917 11.9589 10.6639C12.0011 10.3505 12 9.95727 12 9.5H11.5ZM11.2071 11.2071L10.8536 10.8536C10.8155 10.8916 10.7475 10.9387 10.5306 10.9678C10.2994 10.9989 9.98554 11 9.5 11V11.5V12C9.95727 12 10.3505 12.0011 10.6639 11.9589C10.9917 11.9149 11.3058 11.8155 11.5607 11.5607L11.2071 11.2071ZM9.5 11.5V11H6.5V11.5V12H9.5V11.5ZM6.5 11.5H7V8.5H6.5H6V11.5H6.5ZM6.5 8.5H7C7 8.01446 7.00106 7.70061 7.03215 7.46935C7.06131 7.25248 7.10838 7.18451 7.14645 7.14645L6.79289 6.79289L6.43934 6.43934C6.18451 6.69417 6.08514 7.00835 6.04107 7.3361C5.99894 7.64948 6 8.04273 6 8.5H6.5ZM6.79289 6.79289L7.14645 7.14645C7.18451 7.10838 7.25248 7.06131 7.46935 7.03215C7.70061 7.00106 8.01446 7 8.5 7V6.5V6C8.04273 6 7.64948 5.99894 7.3361 6.04107C7.00835 6.08514 6.69417 6.18451 6.43934 6.43934L6.79289 6.79289ZM8.5 6.5V7H11.5V6.5V6H8.5V6.5Z" fill="white"/>
<path d="M2.5 4.5C2.5 3.55719 2.5 3.08579 2.79289 2.79289C3.08579 2.5 3.55719 2.5 4.5 2.5H9.5C10.4428 2.5 10.9142 2.5 11.2071 2.79289C11.5 3.08579 11.5 3.55719 11.5 4.5V9.5C11.5 10.4428 11.5 10.9142 11.2071 11.2071C10.9142 11.5 10.4428 11.5 9.5 11.5H4.5C3.55719 11.5 3.08579 11.5 2.79289 11.2071C2.5 10.9142 2.5 10.4428 2.5 9.5V4.5Z" stroke="white"/>
</svg>
