<svg width="18" height="18" viewBox="0 0 18 18" fill="none" xmlns="http://www.w3.org/2000/svg">
<circle cx="9" cy="9" r="3" stroke="white"/>
<path d="M5.55882 13.2059C5.55882 13.6282 5.21645 13.9706 4.79412 13.9706C4.37178 13.9706 4.02941 13.6282 4.02941 13.2059C4.02941 12.7835 4.37178 12.4412 4.79412 12.4412C5.21645 12.4412 5.55882 12.7835 5.55882 13.2059Z" fill="white"/>
<path d="M4.02941 9C4.02941 9.42234 3.68704 9.76471 3.26471 9.76471C2.84237 9.76471 2.5 9.42234 2.5 9C2.5 8.57766 2.84237 8.23529 3.26471 8.23529C3.68704 8.23529 4.02941 8.57766 4.02941 9Z" fill="white"/>
<path d="M5.55882 4.79412C5.55882 5.21645 5.21645 5.55882 4.79412 5.55882C4.37178 5.55882 4.02941 5.21645 4.02941 4.79412C4.02941 4.37178 4.37178 4.02941 4.79412 4.02941C5.21645 4.02941 5.55882 4.37178 5.55882 4.79412Z" fill="white"/>
<path d="M9.76471 3.26471C9.76471 3.68704 9.42234 4.02941 9 4.02941C8.57766 4.02941 8.23529 3.68704 8.23529 3.26471C8.23529 2.84237 8.57766 2.5 9 2.5C9.42234 2.5 9.76471 2.84237 9.76471 3.26471Z" fill="white"/>
<path d="M13.9706 4.79412C13.9706 5.21645 13.6282 5.55882 13.2059 5.55882C12.7835 5.55882 12.4412 5.21645 12.4412 4.79412C12.4412 4.37178 12.7835 4.02941 13.2059 4.02941C13.6282 4.02941 13.9706 4.37178 13.9706 4.79412Z" fill="white"/>
<path d="M15.5 9C15.5 9.42234 15.1576 9.76471 14.7353 9.76471C14.313 9.76471 13.9706 9.42234 13.9706 9C13.9706 8.57766 14.313 8.23529 14.7353 8.23529C15.1576 8.23529 15.5 8.57766 15.5 9Z" fill="white"/>
<path d="M13.9706 13.2059C13.9706 13.6282 13.6282 13.9706 13.2059 13.9706C12.7835 13.9706 12.4412 13.6282 12.4412 13.2059C12.4412 12.7835 12.7835 12.4412 13.2059 12.4412C13.6282 12.4412 13.9706 12.7835 13.9706 13.2059Z" fill="white"/>
<path d="M9.76471 14.7353C9.76471 15.1576 9.42234 15.5 9 15.5C8.57766 15.5 8.23529 15.1576 8.23529 14.7353C8.23529 14.313 8.57766 13.9706 9 13.9706C9.42234 13.9706 9.76471 14.313 9.76471 14.7353Z" fill="white"/>
</svg>
