<svg width="18" height="18" viewBox="0 0 18 18" fill="none" xmlns="http://www.w3.org/2000/svg">
<g clip-path="url(#clip0_130_10844)">
<path d="M5.5 5H15.5M5.5 9H15.5M5.5 13H15.5" stroke="white" stroke-linecap="round"/>
<path d="M3 5C3 5.27614 2.77614 5.5 2.5 5.5C2.22386 5.5 2 5.27614 2 5C2 4.72386 2.22386 4.5 2.5 4.5C2.77614 4.5 3 4.72386 3 5Z" fill="white"/>
<path d="M3 9C3 9.27614 2.77614 9.5 2.5 9.5C2.22386 9.5 2 9.27614 2 9C2 8.72386 2.22386 8.5 2.5 8.5C2.77614 8.5 3 8.72386 3 9Z" fill="white"/>
<path d="M3 13C3 13.2761 2.77614 13.5 2.5 13.5C2.22386 13.5 2 13.2761 2 13C2 12.7239 2.22386 12.5 2.5 12.5C2.77614 12.5 3 12.7239 3 13Z" fill="white"/>
</g>
<defs>
<clipPath id="clip0_130_10844">
<rect width="18" height="18" fill="white"/>
</clipPath>
</defs>
</svg>
