<svg width="18" height="18" viewBox="0 0 18 18" fill="none" xmlns="http://www.w3.org/2000/svg">
<g clip-path="url(#clip0_130_10848)">
<path d="M15.5 7.14286H2.5M12.7143 2.5V5.28571M5.28571 2.5V5.28571M7.5 15.5H6.5C4.61438 15.5 3.67157 15.5 3.08579 14.9142C2.5 14.3284 2.5 13.3856 2.5 11.5V7.89286C2.5 6.00724 2.5 5.06443 3.08579 4.47864C3.67157 3.89286 4.61459 3.89286 6.50063 3.89286C8.21961 3.89286 9.78039 3.89286 11.4994 3.89286C13.3854 3.89286 14.3284 3.89286 14.9142 4.47864C15.5 5.06443 15.5 6.00724 15.5 7.89286V8" stroke="white" stroke-linecap="round" stroke-linejoin="round"/>
<path d="M16 13C16 14.6569 14.6569 16 13 16C11.3431 16 10 14.6569 10 13C10 11.3431 11.3431 10 13 10C14.6569 10 16 11.3431 16 13Z" stroke="white"/>
<path d="M13 12V13H14" stroke="white" stroke-linecap="round" stroke-linejoin="round"/>
<path d="M6.125 10C6.125 10.3107 5.87316 10.5625 5.5625 10.5625C5.25184 10.5625 5 10.3107 5 10C5 9.68934 5.25184 9.4375 5.5625 9.4375C5.87316 9.4375 6.125 9.68934 6.125 10Z" fill="white"/>
<path d="M6.125 10C6.125 10.3107 5.87316 10.5625 5.5625 10.5625C5.25184 10.5625 5 10.3107 5 10C5 9.68934 5.25184 9.4375 5.5625 9.4375C5.87316 9.4375 6.125 9.68934 6.125 10Z" fill="white"/>
<path d="M6.125 12.5C6.125 12.8107 5.87316 13.0625 5.5625 13.0625C5.25184 13.0625 5 12.8107 5 12.5C5 12.1893 5.25184 11.9375 5.5625 11.9375C5.87316 11.9375 6.125 12.1893 6.125 12.5Z" fill="white"/>
<path d="M6.125 12.5C6.125 12.8107 5.87316 13.0625 5.5625 13.0625C5.25184 13.0625 5 12.8107 5 12.5C5 12.1893 5.25184 11.9375 5.5625 11.9375C5.87316 11.9375 6.125 12.1893 6.125 12.5Z" fill="white"/>
<path d="M9.5625 10C9.5625 10.3107 9.31066 10.5625 9 10.5625C8.68934 10.5625 8.4375 10.3107 8.4375 10C8.4375 9.68934 8.68934 9.4375 9 9.4375C9.31066 9.4375 9.5625 9.68934 9.5625 10Z" fill="white"/>
<path d="M9.5625 10C9.5625 10.3107 9.31066 10.5625 9 10.5625C8.68934 10.5625 8.4375 10.3107 8.4375 10C8.4375 9.68934 8.68934 9.4375 9 9.4375C9.31066 9.4375 9.5625 9.68934 9.5625 10Z" fill="white"/>
</g>
<defs>
<clipPath id="clip0_130_10848">
<rect width="18" height="18" fill="white"/>
</clipPath>
</defs>
</svg>
