<svg width="18" height="18" viewBox="0 0 18 18" fill="none" xmlns="http://www.w3.org/2000/svg">
<g clip-path="url(#clip0_130_10849)">
<path d="M15.5 7.14286H2.5M12.7143 2.5V5.28571M5.28571 2.5V5.28571M7.5 15.5H6.5C4.61438 15.5 3.67157 15.5 3.08579 14.9142C2.5 14.3284 2.5 13.3856 2.5 11.5V7.89286C2.5 6.00724 2.5 5.06443 3.08579 4.47864C3.67157 3.89286 4.61459 3.89286 6.50063 3.89286C8.21961 3.89286 9.78039 3.89286 11.4994 3.89286C13.3854 3.89286 14.3284 3.89286 14.9142 4.47864C15.5 5.06443 15.5 6.00724 15.5 7.89286V8" stroke="white" stroke-linecap="round" stroke-linejoin="round"/>
<path d="M16 13C16 14.6569 14.6569 16 13 16C11.3431 16 10 14.6569 10 13C10 11.3431 11.3431 10 13 10C14.6569 10 16 11.3431 16 13Z" stroke="white"/>
<path d="M13 12V13H14" stroke="white" stroke-linecap="round" stroke-linejoin="round"/>
</g>
<defs>
<clipPath id="clip0_130_10849">
<rect width="18" height="18" fill="white"/>
</clipPath>
</defs>
</svg>
