<svg width="18" height="18" viewBox="0 0 18 18" fill="none" xmlns="http://www.w3.org/2000/svg">
<g clip-path="url(#clip0_130_10850)">
<path d="M6.5 2.49994V15.5M6.5 2.49994H8.54C9.44395 2.49994 9.89593 2.49994 10.1845 2.77097C10.1998 2.78531 10.2146 2.80012 10.229 2.81539C10.5 3.10401 10.5 3.55599 10.5 4.45994V4.49994M6.5 2.49994L4.45997 2.49997C3.55603 2.49998 3.10406 2.49999 2.81545 2.77102C2.80018 2.78536 2.78536 2.80018 2.77103 2.81544C2.5 3.10406 2.5 3.55603 2.5 4.45997V4.5M6.5 15.5H4.34615M6.5 15.5H8.5" stroke="white" stroke-linecap="round"/>
<path d="M13 8V15.5M13 8H14.07C14.4703 8 14.6705 8 14.8313 8.05649C15.1177 8.15706 15.3429 8.38227 15.4435 8.66866C15.5 8.82952 15.5 9.02968 15.5 9.43V9.5M13 8H11.93C11.5297 8 11.3295 8 11.1687 8.05649C10.8823 8.15706 10.6571 8.38227 10.5565 8.66866C10.5 8.82952 10.5 9.02968 10.5 9.43V9.5M13 15.5H11.875M13 15.5H14.125" stroke="white" stroke-linecap="round"/>
</g>
<defs>
<clipPath id="clip0_130_10850">
<rect width="18" height="18" fill="white"/>
</clipPath>
</defs>
</svg>
