<svg width="18" height="18" viewBox="0 0 18 18" fill="none" xmlns="http://www.w3.org/2000/svg">
<g clip-path="url(#clip0_130_10801)">
<path d="M12.5006 4.00005C12.5006 3.53412 12.5006 3.30115 12.5768 3.11739C12.6783 2.87235 12.8729 2.67767 13.118 2.57618C13.3017 2.50006 13.5347 2.50006 14.0006 2.50006C14.4666 2.50006 14.6995 2.50006 14.8833 2.57618C15.1283 2.67767 15.323 2.87235 15.4245 3.11738C15.5006 3.30115 15.5006 3.53412 15.5006 4.00005L15.5006 14.0001C15.5006 14.466 15.5006 14.699 15.4245 14.8827C15.323 15.1278 15.1283 15.3224 14.8833 15.4239C14.6995 15.5001 14.4666 15.5001 14.0006 15.5001C13.5347 15.5001 13.3017 15.5001 13.118 15.4239C12.8729 15.3224 12.6783 15.1278 12.5768 14.8827C12.5007 14.699 12.5007 14.466 12.5007 14.0001L12.5006 4.00005Z" stroke="white" stroke-linejoin="round"/>
<path d="M7.50063 11.5001C7.50063 11.0341 7.50063 10.8011 7.57676 10.6174C7.67825 10.3723 7.87292 10.1777 8.11794 10.0762C8.30172 10.0001 8.53469 10.0001 9.00064 10.0001C9.46659 10.0001 9.69957 10.0001 9.88334 10.0762C10.1284 10.1777 10.323 10.3723 10.4245 10.6174C10.5007 10.8011 10.5007 11.0341 10.5007 11.5001V13.9999C10.5007 14.4658 10.5007 14.6988 10.4245 14.8826C10.323 15.1276 10.1284 15.3223 9.88334 15.4238C9.69957 15.4999 9.46659 15.4999 9.00064 15.4999C8.53469 15.4999 8.30172 15.4999 8.11794 15.4238C7.87292 15.3223 7.67825 15.1276 7.57676 14.8826C7.50063 14.6988 7.50063 14.4658 7.50063 13.9999V11.5001Z" stroke="white" stroke-linejoin="round"/>
<path d="M2.33398 7.58339C2.33398 7.03906 2.33398 6.76689 2.43711 6.55777C2.53447 6.36034 2.69426 6.20055 2.8917 6.10319C3.10082 6.00006 3.37298 6.00006 3.91732 6.00006C4.46165 6.00006 4.73382 6.00006 4.94294 6.10319C5.14037 6.20055 5.30016 6.36034 5.39752 6.55777C5.50065 6.76689 5.50065 7.03906 5.50065 7.58339V13.9167C5.50065 14.4611 5.50065 14.7332 5.39752 14.9423C5.30016 15.1398 5.14037 15.2996 4.94294 15.3969C4.73382 15.5001 4.46165 15.5001 3.91732 15.5001C3.37298 15.5001 3.10082 15.5001 2.8917 15.3969C2.69426 15.2996 2.53447 15.1398 2.43711 14.9423C2.33398 14.7332 2.33398 14.4611 2.33398 13.9167V7.58339Z" stroke="white" stroke-linejoin="round"/>
</g>
<defs>
<clipPath id="clip0_130_10801">
<rect width="18" height="18" fill="white"/>
</clipPath>
</defs>
</svg>
