<svg width="18" height="18" viewBox="0 0 18 18" fill="none" xmlns="http://www.w3.org/2000/svg">
<g clip-path="url(#clip0_130_10802)">
<path d="M15.1713 6.46968C14.5709 4.7357 13.1978 3.36255 11.4638 2.76222C10.7146 2.50282 10.34 2.37313 9.91998 2.67217C9.5 2.9712 9.5 3.45863 9.5 4.43347V6.43347C9.5 7.37628 9.5 7.84769 9.79289 8.14058C10.0858 8.43347 10.5572 8.43347 11.5 8.43347H13.5C14.4748 8.43347 14.9623 8.43347 15.2613 8.01349C15.5603 7.5935 15.4306 7.2189 15.1713 6.46968Z" stroke="white" stroke-linejoin="round"/>
<path d="M15.1865 11C14.3429 13.6112 11.892 15.5 9 15.5C5.41015 15.5 2.5 12.5898 2.5 8.99998C2.5 6.10794 4.38874 3.65703 7 2.81348" stroke="white" stroke-linecap="round"/>
</g>
<defs>
<clipPath id="clip0_130_10802">
<rect width="18" height="18" fill="white"/>
</clipPath>
</defs>
</svg>
