<svg width="18" height="18" viewBox="0 0 18 18" fill="none" xmlns="http://www.w3.org/2000/svg">
<path d="M10 14H13.5C14.4428 14 14.9142 14 15.2071 13.7071C15.5 13.4142 15.5 12.9428 15.5 12V6C15.5 5.05719 15.5 4.58579 15.2071 4.29289C14.9142 4 14.4428 4 13.5 4H4.5C3.55719 4 3.08579 4 2.79289 4.29289C2.5 4.58579 2.5 5.05719 2.5 6V6.5" stroke="white" stroke-linecap="round"/>
<path d="M3.26316 13.8454C3.26316 14.2069 2.98039 14.5 2.63158 14.5C2.28277 14.5 2 14.2069 2 13.8454C2 13.4839 2.28277 13.1908 2.63158 13.1908C2.98039 13.1908 3.26316 13.4839 3.26316 13.8454Z" fill="white"/>
<path d="M7.68349 14C7.68349 11.1078 5.42135 8.76314 2.63086 8.76314M2.63086 11.3816C4.02611 11.3816 5.15718 12.5539 5.15718 14" stroke="white" stroke-linecap="round" stroke-linejoin="round"/>
</svg>
