<svg width="18" height="18" viewBox="0 0 18 18" fill="none" xmlns="http://www.w3.org/2000/svg">
<g clip-path="url(#clip0_130_10872)">
<path d="M2.5 4.5C2.5 3.55719 2.5 3.08579 2.79289 2.79289C3.08579 2.5 3.55719 2.5 4.5 2.5C5.44281 2.5 5.91421 2.5 6.20711 2.79289C6.5 3.08579 6.5 3.55719 6.5 4.5C6.5 5.44281 6.5 5.91421 6.20711 6.20711C5.91421 6.5 5.44281 6.5 4.5 6.5C3.55719 6.5 3.08579 6.5 2.79289 6.20711C2.5 5.91421 2.5 5.44281 2.5 4.5Z" stroke="white"/>
<path d="M2.5 13.5C2.5 12.5572 2.5 12.0858 2.79289 11.7929C3.08579 11.5 3.55719 11.5 4.5 11.5C5.44281 11.5 5.91421 11.5 6.20711 11.7929C6.5 12.0858 6.5 12.5572 6.5 13.5C6.5 14.4428 6.5 14.9142 6.20711 15.2071C5.91421 15.5 5.44281 15.5 4.5 15.5C3.55719 15.5 3.08579 15.5 2.79289 15.2071C2.5 14.9142 2.5 14.4428 2.5 13.5Z" stroke="white"/>
<path d="M11.5 13.5C11.5 12.5572 11.5 12.0858 11.7929 11.7929C12.0858 11.5 12.5572 11.5 13.5 11.5C14.4428 11.5 14.9142 11.5 15.2071 11.7929C15.5 12.0858 15.5 12.5572 15.5 13.5C15.5 14.4428 15.5 14.9142 15.2071 15.2071C14.9142 15.5 14.4428 15.5 13.5 15.5C12.5572 15.5 12.0858 15.5 11.7929 15.2071C11.5 14.9142 11.5 14.4428 11.5 13.5Z" stroke="white"/>
<path d="M3.17565 6.11111C2.74318 6.98136 2.5 7.96228 2.5 9C2.5 10.0377 2.74318 11.0186 3.17565 11.8889M6.11111 3.17565C6.98136 2.74318 7.96228 2.5 9 2.5C10.0377 2.5 11.0186 2.74318 11.8889 3.17565M14.8243 6.11111C15.2568 6.98136 15.5 7.96228 15.5 9C15.5 10.0377 15.2568 11.0186 14.8243 11.8889M11.8889 14.8243C11.0186 15.2568 10.0377 15.5 9 15.5C7.96228 15.5 6.98136 15.2568 6.11111 14.8243" stroke="white"/>
<path d="M11.5 4.5C11.5 3.55719 11.5 3.08579 11.7929 2.79289C12.0858 2.5 12.5572 2.5 13.5 2.5C14.4428 2.5 14.9142 2.5 15.2071 2.79289C15.5 3.08579 15.5 3.55719 15.5 4.5C15.5 5.44281 15.5 5.91421 15.2071 6.20711C14.9142 6.5 14.4428 6.5 13.5 6.5C12.5572 6.5 12.0858 6.5 11.7929 6.20711C11.5 5.91421 11.5 5.44281 11.5 4.5Z" stroke="white"/>
</g>
<defs>
<clipPath id="clip0_130_10872">
<rect width="18" height="18" fill="white"/>
</clipPath>
</defs>
</svg>
