<svg width="18" height="18" viewBox="0 0 18 18" fill="none" xmlns="http://www.w3.org/2000/svg">
<g clip-path="url(#clip0_130_10873)">
<path d="M5.875 3.5C5.05313 3.5 4.64219 3.5 4.36561 3.72699C4.31497 3.76854 4.26854 3.81497 4.22699 3.86561C4 4.14219 4 4.55313 4 5.375L4 13.5C4 14.4428 4 14.9142 4.29289 15.2071C4.58579 15.5 5.05719 15.5 6 15.5H12C12.9428 15.5 13.4142 15.5 13.7071 15.2071C14 14.9142 14 14.4428 14 13.5V5.375C14 4.55313 14 4.14219 13.773 3.86561C13.7315 3.81497 13.685 3.76854 13.6344 3.72699C13.3578 3.5 12.9469 3.5 12.125 3.5" stroke="white"/>
<path d="M6 3.5C6 2.94772 6.44772 2.5 7 2.5H11C11.5523 2.5 12 2.94772 12 3.5C12 4.05228 11.5523 4.5 11 4.5H7C6.44772 4.5 6 4.05228 6 3.5Z" stroke="white"/>
</g>
<defs>
<clipPath id="clip0_130_10873">
<rect width="18" height="18" fill="white"/>
</clipPath>
</defs>
</svg>
