<svg width="18" height="18" viewBox="0 0 18 18" fill="none" xmlns="http://www.w3.org/2000/svg">
<g clip-path="url(#clip0_130_10879)">
<path d="M6.40001 6.39997H11.6M6.40001 6.39997V11.6M6.40001 6.39997V4.44999C6.40001 3.37303 5.52696 2.49998 4.45 2.49998C3.37305 2.49998 2.5 3.37303 2.5 4.44998C2.5 5.52693 3.37304 6.39997 4.44999 6.39997H6.40001ZM11.6 6.39997V11.6M11.6 6.39997V4.44998C11.6 3.37303 12.473 2.49998 13.55 2.49998C14.627 2.49998 15.5 3.37303 15.5 4.44998C15.5 5.52694 14.627 6.39999 13.55 6.39998L11.6 6.39997ZM6.40001 11.6H11.6M6.40001 11.6H4.45C3.37305 11.6 2.5 12.473 2.5 13.55C2.5 14.6269 3.37305 15.5 4.45 15.5C5.52696 15.5 6.40001 14.6269 6.40001 13.55V11.6ZM11.6 11.6L13.55 11.6C14.627 11.6 15.5 12.473 15.5 13.55C15.5 14.6269 14.627 15.5 13.55 15.5C12.473 15.5 11.6 14.6269 11.6 13.55V11.6Z" stroke="white"/>
</g>
<defs>
<clipPath id="clip0_130_10879">
<rect width="18" height="18" fill="white"/>
</clipPath>
</defs>
</svg>
