<svg width="18" height="18" viewBox="0 0 18 18" fill="none" xmlns="http://www.w3.org/2000/svg">
<g clip-path="url(#clip0_130_10880)">
<path d="M9 9L9 15.5" stroke="white" stroke-linecap="round" stroke-linejoin="round"/>
<circle cx="8.99972" cy="9.00003" r="0.857143" fill="white"/>
<path d="M4.71514 13.2C3.65419 12.1177 3 10.6353 3 9C3 5.68629 5.68629 3 9 3C12.3137 3 15 5.68629 15 9C15 10.6353 14.3458 12.1177 13.2849 13.2" stroke="white" stroke-linecap="round"/>
<path d="M6.59648 11.2907C6.00158 10.6838 5.63477 9.85258 5.63477 8.93566C5.63477 7.0776 7.14102 5.57135 8.99907 5.57135C10.8571 5.57135 12.3634 7.0776 12.3634 8.93566C12.3634 9.85258 11.9966 10.6838 11.4017 11.2907" stroke="white" stroke-linecap="round"/>
</g>
<defs>
<clipPath id="clip0_130_10880">
<rect width="18" height="18" fill="white"/>
</clipPath>
</defs>
</svg>
