<svg width="18" height="18" viewBox="0 0 18 18" fill="none" xmlns="http://www.w3.org/2000/svg">
<path d="M16 8.51589V8.98458C15.9956 9.01 15.9901 9.03496 15.9872 9.06027C15.9634 9.26415 15.9479 9.46932 15.915 9.67167C15.8073 10.3294 15.5747 10.9406 15.229 11.5059C14.7041 12.364 13.9944 13.0185 13.1025 13.4653C12.5878 13.7245 12.0328 13.891 11.4622 13.9576C11.3354 13.9725 11.2088 13.9858 11.082 14H6.1637C6.13893 13.9953 6.11427 13.9878 6.08927 13.9863C5.59333 13.9545 5.11618 13.8396 4.66138 13.6372C3.67124 13.1967 2.93299 12.4826 2.44973 11.4998C2.23618 11.0663 2.09799 10.5985 2.04125 10.117C2.02731 9.99999 2.01371 9.88305 2 9.76611V9.31137C2.00472 9.28618 2.01198 9.26099 2.01348 9.23568C2.03918 8.79874 2.12733 8.37446 2.28253 7.96671C2.70023 6.86951 3.42835 6.05575 4.46308 5.52906C4.99992 5.2557 5.57213 5.11205 6.17062 5.08018C6.46364 5.06471 6.75643 5.08135 7.04772 5.12107C7.07411 5.1247 7.11213 5.11275 7.13045 5.09365C7.5493 4.65859 8.02622 4.3052 8.56398 4.03735C9.08561 3.77758 9.63455 3.61014 10.2124 3.54312C10.3484 3.5273 10.4847 3.51429 10.6209 3.5H11.0402C11.0676 3.50434 11.0952 3.50926 11.1226 3.51254C11.3303 3.53714 11.5392 3.55261 11.745 3.58764C12.3871 3.6972 12.9848 3.93154 13.5378 4.27966C14.3859 4.8135 15.0322 5.53609 15.4738 6.44582C15.7291 6.96949 15.8931 7.5343 15.9583 8.11505C15.9733 8.24874 15.9861 8.38243 16 8.51589ZM8.1721 5.48313C8.18051 5.49438 8.18258 5.49965 8.18616 5.50141C8.4741 5.64574 8.74932 5.81497 9.00876 6.00724C9.02512 6.01931 9.06568 6.01427 9.0855 6.00162C9.79852 5.54219 10.5715 5.38365 11.4018 5.5334C12.2154 5.6801 12.8775 6.09348 13.3833 6.75374C13.9561 7.50095 14.1745 8.34587 14.0164 9.28594C13.9104 9.91598 13.6622 10.4812 13.2403 10.9547C12.4706 11.8179 11.5067 12.1749 10.3721 12.0238C9.67361 11.9307 9.07063 11.6243 8.57159 11.1115C7.93105 10.4536 7.28635 9.79998 6.64397 9.14381C6.55835 9.0564 6.46306 8.9861 6.33977 8.97075C6.12441 8.94392 5.92899 9.05324 5.836 9.24997C5.75304 9.42561 5.76375 9.62363 5.94374 9.80361C6.65987 10.5185 7.36966 11.2399 8.08499 11.9555C8.20742 12.0786 8.33872 12.1922 8.47779 12.2954C9.00035 12.6812 9.5895 12.8946 10.2275 12.9805C10.7283 13.0477 11.2251 13.0333 11.7182 12.9206C12.6587 12.7058 13.4377 12.2177 14.0513 11.4645C14.5579 10.8421 14.8643 10.1269 14.9711 9.32391C15.033 8.86601 15.0201 8.40086 14.9329 7.94726C14.7906 7.20556 14.482 6.5419 13.9876 5.97701C13.0442 4.89985 11.8574 4.41898 10.4451 4.52631C9.90176 4.56755 9.38785 4.72984 8.90425 4.98726C8.64328 5.12514 8.39779 5.2914 8.1721 5.48313ZM7.82654 13.0028C7.8071 12.9844 7.78774 12.966 7.76846 12.9476C7.47567 12.6665 7.18127 12.3871 6.89193 12.1024C6.83593 12.0473 6.78443 12.0205 6.70515 12.0224C6.41213 12.0296 6.11888 12.0309 5.83012 11.9646C4.3944 11.6344 3.56074 10.0471 4.08986 8.6504C4.50721 7.54911 5.66258 6.87841 6.80194 7.08522C7.31263 7.17791 7.76086 7.39772 8.12877 7.78357C8.57747 8.2546 9.03952 8.71215 9.49305 9.17838C9.5963 9.28454 9.71486 9.33293 9.85786 9.31219C10.0427 9.28536 10.1898 9.19584 10.2567 9.01153C10.3221 8.83015 10.2904 8.65837 10.1554 8.51929C9.67938 8.02892 9.21467 7.52626 8.71942 7.05675C7.7589 6.14574 6.62622 5.87484 5.37348 6.26221C3.68853 6.7828 2.70242 8.5521 3.08739 10.298C3.43826 11.8887 4.80634 13.0051 6.40718 13.0065C6.85414 13.007 7.30122 13.0067 7.74818 13.0065C7.77031 13.0065 7.79243 13.0045 7.82654 13.0028Z" fill="white"/>
</svg>
