<svg width="18" height="18" viewBox="0 0 18 18" fill="none" xmlns="http://www.w3.org/2000/svg">
<g clip-path="url(#clip0_130_10883)">
<path d="M2.5 6.5C2.5 5.55719 2.5 5.08579 2.79289 4.79289C3.08579 4.5 3.55719 4.5 4.5 4.5L13.5 4.5C14.4428 4.5 14.9142 4.5 15.2071 4.79289C15.5 5.08579 15.5 5.55719 15.5 6.5V11.5C15.5 12.4428 15.5 12.9142 15.2071 13.2071C14.9142 13.5 14.4428 13.5 13.5 13.5H4.5C3.55719 13.5 3.08579 13.5 2.79289 13.2071C2.5 12.9142 2.5 12.4428 2.5 11.5V6.5Z" stroke="white" stroke-linecap="round" stroke-linejoin="round"/>
<line x1="2.5" y1="7.5" x2="15.5" y2="7.5" stroke="white" stroke-linecap="round" stroke-linejoin="round"/>
<path d="M5 11H9" stroke="white" stroke-linecap="round" stroke-linejoin="round"/>
</g>
<defs>
<clipPath id="clip0_130_10883">
<rect width="18" height="18" fill="white"/>
</clipPath>
</defs>
</svg>
