<svg width="18" height="18" viewBox="0 0 18 18" fill="none" xmlns="http://www.w3.org/2000/svg">
<g clip-path="url(#clip0_130_10889)">
<path d="M2.5 4.5C2.5 3.55719 2.5 3.08579 2.79289 2.79289C3.08579 2.5 3.55719 2.5 4.5 2.5H5.5C6.44281 2.5 6.91421 2.5 7.20711 2.79289C7.5 3.08579 7.5 3.55719 7.5 4.5V5.5C7.5 6.44281 7.5 6.91421 7.20711 7.20711C6.91421 7.5 6.44281 7.5 5.5 7.5H4.5C3.55719 7.5 3.08579 7.5 2.79289 7.20711C2.5 6.91421 2.5 6.44281 2.5 5.5V4.5Z" fill="white" stroke="white" stroke-linecap="round" stroke-linejoin="round"/>
<path d="M2.5 12.5C2.5 11.5572 2.5 11.0858 2.79289 10.7929C3.08579 10.5 3.55719 10.5 4.5 10.5H5.5C6.44281 10.5 6.91421 10.5 7.20711 10.7929C7.5 11.0858 7.5 11.5572 7.5 12.5V13.5C7.5 14.4428 7.5 14.9142 7.20711 15.2071C6.91421 15.5 6.44281 15.5 5.5 15.5H4.5C3.55719 15.5 3.08579 15.5 2.79289 15.2071C2.5 14.9142 2.5 14.4428 2.5 13.5V12.5Z" stroke="white" stroke-linecap="round" stroke-linejoin="round"/>
<path d="M10.5 4.5C10.5 3.55719 10.5 3.08579 10.7929 2.79289C11.0858 2.5 11.5572 2.5 12.5 2.5H13.5C14.4428 2.5 14.9142 2.5 15.2071 2.79289C15.5 3.08579 15.5 3.55719 15.5 4.5V5.5C15.5 6.44281 15.5 6.91421 15.2071 7.20711C14.9142 7.5 14.4428 7.5 13.5 7.5H12.5C11.5572 7.5 11.0858 7.5 10.7929 7.20711C10.5 6.91421 10.5 6.44281 10.5 5.5V4.5Z" stroke="white" stroke-linecap="round" stroke-linejoin="round"/>
<path d="M10.5 12.5C10.5 11.5572 10.5 11.0858 10.7929 10.7929C11.0858 10.5 11.5572 10.5 12.5 10.5H13.5C14.4428 10.5 14.9142 10.5 15.2071 10.7929C15.5 11.0858 15.5 11.5572 15.5 12.5V13.5C15.5 14.4428 15.5 14.9142 15.2071 15.2071C14.9142 15.5 14.4428 15.5 13.5 15.5H12.5C11.5572 15.5 11.0858 15.5 10.7929 15.2071C10.5 14.9142 10.5 14.4428 10.5 13.5V12.5Z" stroke="white" stroke-linecap="round" stroke-linejoin="round"/>
</g>
<defs>
<clipPath id="clip0_130_10889">
<rect width="18" height="18" fill="white"/>
</clipPath>
</defs>
</svg>
