<svg width="18" height="18" viewBox="0 0 18 18" fill="none" xmlns="http://www.w3.org/2000/svg">
<g clip-path="url(#clip0_130_10890)">
<path d="M3 4.5C3 3.55719 3 3.08579 3.29289 2.79289C3.58579 2.5 4.05719 2.5 5 2.5H13C13.9428 2.5 14.4142 2.5 14.7071 2.79289C15 3.08579 15 3.55719 15 4.5V13.5C15 14.4428 15 14.9142 14.7071 15.2071C14.4142 15.5 13.9428 15.5 13 15.5H5C4.05719 15.5 3.58579 15.5 3.29289 15.2071C3 14.9142 3 14.4428 3 13.5V4.5Z" stroke="white"/>
<path d="M3 7L15 7" stroke="white" stroke-linecap="round"/>
<path d="M3 11.5L15 11.5" stroke="white" stroke-linecap="round"/>
<path d="M6 9C6 9.27614 5.77614 9.5 5.5 9.5C5.22386 9.5 5 9.27614 5 9C5 8.72386 5.22386 8.5 5.5 8.5C5.77614 8.5 6 8.72386 6 9Z" fill="white"/>
<path d="M6 4.5C6 4.77614 5.77614 5 5.5 5C5.22386 5 5 4.77614 5 4.5C5 4.22386 5.22386 4 5.5 4C5.77614 4 6 4.22386 6 4.5Z" fill="white"/>
<path d="M6 13.5C6 13.7761 5.77614 14 5.5 14C5.22386 14 5 13.7761 5 13.5C5 13.2239 5.22386 13 5.5 13C5.77614 13 6 13.2239 6 13.5Z" fill="white"/>
</g>
<defs>
<clipPath id="clip0_130_10890">
<rect width="18" height="18" fill="white"/>
</clipPath>
</defs>
</svg>
