<svg width="18" height="18" viewBox="0 0 18 18" fill="none" xmlns="http://www.w3.org/2000/svg">
<g clip-path="url(#clip0_130_10891)">
<path d="M7.5 8.5H4.5C3.55719 8.5 3.08579 8.5 2.79289 8.79289C2.5 9.08579 2.5 9.55719 2.5 10.5V13.5C2.5 14.4428 2.5 14.9142 2.79289 15.2071C3.08579 15.5 3.55719 15.5 4.5 15.5H7.5C8.44281 15.5 8.91421 15.5 9.20711 15.2071C9.5 14.9142 9.5 14.4428 9.5 13.5V10.5C9.5 9.55719 9.5 9.08579 9.20711 8.79289C8.91421 8.5 8.44281 8.5 7.5 8.5Z" stroke="white"/>
<path d="M4.5 6V4.5C4.5 3.55719 4.5 3.08579 4.79289 2.79289C5.08579 2.5 5.55719 2.5 6.5 2.5H8M15.5 6V4.5C15.5 3.55719 15.5 3.08579 15.2071 2.79289C14.9142 2.5 14.4428 2.5 13.5 2.5H12M15.5 10V11.5C15.5 12.4428 15.5 12.9142 15.2071 13.2071C14.9142 13.5 14.4428 13.5 13.5 13.5H12" stroke="white" stroke-linecap="round" stroke-linejoin="round"/>
</g>
<defs>
<clipPath id="clip0_130_10891">
<rect width="18" height="18" fill="white"/>
</clipPath>
</defs>
</svg>
