<svg width="18" height="18" viewBox="0 0 18 18" fill="none" xmlns="http://www.w3.org/2000/svg">
<g clip-path="url(#clip0_130_10895)">
<path d="M9.86719 2.99997C9.86719 3.55225 9.41947 3.99997 8.86719 3.99997C8.3149 3.99997 7.86719 3.55225 7.86719 2.99997C7.86719 2.44768 8.3149 1.99997 8.86719 1.99997C9.41947 1.99997 9.86719 2.44768 9.86719 2.99997Z" fill="white"/>
<path d="M10.001 8.99999C10.001 9.55228 9.55325 10 9.00096 10C8.44868 10 8.00096 9.55228 8.00096 8.99999C8.00096 8.44771 8.44868 7.99999 9.00096 7.99999C9.55325 7.99999 10.001 8.44771 10.001 8.99999Z" fill="white"/>
<path d="M10.001 15C10.001 15.5523 9.55325 16 9.00097 16C8.44868 16 8.00097 15.5523 8.00097 15C8.00097 14.4477 8.44868 14 9.00097 14C9.55325 14 10.001 14.4477 10.001 15Z" fill="white"/>
</g>
<defs>
<clipPath id="clip0_130_10895">
<rect width="18" height="18" fill="white"/>
</clipPath>
</defs>
</svg>
