<svg width="18" height="18" viewBox="0 0 18 18" fill="none" xmlns="http://www.w3.org/2000/svg">
<g clip-path="url(#clip0_130_10894)">
<path d="M4 9C4 9.55228 3.55228 10 3 10C2.44772 10 2 9.55228 2 9C2 8.44772 2.44772 8 3 8C3.55228 8 4 8.44772 4 9Z" fill="white"/>
<path d="M10 9C10 9.55228 9.55229 10 9 10C8.44772 10 8 9.55228 8 9C8 8.44772 8.44772 8 9 8C9.55229 8 10 8.44772 10 9Z" fill="white"/>
<path d="M16 9C16 9.55228 15.5523 10 15 10C14.4477 10 14 9.55228 14 9C14 8.44772 14.4477 8 15 8C15.5523 8 16 8.44772 16 9Z" fill="white"/>
</g>
<defs>
<clipPath id="clip0_130_10894">
<rect width="18" height="18" fill="white"/>
</clipPath>
</defs>
</svg>
