<svg width="18" height="18" viewBox="0 0 18 18" fill="none" xmlns="http://www.w3.org/2000/svg">
<g clip-path="url(#clip0_130_10896)">
<path d="M2.5 6.50009C2.5 5.55728 2.5 5.08588 2.79289 4.79298C3.08579 4.50009 3.55719 4.50009 4.5 4.50009H13.5C14.4428 4.50009 14.9142 4.50009 15.2071 4.79298C15.5 5.08588 15.5 5.55728 15.5 6.50009V12.0001C15.5 12.9429 15.5 13.4143 15.2071 13.7072C14.9142 14.0001 14.4428 14.0001 13.5 14.0001H4.5C3.55719 14.0001 3.08579 14.0001 2.79289 13.7072C2.5 13.4143 2.5 12.9429 2.5 12.0001V6.50009Z" stroke="white"/>
<path d="M3.40039 4.79999L6.60039 7.19999C7.75595 8.06665 8.33372 8.49999 9.00039 8.49999C9.66706 8.49999 10.2448 8.06665 11.4004 7.19999L14.6004 4.79999" stroke="white"/>
</g>
<defs>
<clipPath id="clip0_130_10896">
<rect width="18" height="18" fill="white"/>
</clipPath>
</defs>
</svg>
