<svg width="18" height="18" viewBox="0 0 18 18" fill="none" xmlns="http://www.w3.org/2000/svg">
<g clip-path="url(#clip0_130_10897)">
<path d="M2.5 5.5C2.5 4.55719 2.5 4.08579 2.79289 3.79289C3.08579 3.5 3.55719 3.5 4.5 3.5H13.5C14.4428 3.5 14.9142 3.5 15.2071 3.79289C15.5 4.08579 15.5 4.55719 15.5 5.5V10C15.5 10.9428 15.5 11.4142 15.2071 11.7071C14.9142 12 14.4428 12 13.5 12H4.5C3.55719 12 3.08579 12 2.79289 11.7071C2.5 11.4142 2.5 10.9428 2.5 10V5.5Z" stroke="white"/>
<path d="M4.5 12H9H13.5C14.0169 12.8614 14.2753 13.2922 14.2231 13.646C14.1868 13.8919 14.0602 14.1155 13.868 14.2732C13.5914 14.5 13.0891 14.5 12.0845 14.5H5.91548C4.91087 14.5 4.40857 14.5 4.13205 14.2732C3.9398 14.1155 3.81319 13.8919 3.7769 13.646C3.7247 13.2922 3.98313 12.8614 4.5 12Z" stroke="white"/>
</g>
<defs>
<clipPath id="clip0_130_10897">
<rect width="18" height="18" fill="white"/>
</clipPath>
</defs>
</svg>
