<svg width="18" height="18" viewBox="0 0 18 18" fill="none" xmlns="http://www.w3.org/2000/svg">
<path d="M4.41992 13.7895C4.41992 12.5686 5.40961 11.5789 6.63045 11.5789H8.84099V13.7895C8.84099 15.0103 7.8513 16 6.63045 16C5.40961 16 4.41992 15.0103 4.41992 13.7895Z" fill="white"/>
<path d="M9.20898 9.00007C9.20898 7.77922 10.1987 6.78954 11.4195 6.78954C12.6404 6.78954 13.63 7.77922 13.63 9.00007C13.63 10.2209 12.6404 11.2106 11.4195 11.2106C10.1987 11.2106 9.20898 10.2209 9.20898 9.00007Z" fill="white"/>
<path d="M4.41992 9.00007C4.41992 7.77922 5.40961 6.78954 6.63045 6.78954H8.84099V11.2106H6.63046C5.40961 11.2106 4.41992 10.2209 4.41992 9.00007Z" fill="white"/>
<path d="M13.63 4.21053C13.63 5.43138 12.6404 6.42107 11.4195 6.42107H9.20898V2H11.4195C12.6404 2 13.63 2.98969 13.63 4.21053Z" fill="white"/>
<path d="M4.41992 4.21053C4.41992 2.98969 5.40961 2 6.63045 2H8.84099V6.42107H6.63046C5.40961 6.42107 4.41992 5.43138 4.41992 4.21053Z" fill="white"/>
</svg>
