<svg width="18" height="18" viewBox="0 0 18 18" fill="none" xmlns="http://www.w3.org/2000/svg">
<path d="M2.5 6.5H9M15.5 6.5H13.5" stroke="white" stroke-linecap="round"/>
<path d="M2.5 12H5M15.5 12H9" stroke="white" stroke-linecap="round"/>
<path d="M13 6.5C13 7.60457 12.1046 8.5 11 8.5C9.89543 8.5 9 7.60457 9 6.5C9 5.39543 9.89543 4.5 11 4.5C12.1046 4.5 13 5.39543 13 6.5Z" stroke="white"/>
<path d="M9 12C9 13.1046 8.10457 14 7 14C5.89543 14 5 13.1046 5 12C5 10.8954 5.89543 10 7 10C8.10457 10 9 10.8954 9 12Z" stroke="white"/>
</svg>
