<svg width="18" height="18" viewBox="0 0 18 18" fill="none" xmlns="http://www.w3.org/2000/svg">
<g clip-path="url(#clip0_130_10903)">
<path d="M5 15.5V8.5M5 8.5V4.5C5 3.55719 5 3.08579 5.29289 2.79289C5.58579 2.5 6.05719 2.5 7 2.5H11.865C12.7886 2.5 13.2504 2.5 13.3853 2.78792C13.5201 3.07584 13.2245 3.43062 12.6332 4.14018L12.0335 4.85982C11.7784 5.16592 11.6509 5.31898 11.6509 5.5C11.6509 5.68102 11.7784 5.83408 12.0335 6.14018L12.6332 6.85982C13.2245 7.56938 13.5201 7.92416 13.3853 8.21208C13.2504 8.5 12.7886 8.5 11.865 8.5H5Z" stroke="white" stroke-linecap="round" stroke-linejoin="round"/>
</g>
<defs>
<clipPath id="clip0_130_10903">
<rect width="18" height="18" fill="white" transform="matrix(-1 0 0 1 18 0)"/>
</clipPath>
</defs>
</svg>
