<svg width="18" height="18" viewBox="0 0 18 18" fill="none" xmlns="http://www.w3.org/2000/svg">
<g clip-path="url(#clip0_130_10904)">
<path d="M5.35349 15.5C4.81312 14.9615 3.09241 13.6379 3.73248 12C4.49906 10.0385 3.97293 8.84303 3.73248 7.88462C3.43943 6.71655 5.89387 9.5 6.97456 10.0385C7.5149 10.3077 6.43424 7.88462 7.51493 6.26923C8.59562 4.65385 8.05527 4.44391 8.05527 2.5C8.95584 2.67949 11.5135 3.57692 10.2166 7.88462C8.59562 13.2692 11.0891 6.20303 13.4587 5.73077C16.1604 5.19231 12.1771 7.68174 13.999 11.1154C14.9991 13 13.4991 15 12.4991 15.5" stroke="white" stroke-linecap="round" stroke-linejoin="round"/>
</g>
<defs>
<clipPath id="clip0_130_10904">
<rect width="18" height="18" fill="white"/>
</clipPath>
</defs>
</svg>
