<svg width="18" height="18" viewBox="0 0 18 18" fill="none" xmlns="http://www.w3.org/2000/svg">
<path d="M5.5 7H5C4.05719 7 3.58579 7 3.29289 7.29289C3 7.58579 3 8.05719 3 9L3 12.5C3 13.4428 3 13.9142 3.29289 14.2071C3.58579 14.5 4.05719 14.5 5 14.5H11C11.9428 14.5 12.4142 14.5 12.7071 14.2071C13 13.9142 13 13.4428 13 12.5" stroke="white" stroke-linecap="round"/>
<path d="M5.5 5.50003V10C5.5 10.9428 5.5 11.4142 5.79289 11.7071C6.08579 12 6.55719 12 7.5 12H13.5C14.4428 12 14.9142 12 15.2071 11.7071C15.5 11.4142 15.5 10.9428 15.5 10V7.49997C15.5 6.55716 15.5 6.08576 15.2071 5.79286C14.9142 5.49997 14.4428 5.49997 13.5 5.49997H13C12.5093 5.49997 12.2639 5.49997 12.0528 5.3944C11.8416 5.28883 11.6944 5.09255 11.4 4.69999L11.1 4.30001C10.8056 3.90745 10.6584 3.71117 10.4472 3.6056C10.2361 3.50003 9.99072 3.50003 9.50002 3.50003H7.5C6.55719 3.50003 6.08579 3.50003 5.79289 3.79292C5.5 4.08582 5.5 4.55722 5.5 5.50003Z" stroke="white" stroke-linecap="round"/>
</svg>
