<svg width="18" height="18" viewBox="0 0 18 18" fill="none" xmlns="http://www.w3.org/2000/svg">
<path d="M2.5 5.99997V12C2.5 12.9428 2.5 13.4142 2.79289 13.7071C3.08579 14 3.55719 14 4.5 14H13.5C14.4428 14 14.9142 14 15.2071 13.7071C15.5 13.4142 15.5 12.9428 15.5 12V8.3333C15.5 7.39049 15.5 6.91909 15.2071 6.6262C14.9142 6.3333 14.4428 6.3333 13.5 6.3333H12.0388C11.6091 6.3333 11.3942 6.3333 11.203 6.24994C11.0119 6.16658 10.8656 6.00912 10.5732 5.6942L9.59345 4.63907C9.30103 4.32415 9.15481 4.16669 8.96365 4.08333C8.77248 3.99997 8.55761 3.99997 8.12786 3.99997H4.5C3.55719 3.99997 3.08579 3.99997 2.79289 4.29286C2.5 4.58576 2.5 5.05716 2.5 5.99997Z" stroke="white" stroke-linecap="round"/>
</svg>
