<svg width="18" height="18" viewBox="0 0 18 18" fill="none" xmlns="http://www.w3.org/2000/svg">
<g clip-path="url(#clip0_130_10908)">
<path d="M2.5 11.625V13.5C2.5 14.4428 2.5 14.9142 2.79289 15.2071C3.08579 15.5 3.55719 15.5 4.5 15.5H6.375M2.5 6.375V4.5C2.5 3.55719 2.5 3.08579 2.79289 2.79289C3.08579 2.5 3.55719 2.5 4.5 2.5H6.375M15.5 6.375V4.5C15.5 3.55719 15.5 3.08579 15.2071 2.79289C14.9142 2.5 14.4428 2.5 13.5 2.5H11.625M15.5 11.625V13.5C15.5 14.4428 15.5 14.9142 15.2071 15.2071C14.9142 15.5 14.4428 15.5 13.5 15.5H11.625" stroke="white" stroke-linecap="round" stroke-linejoin="round"/>
</g>
<defs>
<clipPath id="clip0_130_10908">
<rect width="18" height="18" fill="white"/>
</clipPath>
</defs>
</svg>
