<svg width="18" height="18" viewBox="0 0 18 18" fill="none" xmlns="http://www.w3.org/2000/svg">
<g clip-path="url(#clip0_130_10912)">
<path d="M5.16667 9.83334C5.16667 9.64924 5.31591 9.5 5.50001 9.50001C5.6841 9.50002 5.83333 9.64925 5.83333 9.83334V10.0556C5.83333 10.0659 5.83333 10.071 5.83371 10.0754C5.83794 10.1237 5.87627 10.1621 5.92462 10.1663C5.92897 10.1667 5.93413 10.1667 5.94444 10.1667H6.16666C6.35076 10.1667 6.5 10.3159 6.5 10.5C6.5 10.6841 6.35076 10.8333 6.16666 10.8333H5.94444C5.93413 10.8333 5.92897 10.8333 5.92462 10.8337C5.87627 10.8379 5.83794 10.8763 5.83371 10.9246C5.83333 10.929 5.83333 10.9341 5.83333 10.9444V11.1667C5.83333 11.3508 5.68409 11.5 5.49999 11.5C5.3159 11.5 5.16667 11.3507 5.16667 11.1667V10.9444C5.16667 10.9341 5.16667 10.929 5.16629 10.9246C5.16206 10.8763 5.12373 10.8379 5.07538 10.8337C5.07103 10.8333 5.06587 10.8333 5.05556 10.8333L4.83334 10.8333C4.64924 10.8333 4.5 10.6841 4.5 10.5C4.5 10.3159 4.64924 10.1666 4.83334 10.1666L5.05556 10.1666C5.06587 10.1666 5.07103 10.1666 5.07538 10.1663C5.12373 10.162 5.16206 10.1237 5.16629 10.0753C5.16667 10.071 5.16667 10.0658 5.16667 10.0555V9.83334Z" fill="white"/>
<path d="M11.9992 10.5C11.9992 10.7209 11.8201 10.9 11.5992 10.9C11.3783 10.9 11.1992 10.7209 11.1992 10.5C11.1992 10.2791 11.3783 10.1 11.5992 10.1C11.8201 10.1 11.9992 10.2791 11.9992 10.5Z" fill="white"/>
<path d="M12.8996 11.4C12.8996 11.6209 12.7205 11.8 12.4996 11.8C12.2787 11.8 12.0996 11.6209 12.0996 11.4C12.0996 11.1791 12.2787 11 12.4996 11C12.7205 11 12.8996 11.1791 12.8996 11.4Z" fill="white"/>
<path d="M13.8 10.5C13.8 10.7209 13.6209 10.9 13.4 10.9C13.1791 10.9 13 10.7209 13 10.5C13 10.2791 13.1791 10.1 13.4 10.1C13.6209 10.1 13.8 10.2791 13.8 10.5Z" fill="white"/>
<path d="M12.8996 9.6C12.8996 9.82091 12.7205 10 12.4996 10C12.2787 10 12.0996 9.82091 12.0996 9.6C12.0996 9.37909 12.2787 9.2 12.4996 9.2C12.7205 9.2 12.8996 9.37909 12.8996 9.6Z" fill="white"/>
<path d="M9 7V6.30488C9 5.33327 9 4.84746 9.27485 4.55802C9.33701 4.49257 9.40773 4.43583 9.48511 4.38936C9.82728 4.18384 10.3015 4.28923 11.25 4.5C12.1985 4.71077 12.6727 4.81616 13.0149 4.61064C13.0923 4.56416 13.163 4.50743 13.2251 4.44198C13.5 4.15254 13.5 3.66673 13.5 2.69511V2.5" stroke="white" stroke-linecap="round"/>
<path d="M2.5 11C2.5 12.6844 3.39864 14.085 4.83692 14.4852C5.34797 14.6273 5.83738 14.286 6.05 13.8C6.26261 13.314 6.74275 13 7.27321 13H11.1268C11.6572 13 12.1374 13.314 12.35 13.8C12.5626 14.286 13.0547 14.6337 13.5617 14.4775C14.8928 14.0674 15.5 12.6738 15.5 11C15.5 9 13.933 7.5 12 7.5H6.02704C4.09404 7.5 2.5 9 2.5 11Z" stroke="white"/>
</g>
<defs>
<clipPath id="clip0_130_10912">
<rect width="18" height="18" fill="white"/>
</clipPath>
</defs>
</svg>
