<svg width="18" height="18" viewBox="0 0 18 18" fill="none" xmlns="http://www.w3.org/2000/svg">
<path d="M9.00022 2.5C7.40473 2.5 6.11133 3.7934 6.11133 5.38889C6.11133 7.33991 8.00022 8 8.00022 8V14.0475L9.00022 15.5L10.5002 13.5L10.0002 12.6111V11.1667L11.0836 10.0833L10.0002 9V8.00803C10.0002 8.00803 11.8891 7.24049 11.8891 5.38889C11.8891 3.7934 10.5957 2.5 9.00022 2.5Z" stroke="white" stroke-linejoin="round"/>
<path d="M9.5 4.5C9.5 4.77614 9.27614 5 9 5C8.72386 5 8.5 4.77614 8.5 4.5C8.5 4.22386 8.72386 4 9 4C9.27614 4 9.5 4.22386 9.5 4.5Z" fill="white"/>
</svg>
