<svg width="18" height="18" viewBox="0 0 18 18" fill="none" xmlns="http://www.w3.org/2000/svg">
<g clip-path="url(#clip0_130_10927)">
<path d="M5 12H13C13.4995 12 13.7737 12.0018 13.9639 12.0274C13.9661 12.0277 13.9685 12.028 13.9707 12.0284C13.9711 12.0309 13.9723 12.0335 13.9727 12.0362C13.9982 12.2263 14 12.5005 14 13C14 13.4995 13.9982 13.7737 13.9727 13.9639C13.9723 13.9662 13.971 13.9685 13.9707 13.9707C13.9685 13.971 13.9662 13.9724 13.9639 13.9727C13.7737 13.9982 13.4995 14 13 14H5C4.5005 14 4.22632 13.9982 4.03613 13.9727C4.0335 13.9723 4.03084 13.9711 4.02832 13.9707C4.02802 13.9686 4.02765 13.9662 4.02734 13.9639C4.0018 13.7737 4 13.4995 4 13C4 12.5005 4.0018 12.2263 4.02734 12.0362C4.02769 12.0336 4.02797 12.0308 4.02832 12.0284C4.0308 12.028 4.03355 12.0277 4.03613 12.0274C4.22632 12.0018 4.5005 12 5 12Z" fill="white" stroke="white" stroke-width="2"/>
<mask id="path-2-inside-1_130_10927" fill="white">
<path d="M3 7.50003C3 6.94775 3.44772 6.50003 4 6.50003H14C14.5523 6.50003 15 6.94775 15 7.50003C15 8.05232 14.5523 8.50003 14 8.50003H4C3.44772 8.50003 3 8.05232 3 7.50003Z"/>
</mask>
<path d="M3 7.50003C3 6.94775 3.44772 6.50003 4 6.50003H14C14.5523 6.50003 15 6.94775 15 7.50003C15 8.05232 14.5523 8.50003 14 8.50003H4C3.44772 8.50003 3 8.05232 3 7.50003Z" fill="white"/>
<path d="M4 6.50003V8.50003H14V6.50003V4.50003H4V6.50003ZM14 8.50003V6.50003H4V8.50003V10.5H14V8.50003ZM4 8.50003V6.50003C4.55229 6.50003 5 6.94775 5 7.50003H3H1C1 9.15688 2.34314 10.5 4 10.5V8.50003ZM15 7.50003H13C13 6.94775 13.4477 6.50003 14 6.50003V8.50003V10.5C15.6569 10.5 17 9.15688 17 7.50003H15ZM14 6.50003V8.50003C13.4477 8.50003 13 8.05231 13 7.50003H15H17C17 5.84318 15.6569 4.50003 14 4.50003V6.50003ZM4 6.50003V4.50003C2.34315 4.50003 1 5.84318 1 7.50003H3H5C5 8.05232 4.55228 8.50003 4 8.50003V6.50003Z" fill="white" mask="url(#path-2-inside-1_130_10927)"/>
<mask id="path-4-inside-2_130_10927" fill="white">
<path d="M3 3.50003C3 3.22389 3.22386 3.00003 3.5 3.00003H14.5C14.7761 3.00003 15 3.22389 15 3.50003C15 3.77617 14.7761 4.00003 14.5 4.00003H3.5C3.22386 4.00003 3 3.77617 3 3.50003Z"/>
</mask>
<path d="M3 3.50003C3 3.22389 3.22386 3.00003 3.5 3.00003H14.5C14.7761 3.00003 15 3.22389 15 3.50003C15 3.77617 14.7761 4.00003 14.5 4.00003H3.5C3.22386 4.00003 3 3.77617 3 3.50003Z" fill="white"/>
<path d="M3.5 3.00003V5.00003H14.5V3.00003V1.00003H3.5V3.00003ZM14.5 4.00003V2.00003H3.5V4.00003V6.00003H14.5V4.00003ZM3.5 4.00003V2.00003C4.32843 2.00003 5 2.6716 5 3.50003H3H1C1 4.88074 2.11929 6.00003 3.5 6.00003V4.00003ZM15 3.50003H13C13 2.6716 13.6716 2.00003 14.5 2.00003V4.00003V6.00003C15.8807 6.00003 17 4.88074 17 3.50003H15ZM14.5 3.00003V5.00003C13.6716 5.00003 13 4.32846 13 3.50003H15H17C17 2.11932 15.8807 1.00003 14.5 1.00003V3.00003ZM3.5 3.00003V1.00003C2.11929 1.00003 1 2.11932 1 3.50003H3H5C5 4.32846 4.32843 5.00003 3.5 5.00003V3.00003Z" fill="white" mask="url(#path-4-inside-2_130_10927)"/>
</g>
<defs>
<clipPath id="clip0_130_10927">
<rect width="18" height="18" fill="white"/>
</clipPath>
</defs>
</svg>
