<svg width="18" height="18" viewBox="0 0 18 18" fill="none" xmlns="http://www.w3.org/2000/svg">
<g clip-path="url(#clip0_130_10931)">
<path d="M12.5 8H5.5C4.55719 8 4.08579 8 3.79289 8.29289C3.5 8.58579 3.5 9.05719 3.5 10V13.5C3.5 14.4428 3.5 14.9142 3.79289 15.2071C4.08579 15.5 4.55719 15.5 5.5 15.5H12.5C13.4428 15.5 13.9142 15.5 14.2071 15.2071C14.5 14.9142 14.5 14.4428 14.5 13.5V10C14.5 9.05719 14.5 8.58579 14.2071 8.29289C13.9142 8 13.4428 8 12.5 8Z" stroke="white"/>
<path d="M6.5 7.5C6.5 7.5 6.5 6.56245 6.5 5C6.5 3.125 7.01871 2.5 9 2.5C10.9813 2.5 11.5 3.125 11.5 5V7.5" stroke="white"/>
</g>
<defs>
<clipPath id="clip0_130_10931">
<rect width="18" height="18" fill="white"/>
</clipPath>
</defs>
</svg>
