<svg width="18" height="18" viewBox="0 0 18 18" fill="none" xmlns="http://www.w3.org/2000/svg">
<path d="M13.7855 15.2815L8.24162 9.70667C7.8317 9.29446 7.83263 8.62828 8.24369 8.21721C8.65966 7.80124 9.33553 7.80599 9.74562 8.22775L15.2265 13.8646C15.6116 14.2607 15.6072 14.8928 15.2165 15.2835C14.8211 15.6789 14.1798 15.678 13.7855 15.2815Z" stroke="white" stroke-linecap="round"/>
<path d="M12.5303 11.4697C12.2374 11.1768 11.7626 11.1768 11.4697 11.4697C11.1768 11.7626 11.1768 12.2374 11.4697 12.5303L12 12L12.5303 11.4697ZM12 12L11.4697 12.5303L14.4697 15.5303L15 15L15.5303 14.4697L12.5303 11.4697L12 12Z" fill="white"/>
<path d="M7.158 2V4.21053M6.05273 3.10526H8.26326" stroke="white" stroke-width="0.8" stroke-linecap="round"/>
<path d="M3.10526 5.3158V7.52632M2 6.42106H4.21053" stroke="white" stroke-width="0.8" stroke-linecap="round"/>
<path d="M4.57915 12.6842V15.6316M3.10547 14.1579H6.05284" stroke="white" stroke-linecap="round"/>
<path d="M14.1573 3.10526V6.05262M12.6836 4.57894H15.631" stroke="white" stroke-linecap="round"/>
</svg>
