<svg width="18" height="18" viewBox="0 0 18 18" fill="none" xmlns="http://www.w3.org/2000/svg">
<path d="M6.49957 13L11.5551 15.5278M6.49957 13V2.52778M6.49957 13L5.6011 13.5718C4.24365 14.4356 3.56493 14.8675 3.04614 14.5827C2.52735 14.2979 2.52735 13.4934 2.52735 11.8844V5.88171C2.52735 5.30298 2.52735 5.01362 2.66745 4.77761C2.80755 4.54161 3.06158 4.40304 3.56964 4.12592L6.49957 2.52778M11.5551 15.5278V4.69444M11.5551 15.5278L14.7037 13.2379C15.1076 12.9441 15.3096 12.7973 15.4185 12.5834C15.5273 12.3696 15.5273 12.1199 15.5273 11.6204V5.89686C15.5273 4.3943 15.5273 3.64303 15.0378 3.35242C14.5483 3.06182 13.8887 3.42157 12.5696 4.14107L11.5551 4.69444M11.5551 4.69444L6.49957 2.52778" stroke="white" stroke-linecap="round" stroke-linejoin="round"/>
</svg>
