<svg width="18" height="18" viewBox="0 0 18 18" fill="none" xmlns="http://www.w3.org/2000/svg">
<g clip-path="url(#clip0_130_10934)">
<path d="M16 7.10526C16 6.02213 15.6857 4.96205 14.9602 4.19616C14.2346 3.43027 13.2505 3 12.2244 3C11.5708 3.04068 10.9362 3.24763 10.3748 3.60319C9.82279 3.95275 9.3576 4.44604 9.01742 5.02283C9.00962 5.03607 9.00571 5.04269 9 5.04269C8.99429 5.04269 8.99038 5.03607 8.98258 5.02283C8.6424 4.44604 8.17722 3.95275 7.62524 3.60319C7.06378 3.24763 6.42919 3.04068 5.77557 3C4.74948 3 3.76541 3.43027 3.03984 4.19616C2.31428 4.96205 2 6.02213 2 7.10526C2 11.0052 9 16 9 16C9 16 11.0926 14.5357 13.0047 12.5644" stroke="white" stroke-linecap="round" stroke-linejoin="round"/>
<path d="M6.26367 10.5263L7.63209 7.78946L9.68472 10.5263L11.0531 9.15788L12.4216 10.5263L13.2567 9.89999C13.521 9.70174 13.6531 9.60262 13.8071 9.5513C13.961 9.49999 14.1262 9.49999 14.4567 9.49999H15.8426" stroke="white" stroke-linecap="round" stroke-linejoin="round"/>
</g>
<defs>
<clipPath id="clip0_130_10934">
<rect width="18" height="18" fill="white"/>
</clipPath>
</defs>
</svg>
