<svg width="18" height="18" viewBox="0 0 18 18" fill="none" xmlns="http://www.w3.org/2000/svg">
<g clip-path="url(#clip0_130_10935)">
<path d="M4.1551 12.1557L3.82365 12.53V12.53L4.1551 12.1557ZM6.83333 13.5795L6.69848 14.061L6.83333 13.5795ZM3.3125 15.2404L3.07559 15.6808C3.09919 15.6935 3.12377 15.7042 3.1491 15.713L3.3125 15.2404ZM15.5 8.62464H15C15 10.1168 14.3495 11.3194 13.286 12.1606C12.2133 13.009 10.7035 13.5 9 13.5V14V14.5C10.8863 14.5 12.6265 13.9572 13.9064 12.9449C15.1954 11.9254 16 10.4403 16 8.62464H15.5ZM2.5 8.62464H3C3 6.17872 5.54503 4.16278 9 4.16278V3.66278V3.16278C5.27527 3.16278 2 5.38105 2 8.62464H2.5ZM9 3.66278V4.16278C10.7269 4.16278 12.2412 4.56183 13.3086 5.31227C14.357 6.04936 15 7.13988 15 8.62464H15.5H16C16 6.80149 15.1879 5.41108 13.8838 4.49421C12.5986 3.5907 10.8629 3.16278 9 3.16278V3.66278ZM4.1551 12.1557L4.48655 11.7813C3.55442 10.956 3 9.7878 3 8.62464H2.5H2C2 10.0999 2.69727 11.5328 3.82365 12.53L4.1551 12.1557ZM9 14V13.5C8.32522 13.5 7.6736 13.2956 6.96819 13.0981L6.83333 13.5795L6.69848 14.061C7.34844 14.2431 8.15536 14.5 9 14.5V14ZM6.83333 13.5795L6.96819 13.0981C6.70775 13.0251 6.47996 13.1262 6.35682 13.1941C6.21968 13.2698 6.08583 13.3763 5.96763 13.4777C5.8467 13.5814 5.71444 13.7044 5.5857 13.8225C5.45336 13.9439 5.31779 14.0667 5.1758 14.1848C4.57659 14.6833 4.02666 14.9584 3.4759 14.7679L3.3125 15.2404L3.1491 15.713C4.25344 16.0949 5.19993 15.4655 5.81535 14.9535C5.97703 14.819 6.1275 14.6825 6.26168 14.5594C6.39946 14.4331 6.51418 14.3264 6.61878 14.2366C6.72609 14.1446 6.79631 14.0937 6.83985 14.0697C6.8974 14.038 6.82692 14.097 6.69848 14.061L6.83333 13.5795ZM3.3125 15.2404L3.54941 14.8001C3.75345 14.9099 3.73559 15.106 3.73647 15.0628C3.73689 15.0422 3.7461 14.9767 3.78521 14.8513C3.86104 14.6082 4.00031 14.2874 4.1587 13.9287C4.30975 13.5867 4.47875 13.2089 4.58446 12.8974C4.63663 12.7437 4.68437 12.5753 4.7001 12.4185C4.71191 12.3007 4.72826 11.9953 4.48655 11.7813L4.1551 12.1557L3.82365 12.53C3.67058 12.3945 3.71328 12.237 3.70509 12.3187C3.7008 12.3615 3.68217 12.4444 3.6375 12.576C3.54952 12.8353 3.40298 13.1646 3.24392 13.5248C3.09219 13.8684 2.92676 14.2451 2.83056 14.5536C2.78366 14.704 2.74003 14.8779 2.73668 15.0425C2.73379 15.1844 2.76125 15.5116 3.07559 15.6808L3.3125 15.2404Z" fill="white"/>
</g>
<defs>
<clipPath id="clip0_130_10935">
<rect width="18" height="18" fill="white"/>
</clipPath>
</defs>
</svg>
