<svg width="18" height="18" viewBox="0 0 18 18" fill="none" xmlns="http://www.w3.org/2000/svg">
<g clip-path="url(#clip0_130_10938)">
<path d="M14.9367 9.49348L15.3032 9.8335V9.8335L14.9367 9.49348ZM8.50656 3.06338L8.84658 3.42996V3.42996L8.50656 3.06338ZM8.35 2.53209L8.3994 3.02965V3.02965L8.35 2.53209ZM9.03929 2.63849L9.32103 3.05155L9.03929 2.63849ZM15.3616 8.96072L15.7746 9.24246L15.3616 8.96072ZM15.3616 8.96072L14.9485 8.67898C14.8342 8.84655 14.7076 9.00515 14.5701 9.15346L14.9367 9.49348L15.3032 9.8335C15.4745 9.64883 15.6322 9.45129 15.7746 9.24246L15.3616 8.96072ZM14.9367 9.49348L14.5701 9.15346C13.8297 9.95162 12.7735 10.45 11.6 10.45V10.95V11.45C13.0632 11.45 14.3816 10.8271 15.3032 9.8335L14.9367 9.49348ZM11.6 10.95V10.45C9.36324 10.45 7.54999 8.6368 7.54999 6.40005H7.04999H6.54999C6.54999 9.18908 8.81096 11.45 11.6 11.45V10.95ZM7.04999 6.40005H7.54999C7.54999 5.22658 8.04842 4.17029 8.84658 3.42996L8.50656 3.06338L8.16654 2.69679C7.17291 3.61842 6.54999 4.93687 6.54999 6.40005H7.04999ZM8.50656 3.06338L8.84658 3.42996C8.99489 3.2924 9.15347 3.16584 9.32103 3.05155L9.03929 2.63849L8.75755 2.22542C8.54873 2.36785 8.3512 2.52551 8.16654 2.69679L8.50656 3.06338ZM8.35 2.53209L8.3994 3.02965C8.5968 3.01005 8.79715 3 9 3V2.5V2C8.7641 2 8.53078 2.01169 8.3006 2.03454L8.35 2.53209ZM2.5 9H3C3 5.88909 5.36794 3.33063 8.3994 3.02965L8.35 2.53209L8.3006 2.03454C4.76274 2.3858 2 5.36996 2 9H2.5ZM9 15.5V15C5.68629 15 3 12.3137 3 9H2.5H2C2 12.866 5.13401 16 9 16V15.5ZM15.5 9H15C15 12.3137 12.3137 15 9 15V15.5V16C12.866 16 16 12.866 16 9H15.5ZM9.03929 2.63849L9.32103 3.05155C9.54977 2.89554 9.61026 2.62922 9.55158 2.41917C9.49173 2.20495 9.292 2 9 2V2.5V3C8.78155 3 8.63185 2.84357 8.58845 2.68823C8.54622 2.53706 8.58958 2.33999 8.75755 2.22542L9.03929 2.63849ZM15.3616 8.96072L15.7746 9.24246C15.6601 9.41045 15.463 9.45381 15.3118 9.41157C15.1564 9.36817 15 9.21847 15 9H15.5H16C16 8.70801 15.7951 8.5083 15.5809 8.44845C15.3708 8.38977 15.1045 8.45026 14.9485 8.67898L15.3616 8.96072Z" fill="white"/>
</g>
<defs>
<clipPath id="clip0_130_10938">
<rect width="18" height="18" fill="white"/>
</clipPath>
</defs>
</svg>
