<svg width="18" height="18" viewBox="0 0 18 18" fill="none" xmlns="http://www.w3.org/2000/svg">
<path d="M14.4997 13.0001C14.4997 13.9581 13.958 14.6028 12.8463 14.9043C11.7345 15.2058 10.6722 14.8421 10.4736 14.0919C10.275 13.3418 11.0153 12.4893 12.1271 12.1878C13.2388 11.8862 14.4997 12.0421 14.4997 13.0001Z" fill="white"/>
<path d="M6.49973 14.0001C6.49973 14.9581 5.95805 15.6836 4.84628 15.9851C3.7345 16.2866 2.67223 15.9229 2.47363 15.1728C2.27504 14.4226 3.01531 13.5701 4.12708 13.2686C5.23886 12.9671 6.49973 13.042 6.49973 14.0001Z" fill="white"/>
<path d="M6 13.9599L6.00003 7.50011M6.00003 7.50011L14 5.5M6.00003 7.50011V5.56155C6.00003 4.8116 6.00003 4.43663 6.21183 4.16536C6.42362 3.8941 6.7874 3.80316 7.51496 3.62127L11.515 2.62127C12.6589 2.33529 13.2309 2.19229 13.6154 2.49257C14 2.79285 14 3.38242 14 4.56155V5.5M14 5.5L14 13" stroke="white" stroke-linecap="round"/>
</svg>
