<svg width="18" height="18" viewBox="0 0 18 18" fill="none" xmlns="http://www.w3.org/2000/svg">
<g clip-path="url(#clip0_130_10941)">
<path d="M12.535 3.34313C12.8645 3.01366 13.0292 2.84893 13.213 2.7728C13.458 2.67131 13.7334 2.67131 13.9784 2.7728C14.1622 2.84893 14.3269 3.01366 14.6564 3.34313C14.9858 3.6726 15.1506 3.83734 15.2267 4.02111C15.3282 4.26614 15.3282 4.54145 15.2267 4.78647C15.1506 4.97025 14.9858 5.13498 14.6564 5.46445L7.56231 12.5585C7.43775 12.6831 7.37547 12.7453 7.30368 12.7956C7.23189 12.8458 7.15204 12.883 6.99235 12.9574L3.34265 14.6568L5.04213 11.0071C5.11649 10.8474 5.15367 10.7676 5.20391 10.6958C5.25415 10.624 5.31643 10.5617 5.44099 10.4372L12.535 3.34313Z" stroke="white" stroke-linecap="round" stroke-linejoin="round"/>
<path d="M11.1719 4.70685L13.2932 6.82817" stroke="white"/>
</g>
<defs>
<clipPath id="clip0_130_10941">
<rect width="18" height="18" fill="white"/>
</clipPath>
</defs>
</svg>
