<svg width="18" height="18" viewBox="0 0 18 18" fill="none" xmlns="http://www.w3.org/2000/svg">
<path d="M2.5 6.5C2.5 4.61438 2.5 3.67157 3.08579 3.08579C3.67157 2.5 4.61438 2.5 6.5 2.5H11.5C13.3856 2.5 14.3284 2.5 14.9142 3.08579C15.5 3.67157 15.5 4.61438 15.5 6.5V11.5C15.5 13.3856 15.5 14.3284 14.9142 14.9142C14.3284 15.5 13.3856 15.5 11.5 15.5H6.5C4.61438 15.5 3.67157 15.5 3.08579 14.9142C2.5 14.3284 2.5 13.3856 2.5 11.5V6.5Z" stroke="white"/>
<path d="M9 6V12M6 9L12 9" stroke="white" stroke-width="1.5" stroke-linecap="round"/>
</svg>
