<svg width="18" height="18" viewBox="0 0 18 18" fill="none" xmlns="http://www.w3.org/2000/svg">
<g clip-path="url(#clip0_130_10943)">
<path d="M3.75732 7.56583C2.94278 7.17718 2.53551 6.98286 2.3828 6.66587C2.30159 6.4973 2.26931 6.30933 2.28961 6.12333C2.3278 5.77355 2.64688 5.45447 3.28505 4.81629L4.79556 3.30579C5.4839 2.61745 5.82806 2.27328 6.21349 2.25445C6.35027 2.24776 6.48697 2.26924 6.6151 2.31755C6.97618 2.45369 7.1982 2.88683 7.64226 3.7531C8.00898 4.46851 8.19234 4.82621 8.45595 5.11817C8.55312 5.22578 8.65796 5.32621 8.76966 5.41866C9.07267 5.66948 9.43792 5.8373 10.1684 6.17294L10.6324 6.38611C11.8192 6.9314 12.4126 7.20404 12.5047 7.71821C12.5969 8.23237 12.1351 8.69414 11.2116 9.61768L9.66931 11.16C8.72536 12.1039 8.25339 12.5759 7.73309 12.4764C7.21279 12.377 6.94818 11.7642 6.41897 10.5386L6.25518 10.1593C5.94315 9.43672 5.78713 9.07543 5.5515 8.77298C5.42261 8.60755 5.27674 8.45608 5.11626 8.32108C4.82287 8.07425 4.46769 7.90478 3.75732 7.56583Z" stroke="white" stroke-linecap="round"/>
<path d="M15 15L10.5 10.5" stroke="white" stroke-linecap="round"/>
</g>
<defs>
<clipPath id="clip0_130_10943">
<rect width="18" height="18" fill="white"/>
</clipPath>
</defs>
</svg>
