<svg width="18" height="18" viewBox="0 0 18 18" fill="none" xmlns="http://www.w3.org/2000/svg">
<g clip-path="url(#clip0_130_10946)">
<path d="M4.47094 2.5C3.25425 3.70288 2.5 5.37527 2.5 7.2244C2.5 9.03946 3.22672 10.6842 4.40416 11.8818" stroke="white" stroke-linecap="round"/>
<path d="M13.7517 11.9488C14.9684 10.7459 15.7227 9.07355 15.7227 7.22442C15.7227 5.40936 14.9959 3.76459 13.8185 2.56699" stroke="white" stroke-linecap="round"/>
<path d="M6.21036 4.27176C5.44992 5.02356 4.97852 6.0688 4.97852 7.22451C4.97852 8.35892 5.43271 9.3869 6.16862 10.1354" stroke="white" stroke-linecap="round"/>
<path d="M12.0103 10.1771C12.7708 9.42526 13.2422 8.38002 13.2422 7.22431C13.2422 6.0899 12.788 5.06192 12.0521 4.31342" stroke="white" stroke-linecap="round"/>
<path d="M9.11133 6.06622C9.74646 6.06622 10.2646 6.58327 10.2646 7.22443C10.2646 7.86556 9.74644 8.38263 9.11133 8.38263C8.47641 8.38239 7.95901 7.86541 7.95898 7.22443C7.95898 6.58342 8.47639 6.06646 9.11133 6.06622Z" fill="white" stroke="white"/>
<path d="M9.11133 7.22223L9.11133 15.25" stroke="white" stroke-linecap="round" stroke-linejoin="round"/>
</g>
<defs>
<clipPath id="clip0_130_10946">
<rect width="18" height="18" fill="white"/>
</clipPath>
</defs>
</svg>
