<svg width="18" height="18" viewBox="0 0 18 18" fill="none" xmlns="http://www.w3.org/2000/svg">
<g clip-path="url(#clip0_130_10945)">
<path d="M4.39395 4.30817C3.18621 5.50221 2.4375 7.1623 2.4375 8.99783C2.4375 10.7995 3.15887 12.4322 4.32766 13.621" stroke="white" stroke-linecap="round"/>
<path d="M13.606 13.6875C14.8138 12.4935 15.5625 10.8334 15.5625 8.99784C15.5625 7.19613 14.8411 5.56345 13.6723 4.37465" stroke="white" stroke-linecap="round"/>
<path d="M6.12122 6.06689C5.36638 6.81317 4.89844 7.85073 4.89844 8.99793C4.89844 10.124 5.3493 11.1444 6.07979 11.8874" stroke="white" stroke-linecap="round"/>
<path d="M11.8788 11.9288C12.6336 11.1825 13.1016 10.1449 13.1016 8.99773C13.1016 7.87166 12.6507 6.85124 11.9202 6.10824" stroke="white" stroke-linecap="round"/>
<path d="M9 7.85184C9.62828 7.85184 10.1404 8.36313 10.1406 8.99734C10.1406 9.63177 9.62842 10.1438 9 10.1438C8.37158 10.1438 7.85938 9.63177 7.85938 8.99734C7.85962 8.36313 8.37173 7.85184 9 7.85184Z" fill="white" stroke="white"/>
</g>
<defs>
<clipPath id="clip0_130_10945">
<rect width="18" height="18" fill="white"/>
</clipPath>
</defs>
</svg>
