<svg width="18" height="18" viewBox="0 0 18 18" fill="none" xmlns="http://www.w3.org/2000/svg">
<g clip-path="url(#clip0_130_10948)">
<path d="M5 4.50003L5 11.3933C5 13.7322 5 14.9017 5.66402 15.1386C6.32804 15.3754 7.06818 14.47 8.54847 12.6591L8.54847 12.6591L9 12.1068L9.45153 12.6591C10.9318 14.47 11.672 15.3754 12.336 15.1386C13 14.9017 13 13.7322 13 11.3933V4.50003C13 3.55722 13 3.08582 12.7071 2.79292C12.4142 2.50003 11.9428 2.50003 11 2.50003L7 2.50003C6.05719 2.50003 5.58579 2.50003 5.29289 2.79292C5 3.08582 5 3.55722 5 4.50003Z" stroke="white" stroke-linecap="round" stroke-linejoin="round"/>
</g>
<defs>
<clipPath id="clip0_130_10948">
<rect width="18" height="18" fill="white"/>
</clipPath>
</defs>
</svg>
