<svg width="18" height="18" viewBox="0 0 18 18" fill="none" xmlns="http://www.w3.org/2000/svg">
<g clip-path="url(#clip0_130_10949)">
<path d="M6 8.02534C6 6.08825 6.76951 4.23049 8.13924 2.86076C8.61463 2.38538 9.38538 2.38538 9.86077 2.86076C11.2305 4.23049 12 6.08825 12 8.02534V11.2438C12 11.4819 12 11.6009 11.9798 11.6998C11.8997 12.0927 11.5927 12.3997 11.1998 12.4798C11.1009 12.5 10.9819 12.5 10.7438 12.5H7.25616C7.0181 12.5 6.89906 12.5 6.80017 12.4798C6.40731 12.3997 6.10029 12.0927 6.02017 11.6998C6 11.6009 6 11.4819 6 11.2438V8.02534Z" stroke="white"/>
<path d="M9.5 6C9.5 6.27614 9.27614 6.5 9 6.5C8.72386 6.5 8.5 6.27614 8.5 6C8.5 5.72386 8.72386 5.5 9 5.5C9.27614 5.5 9.5 5.72386 9.5 6Z" fill="white"/>
<path d="M12 7.00003L13.2147 9.67242C13.7936 10.946 14.0831 11.5828 13.7878 12.0414C13.4925 12.5 12.793 12.5 11.394 12.5H6.60601C5.20703 12.5 4.50754 12.5 4.21223 12.0414C3.91692 11.5828 4.20637 10.946 4.78528 9.67243L6 7.00003" stroke="white" stroke-linecap="round"/>
<path d="M9 14.5C9 15.281 9 16 9 16M11 14.5V15M7 14.5V15" stroke="white" stroke-linecap="round"/>
</g>
<defs>
<clipPath id="clip0_130_10949">
<rect width="18" height="18" fill="white"/>
</clipPath>
</defs>
</svg>
