<svg width="18" height="18" viewBox="0 0 18 18" fill="none" xmlns="http://www.w3.org/2000/svg">
<g clip-path="url(#clip0_130_10950)">
<path d="M2.5 7.5C2.5 6.55719 2.5 6.08579 2.79289 5.79289C3.08579 5.5 3.55719 5.5 4.5 5.5H13.5C14.4428 5.5 14.9142 5.5 15.2071 5.79289C15.5 6.08579 15.5 6.55719 15.5 7.5V10.5C15.5 11.4428 15.5 11.9142 15.2071 12.2071C14.9142 12.5 14.4428 12.5 13.5 12.5H4.5C3.55719 12.5 3.08579 12.5 2.79289 12.2071C2.5 11.9142 2.5 11.4428 2.5 10.5V7.5Z" stroke="white" stroke-linecap="round" stroke-linejoin="round"/>
<path d="M9 6V9" stroke="white" stroke-linecap="round" stroke-linejoin="round"/>
<path d="M5.5 6V8" stroke="white" stroke-linecap="round" stroke-linejoin="round"/>
<path d="M12.5 6V8" stroke="white" stroke-linecap="round" stroke-linejoin="round"/>
</g>
<defs>
<clipPath id="clip0_130_10950">
<rect width="18" height="18" fill="white"/>
</clipPath>
</defs>
</svg>
