<svg width="18" height="18" viewBox="0 0 18 18" fill="none" xmlns="http://www.w3.org/2000/svg">
<g clip-path="url(#clip0_130_10953)">
<path d="M15.5 15.5V15.36C15.5 14.0886 15.5 13.4529 15.2215 12.9819C15.05 12.692 14.808 12.45 14.5181 12.2785C14.0471 12 13.4114 12 12.14 12H10.36C9.08857 12 8.45286 12 7.98192 12.2785C7.69195 12.45 7.45 12.692 7.27852 12.9819C7 13.4529 7 14.0886 7 15.36V15.5" stroke="white" stroke-linecap="round" stroke-linejoin="round"/>
<path d="M2.5 13V12.66C2.5 11.5776 2.5 11.0364 2.70394 10.6201C2.89921 10.2215 3.22153 9.89921 3.62012 9.70394C4.03642 9.5 4.57762 9.5 5.66 9.5H6" stroke="white" stroke-linecap="round" stroke-linejoin="round"/>
<path d="M13.8327 7.66664C13.8327 8.9553 12.788 9.99997 11.4994 9.99997C10.2107 9.99997 9.16603 8.9553 9.16603 7.66664C9.16603 6.37797 10.2107 5.3333 11.4994 5.3333C12.788 5.3333 13.8327 6.37797 13.8327 7.66664Z" stroke="white"/>
<path d="M8.22308 3.50925C7.80505 2.88053 7.09023 2.46617 6.27863 2.46617C4.98997 2.46617 3.9453 3.51083 3.9453 4.7995C3.9453 5.81545 4.59459 6.67974 5.50085 7.00006" stroke="white" stroke-linecap="round"/>
</g>
<defs>
<clipPath id="clip0_130_10953">
<rect width="18" height="18" fill="white"/>
</clipPath>
</defs>
</svg>
