<svg width="18" height="18" viewBox="0 0 18 18" fill="none" xmlns="http://www.w3.org/2000/svg">
<g clip-path="url(#clip0_130_10952)">
<path d="M6.5 6.5H6C5.05719 6.5 4.58579 6.5 4.29289 6.79289C4 7.08579 4 7.55719 4 8.5V13.5C4 14.4428 4 14.9142 4.29289 15.2071C4.58579 15.5 5.05719 15.5 6 15.5H12C12.9428 15.5 13.4142 15.5 13.7071 15.2071C14 14.9142 14 14.4428 14 13.5V8.5C14 7.55719 14 7.08579 13.7071 6.79289C13.4142 6.5 12.9428 6.5 12 6.5H11.5" stroke="white" stroke-linecap="round" stroke-linejoin="round"/>
<path d="M9 10.5V2.5M9 2.5L11 4.5M9 2.5L7 4.5" stroke="white" stroke-linecap="round" stroke-linejoin="round"/>
</g>
<defs>
<clipPath id="clip0_130_10952">
<rect width="18" height="18" fill="white"/>
</clipPath>
</defs>
</svg>
