<svg width="18" height="18" viewBox="0 0 18 18" fill="none" xmlns="http://www.w3.org/2000/svg">
<g clip-path="url(#clip0_130_10954)">
<path d="M4 5.9825C4 5.18266 4 4.78274 4.12336 4.44798C4.27862 4.02665 4.57115 3.66982 4.95385 3.43494C5.25792 3.24832 5.65008 3.16989 6.43438 3.01303L7.8233 2.73525C8.40973 2.61796 8.70294 2.55932 9 2.55932C9.29706 2.55932 9.59027 2.61796 10.1767 2.73525L11.5656 3.01303C12.3499 3.16989 12.7421 3.24832 13.0462 3.43494C13.4289 3.66982 13.7214 4.02664 13.8766 4.44798C14 4.78274 14 5.18266 14 5.9825V6.59034C14 7.66774 14 8.20644 13.9326 8.72228C13.75 10.1203 13.2012 11.4452 12.3418 12.5629C12.0247 12.9753 11.6438 13.3562 10.8819 14.118C10.447 14.5529 10.2295 14.7704 10.0036 14.9015C9.38295 15.2615 8.61705 15.2615 7.99644 14.9015C7.7705 14.7704 7.55303 14.5529 7.11809 14.118C6.35622 13.3561 5.97529 12.9752 5.65817 12.5628C4.79876 11.4452 4.24997 10.1203 4.06738 8.72228C4 8.20643 4 7.66771 4 6.59027V5.9825Z" stroke="white"/>
</g>
<defs>
<clipPath id="clip0_130_10954">
<rect width="18" height="18" fill="white"/>
</clipPath>
</defs>
</svg>
