<svg width="18" height="18" viewBox="0 0 18 18" fill="none" xmlns="http://www.w3.org/2000/svg">
<g clip-path="url(#clip0_130_10955)">
<path d="M2.80191 8.76433C2.66131 7.70981 2.59101 7.18255 2.8898 6.84128C3.18859 6.5 3.72052 6.5 4.78437 6.5H13.2156C14.2795 6.5 14.8114 6.5 15.1102 6.84128C15.409 7.18255 15.3387 7.70981 15.1981 8.76433L14.7314 12.2643C14.6212 13.0913 14.566 13.5048 14.2832 13.7524C14.0004 14 13.5832 14 12.749 14H5.25103C4.41675 14 3.99961 14 3.71679 13.7524C3.43397 13.5048 3.37884 13.0913 3.26858 12.2643L2.80191 8.76433Z" stroke="white"/>
<path d="M12 6.5V6C12 5.05719 12 4.58579 11.7071 4.29289C11.4142 4 10.9428 4 10 4H8C7.05719 4 6.58579 4 6.29289 4.29289C6 4.58579 6 5.05719 6 6V6.5" stroke="white"/>
</g>
<defs>
<clipPath id="clip0_130_10955">
<rect width="18" height="18" fill="white"/>
</clipPath>
</defs>
</svg>
