<svg width="18" height="18" viewBox="0 0 18 18" fill="none" xmlns="http://www.w3.org/2000/svg">
<path d="M6 3.5H12C12.9569 3.5 13.6244 3.50066 14.1279 3.56836C14.6171 3.63413 14.876 3.75494 15.0605 3.93945C15.2451 4.12396 15.3659 4.38289 15.4316 4.87207C15.4993 5.37563 15.5 6.04308 15.5 7V11C15.5 11.9569 15.4993 12.6244 15.4316 13.1279C15.3659 13.6171 15.2451 13.876 15.0605 14.0605C14.876 14.2451 14.6171 14.3659 14.1279 14.4316C13.6244 14.4993 12.9569 14.5 12 14.5H6C5.04308 14.5 4.37563 14.4993 3.87207 14.4316C3.38289 14.3659 3.12396 14.2451 2.93945 14.0605C2.75494 13.876 2.63413 13.6171 2.56836 13.1279C2.50066 12.6244 2.5 11.9569 2.5 11V7C2.5 6.04308 2.50066 5.37563 2.56836 4.87207C2.63413 4.38289 2.75494 4.12396 2.93945 3.93945C3.12396 3.75494 3.38289 3.63413 3.87207 3.56836C4.37563 3.50066 5.04308 3.5 6 3.5Z" stroke="white"/>
<path d="M10.5 3.5L10.5 14.5" stroke="white" stroke-linecap="round" stroke-linejoin="round"/>
<path d="M12.5 7.5H13.5M12.5 9.5H13.5M12.5 5.5H13.5" stroke="white" stroke-linecap="round" stroke-linejoin="round"/>
</svg>
