<svg width="18" height="18" viewBox="0 0 18 18" fill="none" xmlns="http://www.w3.org/2000/svg">
<path d="M12 3.5H6C5.04308 3.5 4.37563 3.50066 3.87207 3.56836C3.38289 3.63413 3.12396 3.75494 2.93945 3.93945C2.75494 4.12396 2.63413 4.38289 2.56836 4.87207C2.50066 5.37563 2.5 6.04308 2.5 7V11C2.5 11.9569 2.50066 12.6244 2.56836 13.1279C2.63413 13.6171 2.75494 13.876 2.93945 14.0605C3.12396 14.2451 3.38289 14.3659 3.87207 14.4316C4.37563 14.4993 5.04308 14.5 6 14.5H12C12.9569 14.5 13.6244 14.4993 14.1279 14.4316C14.6171 14.3659 14.876 14.2451 15.0605 14.0605C15.2451 13.876 15.3659 13.6171 15.4316 13.1279C15.4993 12.6244 15.5 11.9569 15.5 11V7C15.5 6.04308 15.4993 5.37563 15.4316 4.87207C15.3659 4.38289 15.2451 4.12396 15.0605 3.93945C14.876 3.75494 14.6171 3.63413 14.1279 3.56836C13.6244 3.50066 12.9569 3.5 12 3.5Z" stroke="white"/>
<path d="M7.5 3.5L7.5 14.5" stroke="white" stroke-linecap="round" stroke-linejoin="round"/>
<path d="M5.5 7.5H4.5M5.5 9.5H4.5M5.5 5.5H4.5" stroke="white" stroke-linecap="round" stroke-linejoin="round"/>
</svg>
