<svg width="18" height="18" viewBox="0 0 18 18" fill="none" xmlns="http://www.w3.org/2000/svg">
<g clip-path="url(#clip0_130_10958)">
<path d="M4.5 2.49997V6.49997M2.5 4.49997H6.5M4.5 12.5V15.5M3 14H6M8.49228 7.66921L7.34605 8.05129C6.16944 8.44349 5.58114 8.63959 5.58114 8.99997C5.58114 9.36035 6.16944 9.55645 7.34605 9.94865L8.49228 10.3307C8.74082 10.4136 8.86509 10.455 8.95125 10.5461C9.03742 10.6372 9.07188 10.7635 9.14082 11.0163L9.53524 12.4625C9.92381 13.8873 10.1181 14.5997 10.5 14.5997C10.8819 14.5997 11.0762 13.8873 11.4648 12.4625L11.8592 11.0163C11.9281 10.7635 11.9626 10.6372 12.0487 10.5461C12.1349 10.455 12.2592 10.4136 12.5077 10.3307L13.6539 9.94865C14.8306 9.55645 15.4189 9.36035 15.4189 8.99997C15.4189 8.63959 14.8306 8.44349 13.654 8.05129L12.5077 7.66921C12.2592 7.58636 12.1349 7.54494 12.0487 7.45386C11.9626 7.36277 11.9281 7.2364 11.8592 6.98364L11.4648 5.53744C11.0762 4.11265 10.8819 3.40026 10.5 3.40026C10.1181 3.40026 9.92381 4.11265 9.53524 5.53744L9.14082 6.98364C9.07188 7.2364 9.03742 7.36277 8.95125 7.45386C8.86509 7.54494 8.74082 7.58636 8.49228 7.66921Z" stroke="white" stroke-linecap="round" stroke-linejoin="round"/>
</g>
<defs>
<clipPath id="clip0_130_10958">
<rect width="18" height="18" fill="white"/>
</clipPath>
</defs>
</svg>
