<svg width="18" height="18" viewBox="0 0 18 18" fill="none" xmlns="http://www.w3.org/2000/svg">
<g clip-path="url(#clip0_130_10959)">
<path d="M7.64645 9.64645C7.45118 9.84171 7.45118 10.1583 7.64645 10.3536C7.84171 10.5488 8.15829 10.5488 8.35355 10.3536L8 10L7.64645 9.64645ZM13.1106 5.59654L13.4641 5.24299L12.757 4.53588L12.4035 4.88944L12.757 5.24299L13.1106 5.59654ZM13.7493 3.54364L13.3957 3.8972L14.1028 4.6043L14.4564 4.25075L14.1028 3.8972L13.7493 3.54364ZM15.3536 3.35355C15.5488 3.15829 15.5488 2.84171 15.3536 2.64645C15.1583 2.45118 14.8417 2.45118 14.6464 2.64645L15 3L15.3536 3.35355ZM8 10L8.35355 10.3536L13.1106 5.59654L12.757 5.24299L12.4035 4.88944L7.64645 9.64645L8 10ZM14.1028 3.8972L14.4564 4.25075L15.3536 3.35355L15 3L14.6464 2.64645L13.7493 3.54364L14.1028 3.8972Z" fill="white"/>
<path d="M8.00001 4.50001H4.50001C3.55721 4.50001 3.0858 4.50001 2.79291 4.7929C2.50001 5.08579 2.50001 5.5572 2.50001 6.50001L2.50001 13.5C2.50001 14.4428 2.50001 14.9142 2.7929 15.2071C3.0858 15.5 3.5572 15.5 4.50001 15.5H11.5C12.4428 15.5 12.9142 15.5 13.2071 15.2071C13.5 14.9142 13.5 14.4428 13.5 13.5V10" stroke="white" stroke-linecap="round"/>
</g>
<defs>
<clipPath id="clip0_130_10959">
<rect width="18" height="18" fill="white"/>
</clipPath>
</defs>
</svg>
