<svg width="18" height="18" viewBox="0 0 18 18" fill="none" xmlns="http://www.w3.org/2000/svg">
<g clip-path="url(#clip0_130_10961)">
<path d="M5.78022 7.37988C4.2339 8.04261 3.46074 8.37397 3.38472 8.93572C3.37532 9.00523 3.37325 9.07555 3.37856 9.14549C3.42146 9.71073 4.17384 10.0869 5.6786 10.8393L7.21117 11.6056C8.08897 12.0444 8.52787 12.2639 9 12.2639C9.47213 12.2639 9.91103 12.0444 10.7888 11.6056L12.3214 10.8393C13.8262 10.0869 14.5785 9.71073 14.6214 9.14549C14.6267 9.07555 14.6247 9.00523 14.6153 8.93572C14.5393 8.37397 13.7661 8.04261 12.2198 7.37988" stroke="white"/>
<path d="M5.3091 10.5818C4.17903 11.0662 3.614 11.3083 3.45647 11.6761C3.35678 11.9089 3.34909 12.1708 3.43494 12.4089C3.57061 12.7854 4.12045 13.0603 5.22014 13.6101L7.21117 14.6056C8.08897 15.0445 8.52787 15.2639 9 15.2639C9.47213 15.2639 9.91103 15.0445 10.7888 14.6056L12.7799 13.6101C13.8795 13.0603 14.4294 12.7854 14.5651 12.4089C14.6509 12.1708 14.6432 11.9089 14.5435 11.6761C14.386 11.3083 13.821 11.0662 12.6909 10.5818" stroke="white"/>
<path d="M10.7888 8.1056L12.143 7.42852C13.8094 6.59534 14.6426 6.17874 14.6239 5.5405C14.6051 4.90225 13.7489 4.53529 12.0365 3.80137L10.5757 3.17532C9.79892 2.8424 9.41052 2.67594 9 2.67594C8.58948 2.67594 8.20108 2.8424 7.42429 3.17532L5.96353 3.80137C4.25109 4.53529 3.39488 4.90225 3.37612 5.5405C3.35737 6.17874 4.19057 6.59534 5.85698 7.42852L7.21117 8.10561C8.08897 8.5445 8.52787 8.76394 9 8.76394C9.47213 8.76394 9.91103 8.5445 10.7888 8.1056Z" stroke="white"/>
</g>
<defs>
<clipPath id="clip0_130_10961">
<rect width="18" height="18" fill="white"/>
</clipPath>
</defs>
</svg>
