<svg width="18" height="18" viewBox="0 0 18 18" fill="none" xmlns="http://www.w3.org/2000/svg">
<g clip-path="url(#clip0_130_10960)">
<path d="M9 5.33636C9 4.16227 9 3.57523 8.66047 3.27657C8.58938 3.21404 8.50978 3.16192 8.42404 3.12178C8.01451 2.93003 7.47646 3.16482 6.40036 3.63439L4.30017 4.55084C3.42677 4.93196 2.99007 5.12251 2.74503 5.49679C2.5 5.87106 2.5 6.34752 2.5 7.30046V9.84515C2.5 11.2238 2.5 11.9131 2.95225 12.2092C3.4045 12.5053 4.0363 12.2296 5.29989 11.6782L5.75 11.4818" stroke="white"/>
<path d="M12.25 6.40002C12.25 5.44313 12.25 4.96469 12.0174 4.6863C11.8903 4.5342 11.7209 4.42328 11.5307 4.36765C11.1825 4.26582 10.744 4.45717 9.867 4.83987L7.55017 5.85085C6.67677 6.23197 6.24007 6.42253 5.99503 6.79681C5.75 7.17108 5.75 7.64754 5.75 8.60047V11.1452C5.75 12.5238 5.75 13.2131 6.20225 13.5092C6.6545 13.8053 7.2863 13.5296 8.54989 12.9782L9 12.7818" stroke="white"/>
<path d="M15.5 10.6996V8.15489C15.5 6.77623 15.5 6.08691 15.0477 5.79082C14.5955 5.49473 13.9637 5.77042 12.7001 6.32181L10.8002 7.15087C9.92677 7.53199 9.49007 7.72255 9.24503 8.09682C9 8.4711 9 8.94756 9 9.90049V12.4452C9 13.8238 9 14.5132 9.45225 14.8093C9.9045 15.1053 10.5363 14.8297 11.7999 14.2783L13.6998 13.4492C14.5732 13.0681 15.0099 12.8775 15.255 12.5032C15.5 12.129 15.5 11.6525 15.5 10.6996Z" stroke="white"/>
</g>
<defs>
<clipPath id="clip0_130_10960">
<rect width="18" height="18" fill="white"/>
</clipPath>
</defs>
</svg>
