<svg width="18" height="18" viewBox="0 0 18 18" fill="none" xmlns="http://www.w3.org/2000/svg">
<g clip-path="url(#clip0_130_10962)">
<path d="M8.04838 4.94694C8.44015 3.73372 8.63604 3.12711 9 3.12711C9.36396 3.12711 9.55985 3.73372 9.95162 4.94694L10.5263 6.72665C10.6342 7.06077 10.6882 7.22784 10.8197 7.3236C10.9513 7.41935 11.1268 7.41935 11.4779 7.41935L12.911 7.41935C14.1831 7.41935 14.8192 7.41935 14.9312 7.76536C15.0432 8.11136 14.5278 8.48412 13.4971 9.22963L12.214 10.1576C11.9299 10.3631 11.7878 10.4659 11.7373 10.6203C11.6868 10.7748 11.7407 10.9417 11.8485 11.2753L12.4356 13.0924C12.823 14.2916 13.0167 14.8911 12.7236 15.1043C12.4305 15.3175 11.9197 14.9485 10.8983 14.2104L9.58568 13.2619C9.30306 13.0577 9.16174 12.9556 9 12.9556C8.83826 12.9556 8.69694 13.0577 8.41432 13.2619L7.10167 14.2104C6.08025 14.9485 5.56955 15.3175 5.27641 15.1043C4.98327 14.8911 5.17699 14.2916 5.56442 13.0924L6.15151 11.2753C6.25932 10.9417 6.31322 10.7748 6.26271 10.6203C6.21219 10.4659 6.07012 10.3631 5.78599 10.1576L4.50295 9.22963C3.47217 8.48412 2.95679 8.11136 3.0688 7.76536C3.18081 7.41935 3.81687 7.41935 5.08899 7.41935L6.52207 7.41935C6.87319 7.41935 7.04875 7.41935 7.1803 7.3236C7.31184 7.22784 7.36579 7.06077 7.47369 6.72665L8.04838 4.94694Z" stroke="white" stroke-linecap="round" stroke-linejoin="round"/>
</g>
<defs>
<clipPath id="clip0_130_10962">
<rect width="18" height="18" fill="white"/>
</clipPath>
</defs>
</svg>
