<svg width="18" height="18" viewBox="0 0 18 18" fill="none" xmlns="http://www.w3.org/2000/svg">
<g clip-path="url(#clip0_130_10963)">
<path d="M15 9H3M12.4906 3.8C11.8057 2.91195 10.4992 2.5 9 2.5C6.79086 2.5 5 3.39453 5 5.38889C5 6.05319 5.13314 6.59547 5.4142 7.05C5.63062 7.39999 5.93475 7.69796 6.33333 7.95955C6.97114 8.37814 7.85081 8.70358 9 9C10.3763 9.35499 11.366 9.75161 12.0166 10.3C12.6897 10.8673 13 11.597 13 12.6111C13 14.6055 11.2091 15.5 9 15.5C7.60869 15.5 6.38328 15.1452 5.66667 14.3843" stroke="white" stroke-linecap="round"/>
</g>
<defs>
<clipPath id="clip0_130_10963">
<rect width="18" height="18" fill="white"/>
</clipPath>
</defs>
</svg>
