<svg width="18" height="18" viewBox="0 0 18 18" fill="none" xmlns="http://www.w3.org/2000/svg">
<path d="M4.06497 4.06474C4.24699 3.88272 4.50231 3.76225 4.982 3.69323C5.47591 3.62221 6.13018 3.61455 7.06879 3.60484L7.33119 3.60208C8.20135 3.59309 8.49549 3.59892 8.75369 3.70428C9.01194 3.80969 9.22639 4.01125 9.84197 4.62683L12.5074 7.29229C13.1841 7.96894 13.6549 8.44205 13.9631 8.846C14.2624 9.23828 14.3608 9.5063 14.3608 9.76717C14.3608 10.0281 14.2631 10.2967 13.9638 10.689C13.6556 11.0929 13.184 11.5655 12.5074 12.242L12.243 12.5065C11.5663 13.1832 11.0939 13.6546 10.6899 13.9629C10.2976 14.2622 10.029 14.3599 9.76809 14.3599C9.50715 14.3599 9.23863 14.2623 8.84622 13.9629C8.44228 13.6547 7.96986 13.1832 7.29321 12.5065L4.62775 9.84106C4.01217 9.22548 3.81061 9.01103 3.7052 8.75277C3.59987 8.49458 3.594 8.20047 3.603 7.33027L3.60507 7.06856C3.61478 6.1296 3.62308 5.47509 3.69415 4.98108C3.76314 4.50161 3.88308 4.24675 4.06497 4.06474Z" stroke="white" stroke-linecap="round"/>
<path d="M6.5617 5.43937C6.85459 5.73226 6.85459 6.20714 6.5617 6.50003C6.2688 6.79292 5.79393 6.79292 5.50104 6.50003C5.20814 6.20714 5.20814 5.73226 5.50104 5.43937C5.79393 5.14648 6.2688 5.14648 6.5617 5.43937Z" fill="white"/>
</svg>
