<svg width="18" height="18" viewBox="0 0 18 18" fill="none" xmlns="http://www.w3.org/2000/svg">
<g clip-path="url(#clip0_130_10972)">
<path d="M4.5 6.5L5.30232 13.7209C5.39635 14.5671 5.44336 14.9903 5.72812 15.2451C6.01288 15.5 6.43862 15.5 7.29009 15.5H10.7099C11.5614 15.5 11.9871 15.5 12.2719 15.2451C12.5566 14.9903 12.6037 14.5671 12.6977 13.7209L13.5 6.5" stroke="white" stroke-linecap="round" stroke-linejoin="round"/>
<path d="M7 4.5C7 3.55719 7 3.08579 7.29289 2.79289C7.58579 2.5 8.05719 2.5 9 2.5C9.94281 2.5 10.4142 2.5 10.7071 2.79289C11 3.08579 11 3.55719 11 4.5M14 4.5H4" stroke="white" stroke-linecap="round" stroke-linejoin="round"/>
</g>
<defs>
<clipPath id="clip0_130_10972">
<rect width="18" height="18" fill="white"/>
</clipPath>
</defs>
</svg>
