<svg width="18" height="18" viewBox="0 0 18 18" fill="none" xmlns="http://www.w3.org/2000/svg">
<g clip-path="url(#clip0_130_10853)">
<path d="M2 9H4.8H6.01255C6.26647 9 6.39343 9 6.5148 9.03088C6.53128 9.03508 6.54765 9.03969 6.5639 9.04472C6.68353 9.08176 6.79181 9.14805 7.00837 9.28063C7.92928 9.84446 8.38974 10.1264 8.89801 10.1523C8.96596 10.1558 9.03404 10.1558 9.10199 10.1523C9.61026 10.1264 10.0707 9.84446 10.9916 9.28063C11.2082 9.14805 11.3165 9.08176 11.4361 9.04472C11.4523 9.03969 11.4687 9.03508 11.4852 9.03088C11.6066 9 11.7335 9 11.9875 9H13.2H16V12C16 12.9428 16 13.4142 15.7071 13.7071C15.4142 14 14.9428 14 14 14H4C3.05719 14 2.58579 14 2.29289 13.7071C2 13.4142 2 12.9428 2 12V9Z" stroke="white"/>
<path d="M2 10.5V8.32843C2 7.91968 2 7.7153 2.07612 7.53153C2.15224 7.34776 2.29676 7.20324 2.58579 6.91421L4.91421 4.58579C5.20324 4.29676 5.34776 4.15224 5.53153 4.07612C5.7153 4 5.91968 4 6.32843 4H11.6716C12.0803 4 12.2847 4 12.4685 4.07612C12.6522 4.15224 12.7968 4.29676 13.0858 4.58579L15.4142 6.91421C15.7032 7.20324 15.8478 7.34776 15.9239 7.53153C16 7.7153 16 7.91968 16 8.32843V10.5" stroke="white"/>
</g>
<defs>
<clipPath id="clip0_130_10853">
<rect width="18" height="18" fill="white"/>
</clipPath>
</defs>
</svg>
