<svg width="18" height="18" viewBox="0 0 18 18" fill="none" xmlns="http://www.w3.org/2000/svg">
<g clip-path="url(#clip0_130_10854)">
<path d="M5.5 11.1H2.5V7H4.8H6.01887C6.28293 7 6.41496 7 6.5411 7.0335C6.66725 7.067 6.78215 7.13266 7.01196 7.26398C7.98323 7.81899 8.46887 8.0965 9 8.0965C9.53113 8.0965 10.0168 7.81899 10.988 7.26398C11.2178 7.13266 11.3327 7.067 11.4589 7.0335C11.585 7 11.7171 7 11.9811 7H13.2H15.5V11.1H12.5" stroke="white"/>
<path d="M2.5 11.1H4.8H6.01887C6.28293 11.1 6.41496 11.1 6.5411 11.1335C6.66725 11.167 6.78215 11.2326 7.01196 11.364C7.98323 11.919 8.46887 12.1965 9 12.1965C9.53113 12.1965 10.0168 11.919 10.988 11.364C11.2178 11.2326 11.3327 11.167 11.4589 11.1335C11.585 11.1 11.7171 11.1 11.9811 11.1H13.2H15.5V13.5C15.5 14.4428 15.5 14.9142 15.2071 15.2071C14.9142 15.5 14.4428 15.5 13.5 15.5H4.5C3.55719 15.5 3.08579 15.5 2.79289 15.2071C2.5 14.9142 2.5 14.4428 2.5 13.5L2.5 11.1Z" stroke="white"/>
<path d="M2.5 7V5.57037C2.5 5.0464 2.5 4.78442 2.61833 4.56333C2.73665 4.34223 2.95463 4.19691 3.3906 3.90627L4.99615 2.8359C5.24623 2.66918 5.37128 2.58582 5.51299 2.54291C5.65471 2.5 5.80499 2.5 6.10555 2.5H11.8944C12.195 2.5 12.3453 2.5 12.487 2.54291C12.6287 2.58582 12.7538 2.66918 13.0038 2.8359L14.6094 3.90627C15.0454 4.19691 15.2633 4.34223 15.3817 4.56333C15.5 4.78442 15.5 5.0464 15.5 5.57037V7" stroke="white"/>
</g>
<defs>
<clipPath id="clip0_130_10854">
<rect width="18" height="18" fill="white"/>
</clipPath>
</defs>
</svg>
