<svg width="18" height="18" viewBox="0 0 18 18" fill="none" xmlns="http://www.w3.org/2000/svg">
<g clip-path="url(#clip0_130_10974)">
<path d="M2.5 9H4.8H6.01255C6.26647 9 6.39343 9 6.5148 9.03088C6.53128 9.03508 6.54765 9.03969 6.5639 9.04472C6.68353 9.08176 6.79181 9.14805 7.00837 9.28063C7.92928 9.84446 8.38974 10.1264 8.89801 10.1523C8.96596 10.1558 9.03404 10.1558 9.10199 10.1523C9.61026 10.1264 10.0707 9.84446 10.9916 9.28063C11.2082 9.14805 11.3165 9.08176 11.4361 9.04472C11.4523 9.03969 11.4687 9.03508 11.4852 9.03088C11.6066 9 11.7335 9 11.9875 9H13.2H15.5V12.5C15.5 13.4428 15.5 13.9142 15.2071 14.2071C14.9142 14.5 14.4428 14.5 13.5 14.5H4.5C3.55719 14.5 3.08579 14.5 2.79289 14.2071C2.5 13.9142 2.5 13.4428 2.5 12.5V9Z" stroke="white"/>
<path d="M2.5 10.5V8.16667C2.5 7.83626 2.5 7.67106 2.55132 7.51711C2.60263 7.36316 2.70176 7.23099 2.9 6.96667L4.9 4.3C5.19443 3.90743 5.34164 3.71115 5.55279 3.60557C5.76393 3.5 6.00929 3.5 6.5 3.5H11.5C11.9907 3.5 12.2361 3.5 12.4472 3.60557C12.6584 3.71115 12.8056 3.90743 13.1 4.3L15.1 6.96667C15.2982 7.23099 15.3974 7.36316 15.4487 7.51711C15.5 7.67106 15.5 7.83626 15.5 8.16667V10.5" stroke="white"/>
</g>
<defs>
<clipPath id="clip0_130_10974">
<rect width="18" height="18" fill="white"/>
</clipPath>
</defs>
</svg>
