<svg width="895" height="698" viewBox="0 0 895 698" fill="none" xmlns="http://www.w3.org/2000/svg">
<path id="arena-outline" d="M543.978 299.3C539.378 299.6 535.678 299.9 530.278 300.3C560.878 338 590.578 374.5 620.578 411.5C618.578 413.4 616.378 415.6 613.978 417.6C600.978 428.3 587.978 439 574.878 449.5C572.478 451.4 569.478 452.7 566.478 453.5C551.778 457.7 536.978 461.7 522.178 465.6C518.178 466.6 513.978 467.3 509.878 467.3C466.678 467.4 423.578 467.5 380.378 467.1C373.178 467 365.978 464.7 358.978 462.8C346.878 459.7 334.878 456.2 322.978 452.6C320.478 451.9 317.878 450.7 315.978 449.1C302.178 437.8 288.578 426.2 274.878 414.8C273.878 414 272.678 413.3 271.178 412.3C301.978 374.6 331.978 337.8 362.378 300.6C358.178 300.2 354.278 299.9 349.378 299.4C351.278 296.9 352.578 294.9 354.078 293.1C376.878 265 399.778 237.1 422.478 208.9C424.078 206.9 425.078 203.9 425.178 201.3C425.378 179.8 425.178 158.3 425.378 136.8C425.378 132.3 424.078 131.2 419.678 131.2C367.878 131.3 315.978 131.3 264.178 131.2C262.278 131.2 259.478 130.8 258.578 129.5C256.678 126.6 258.778 123.8 262.478 123.8C271.478 123.7 280.478 123.8 289.478 123.9C296.178 123.9 296.278 123.9 296.278 116.9C296.278 80.1 296.378 43.2 296.178 6.40001C296.178 1.10001 297.778 0.100006 302.678 0.100006C398.678 0.200006 494.678 0.2 590.678 0C595.378 0 595.678 2.1 595.678 5.7C595.578 42 595.678 78.4 595.678 114.7C595.678 123.8 595.678 123.8 605.078 123.8C612.878 123.8 620.778 123.8 628.578 123.8C631.178 123.8 633.478 123.7 633.478 127.6C633.478 131.5 631.078 131.3 628.478 131.3C577.978 131.3 527.478 131.3 476.978 131.4C475.278 131.4 473.578 131.6 471.978 131.4C468.378 131 466.878 132.3 466.878 136.1C466.978 157.9 466.878 179.8 467.078 201.6C467.078 204 468.578 206.7 470.178 208.6C494.178 238.1 518.278 267.4 542.378 296.8C542.678 297.4 543.078 298.1 543.978 299.3ZM590.778 408.3C587.178 403.5 584.278 399.4 581.178 395.6C556.278 365 531.178 334.5 506.378 303.9C503.778 300.7 501.078 299.5 497.078 299.5C462.778 299.6 428.478 299.6 394.178 299.5C390.678 299.5 388.678 300.9 386.678 303.3C377.778 314.3 368.778 325.2 359.778 336.1C341.378 358.5 322.978 380.9 304.478 403.2C302.078 406.1 301.978 408.1 304.878 410.6C312.178 416.7 319.278 423 326.478 429.1C327.678 430.1 329.278 431 330.878 431.4C344.478 435.2 358.078 439.1 371.678 442.6C373.178 443 375.578 442.1 376.678 440.9C380.778 436.5 384.278 431.6 388.478 427.3C390.078 425.6 392.878 424.1 395.078 424.1C429.178 423.9 463.378 423.9 497.478 424.1C499.778 424.1 502.578 425.5 504.178 427.2C508.078 431.1 511.578 435.4 514.778 439.8C516.978 442.8 519.178 443.6 522.778 442.5C532.478 439.5 542.278 436.7 552.078 434.2C567.878 430.1 577.978 418 590.778 408.3Z" fill="#5E5E5E"/>
<path id="A19" d="M109.268 181.934C113.344 182.762 116.104 186.577 115.613 190.707C114.307 201.692 113.026 212.346 111.878 223C111.378 228.1 111.278 233.3 111.078 238.5C110.978 242.9 109.378 244.9 104.478 244.7C76.1783 243.9 47.8783 243.5 19.5783 242.9C14.5783 242.8 9.57833 242.5 4.57833 242.7C1.07833 242.8 -0.221673 241.6 0.0783268 238.1C1.27833 224.4 1.97832 210.6 3.47832 196.9C4.57832 187 6.47832 177.2 7.97832 167.4C8.52839 164.1 11.9477 162.128 15.2254 162.801C46.8041 169.279 78.1516 175.612 109.268 181.934Z" fill="#8A9348"/>
<path id="A20" d="M17.2781 155.663C12.6674 154.664 9.91651 149.912 11.35 145.417C18.0003 124.565 24.4971 104.321 31.0847 83.6581C32.5263 79.1363 37.5645 76.8536 41.9143 78.7521C71.5433 91.6839 100.345 104.205 128.883 116.628C132.634 118.261 134.548 122.46 133.324 126.363C128.706 141.088 124.178 155.648 119.561 170.487C118.327 174.453 114.263 176.815 110.206 175.925C79.7852 169.248 49.081 162.557 17.2781 155.663Z" fill="#8A9348"/>
<path id="A2" d="M883.788 161.615C884.65 161.568 885.674 162.405 885.812 163.258C887.671 174.757 889.931 186.086 891.179 197.6C892.579 210.3 892.879 223.1 893.779 235.9C894.079 240.6 892.779 242.6 887.479 242.7C855.079 243 822.579 243.6 790.179 244.5C784.979 244.6 783.679 242.6 783.279 238C781.779 221.5 779.979 205 778.279 188.5C777.979 185.4 778.179 183.3 782.079 182.5C815.697 175.737 849.414 168.676 883.034 161.811C883.389 161.739 883.426 161.635 883.788 161.615Z" fill="#8A9348"/>
<path id="A9" d="M517.678 587.1C516.84 583.745 519.183 580.465 522.49 579.452C536.035 575.303 549.045 571.297 562.052 567.368C562.202 567.323 562.362 567.305 562.511 567.256C562.684 567.198 562.872 567.167 563.044 567.106C573.779 563.301 573.816 563.39 578.378 574.4C590.378 603.2 602.278 632.1 614.378 660.8C615.678 664 615.378 665.7 612.078 666.8C593.778 672.8 575.478 678.8 557.178 684.7C552.878 686.1 548.378 686.6 544.178 688C539.378 689.6 537.678 687.9 536.778 683.3C534.178 669.6 531.178 656 528.478 642.3C524.778 623.9 521.178 605.5 517.678 587.1Z" fill="#8A9348"/>
<path id="A10" d="M450.079 642.8C450.079 626.1 450.179 609.5 449.979 592.8C449.979 589.1 451.179 587.9 454.679 587.5C471.879 585.6 488.979 583.5 506.079 581.4C508.879 581.1 509.879 582.3 510.379 584.9C513.579 601.4 516.979 617.8 520.279 634.2C523.779 651.6 527.179 669.1 530.879 686.5C531.479 689.3 531.079 690.5 528.079 690.9C512.779 692.8 497.479 695 482.179 696.6C473.279 697.5 464.279 697.3 455.279 697.9C451.379 698.1 450.079 696.9 450.079 692.8C450.279 676.1 450.179 659.5 450.079 642.8Z" fill="#8A9348"/>
<path id="A16" d="M129.323 383.08C133.149 381.505 137.544 383.108 139.459 386.776C146.675 400.596 153.803 414.233 161.019 427.996C162.926 431.633 161.772 436.123 158.346 438.388C132.665 455.361 106.625 472.551 80.3519 489.895C76.6659 492.328 71.6978 491.318 69.3385 487.584C57.5237 468.888 47.5196 449.555 38.6967 429.166C36.9422 425.112 38.8874 420.429 42.9693 418.739C71.9698 406.732 100.691 394.866 129.323 383.08Z" fill="#8A9348"/>
<path id="A15" d="M80.6787 505.1C78.5431 502.074 79.5961 497.894 82.6809 495.845C109.177 478.245 135.526 460.789 161.793 443.343C165.24 441.053 169.864 441.77 172.458 444.993C182.122 457.003 191.756 468.931 201.537 481C204.117 484.183 203.878 488.801 200.981 491.698C198.898 493.781 196.753 495.926 194.579 498.1C173.879 518.5 153.079 538.9 132.479 559.5C129.279 562.7 127.579 562.5 124.579 559.4C108.379 542.5 93.6787 524.5 80.6787 505.1Z" fill="#8A9348"/>
<path id="A12" d="M317.179 571.052C318.758 567.184 323.048 565.186 327.019 566.483C334.919 569.065 342.369 571.532 349.878 573.7C357.378 575.9 364.978 577.7 372.578 579.2C376.978 580.1 378.078 582.1 377.178 586.1C373.778 602.9 370.378 619.7 367.078 636.5C363.878 652.5 360.478 668.4 357.578 684.4C356.878 688.4 355.378 689.5 351.678 688.6C327.478 682.7 303.478 675.7 280.378 666.4C279.402 665.912 279.168 664.586 279.579 663.575C292.031 632.898 304.488 602.134 317.179 571.052Z" fill="#8A9348"/>
<path id="A5" d="M825.639 487.524C823.203 491.339 818.066 492.401 814.304 489.884C807.629 485.417 801.204 481.159 794.778 476.9C774.978 463.8 755.078 450.6 735.178 437.6C731.778 435.4 730.078 433.1 732.578 429C736.078 423.1 739.478 417.1 742.678 411.1C747.278 402.2 751.778 393.3 755.878 384.3C757.378 381.1 758.778 380.5 761.878 381.8C792.878 394.8 823.778 407.7 854.878 420.5C858.478 422 858.978 423.8 857.378 426.9C848.478 444.4 839.578 461.9 830.478 479.3C829.081 482.04 827.433 484.717 825.639 487.524Z" fill="#8A9348"/>
<path id="A3" d="M786.436 311.449C782.465 310.678 779.693 307.065 779.983 303.031C781.135 287.056 782.332 271.29 783.378 255.6C783.678 251.4 785.778 250.8 789.178 250.8C811.378 250.6 833.478 250.2 855.678 249.9C866.878 249.7 877.978 249.6 889.178 249.1C893.478 248.9 894.778 250.5 894.378 254.5C892.178 276.7 890.378 298.9 887.878 321C886.678 331 886.078 330.9 876.078 328.9C846.118 323.056 816.157 317.213 786.436 311.449Z" fill="#8A9348"/>
<path id="A1" d="M760.867 125.851C759.676 121.951 761.613 117.782 765.357 116.167C776.801 111.229 788.54 106.114 800.278 100.999C817.678 93.3994 834.978 85.8994 852.378 78.2994C856.978 76.2994 859.978 77.4994 861.278 82.2994C862.078 85.0994 868.378 101.499 868.878 103.199C873.778 118.899 878.478 134.599 883.178 150.399C883.878 152.699 883.378 153.999 880.578 154.599C856.178 159.799 831.878 165.199 807.578 170.499C798.778 172.399 789.978 174.099 781.278 175.999C778.678 176.599 776.478 177.099 775.478 173.599C770.662 157.75 765.77 141.901 760.867 125.851Z" fill="#8A9348"/>
<path id="A7" d="M756.194 563.093C759.366 566.464 759.07 571.818 755.525 574.794C742.879 585.411 729.901 596.378 716.779 607.2C712.079 611.1 706.879 614.5 701.879 618.2C699.479 620 697.879 619.7 696.179 617.1C677.879 588.9 659.579 560.7 641.179 532.6C638.879 529.1 639.779 527.3 642.779 524.9C655.479 514.6 667.979 504.2 680.379 493.7C683.279 491.2 685.079 491.7 687.479 494C704.279 510.6 721.179 527.1 737.879 543.8C743.902 549.9 749.746 556.239 756.194 563.093Z" fill="#8A9348"/>
<path id="A13" d="M274.979 656.5C273.666 660.252 269.086 661.744 265.494 660.043C256.066 655.578 246.808 651.352 237.879 646.4C226.679 640.2 216.079 633 205.079 626.3C202.279 624.6 201.479 622.8 203.479 619.8C222.479 591.3 241.379 562.7 260.279 534.1C260.828 533.368 261.929 533.331 262.711 533.807C269.056 537.672 275.336 541.735 281.879 545.1C291.179 549.9 300.679 554.4 310.279 558.4C314.179 560.1 314.079 561.9 312.779 565.2C306.179 581 299.679 596.9 293.179 612.7C287.179 627.3 281.079 641.9 274.979 656.5Z" fill="#8A9348"/>
<path id="A8" d="M688.796 617.541C691.33 621.414 690.058 626.624 686.029 628.903C672.748 636.416 659.984 643.715 647.079 650.8C640.679 654.3 633.879 657.1 627.279 660.3C623.579 662.1 621.379 661.5 619.679 657.3C607.979 628.5 595.979 599.8 584.079 571.1C583.629 570.007 583.189 568.925 582.757 567.853C581.229 564.068 582.798 559.732 586.391 557.796C599.752 550.599 613.059 543.469 626.709 536.098C630.367 534.122 634.931 535.273 637.21 538.751C654.03 564.414 671.099 590.489 688.796 617.541Z" fill="#8A9348"/>
<path id="A14" d="M133.374 568.194C132.806 567.108 132.874 565.744 133.767 564.904C142.059 557.114 150.502 549.395 158.679 541.5C174.679 526 190.679 510.4 206.479 494.6C209.979 491.1 211.879 491.6 215.379 494.7C227.279 505.1 239.379 515.3 251.779 525C255.779 528.1 255.779 530 253.279 533.7C238.479 555.6 223.879 577.7 209.179 599.7C205.379 605.4 201.479 611 197.679 616.7C195.979 619.3 194.179 619.6 191.479 617.7C170.979 603.3 152.279 586.9 134.279 569.6C134.02 569.342 133.836 568.935 133.598 568.572C133.522 568.455 133.438 568.318 133.374 568.194Z" fill="#8A9348"/>
<path id="A18" d="M16.1577 329.533C11.5472 330.428 7.1593 327.179 6.6679 322.508C4.77315 304.499 2.88866 287.012 1.07847 269.6C0.578468 264.6 0.578468 259.6 0.0784676 254.7C-0.421532 250.4 1.47846 249.4 5.47846 249.5C27.2785 250 49.0785 250.3 70.8785 250.5C82.3785 250.6 93.8785 250.6 105.378 250.4C108.978 250.3 110.078 251.3 110.378 255.1C111.678 271.7 113.479 288.2 115.078 304.7C115.45 308.048 112.686 310.957 109.377 311.589C78.4891 317.493 47.6994 323.409 16.1577 329.533Z" fill="#8A9348"/>
<path id="A17" d="M132.979 370.4C133.965 372.537 132.647 374.967 130.467 375.857C111.485 383.603 92.8317 391.107 74.1786 398.7C61.9786 403.7 49.8786 408.7 37.8786 413.9C34.2786 415.5 32.7786 415 31.1786 411.2C21.8786 388.5 15.5786 364.9 10.0786 341.1C9.17858 337.4 11.6786 337 14.1786 336.5C27.6786 333.9 41.2786 331.4 54.7786 328.6C73.4786 324.9 92.2786 321.1 110.879 317.1C115.179 316.2 116.579 316.7 117.879 321.4C122.479 337.9 127.879 354.1 132.979 370.4Z" fill="#8A9348"/>
<path id="A11" d="M382.824 589.496C383.643 585.384 387.499 582.607 391.656 583.162C397.877 583.993 404.002 584.825 410.178 585.4C419.978 586.3 429.778 587 439.578 587.3C443.278 587.4 444.278 588.4 444.278 592.2C444.078 609 444.178 625.8 444.178 642.7C444.178 658.229 444.178 673.758 444.178 689.728C444.178 694.135 440.614 697.72 436.207 697.662C414.066 697.369 392.539 695.508 370.789 691.975C366.379 691.259 363.487 687.009 364.352 682.625C370.53 651.331 376.645 620.499 382.824 589.496Z" fill="#8A9348"/>
<path id="A4" d="M762.878 375.1C761.821 374.747 761.408 373.421 761.725 372.352C766.562 355.995 771.401 339.9 776.304 323.395C777.481 319.433 781.48 317.015 785.535 317.818C815.799 323.813 846.298 329.818 877.22 335.959C881.711 336.85 884.544 341.326 883.492 345.782C881.971 352.218 880.575 358.334 878.878 364.2C874.678 378.4 869.979 392.4 865.479 406.5C863.479 412.7 859.678 414.6 853.878 412.3C823.578 399.9 793.178 387.5 762.878 375.1Z" fill="#8A9348"/>
<path id="A6" d="M771.95 558.301C768.871 561.568 763.7 561.555 760.571 558.336C747.189 544.567 734.46 531.345 721.579 518.2C711.979 508.4 702.379 498.6 692.579 489C689.579 486.1 689.678 484.2 692.378 481.2C701.878 470.5 711.078 459.6 720.378 448.7C720.749 448.145 721.17 447.618 721.547 447.067C726.789 439.4 727.076 439.496 735.579 445.1C761.079 462 786.579 479 812.079 496C815.134 497.977 815.925 502.158 813.926 505.199C801.634 523.896 787.959 541.317 771.95 558.301Z" fill="#8A9348"/>
<path id="S8" d="M726.072 404.972C723.932 409.063 718.762 410.439 714.839 408.005C699.637 398.572 684.681 389.324 670.015 380.308C666.57 378.19 665.244 373.835 666.929 370.158C672.566 357.859 678.142 345.729 683.947 333.148C685.625 329.512 689.733 327.678 693.561 328.857C709.825 333.863 726.433 338.985 743.243 344.174C747.422 345.464 749.803 349.876 748.43 354.028C742.592 371.68 734.798 388.29 726.072 404.972Z" fill="#FF8C8B"/>
<path id="S5" d="M759.051 175.132C760.553 179.688 757.736 184.535 753.032 185.479C734.122 189.274 716.438 192.774 698.678 196.5C693.778 197.5 691.978 196.2 690.578 191.1C687.232 178.231 683.224 165.435 679.248 152.272C678.107 148.493 679.912 144.455 683.482 142.77C699.061 135.42 714.939 127.974 731.576 120.156C735.931 118.109 741.096 120.341 742.589 124.916C748.083 141.752 753.501 158.296 759.051 175.132Z" fill="#FF8C8B"/>
<path id="S7" d="M695.494 321.436C691.74 320.264 689.397 316.536 689.969 312.645C692.116 298.05 694.197 284.163 696.278 270.2C696.678 267.4 697.878 266.2 700.878 266.4C721.278 267.4 741.778 268.4 762.178 269.3C765.778 269.5 765.678 271.8 765.378 274.1C763.678 286.8 762.079 299.4 759.979 312C758.921 318.344 757.416 324.589 755.85 331.155C754.766 335.7 750.059 338.413 745.597 337.027C728.561 331.733 711.875 326.552 695.494 321.436Z" fill="#FF8C8B"/>
<path id="S6" d="M753.015 193.3C757.509 192.43 761.827 195.5 762.523 200.025C763.659 207.409 764.74 214.378 765.178 221.4C766.078 233.7 765.978 246 766.378 258.3C766.478 261.6 765.478 262.5 761.978 262.1C754.078 261.3 746.078 260.9 738.078 260.6C726.278 260 714.478 259.5 702.678 259.1C698.578 259 697.378 257.1 697.178 253.3C696.278 238.6 695.078 223.8 694.278 209.1C694.178 207.6 695.478 204.9 696.478 204.6C715.123 200.661 733.767 197.029 753.015 193.3Z" fill="#FF8C8B"/>
<path id="S4" d="M223.608 369.125C225.259 372.773 223.94 377.074 220.538 379.185C204.597 389.078 188.577 399.049 172.479 409.1C169.879 410.7 167.679 411.6 166.079 407.9C157.779 388.5 149.479 369.2 141.179 349.8C140.488 348.188 141.744 346.386 143.41 345.838C147.906 344.359 152.358 342.879 156.879 341.4C171.079 336.8 185.379 332.3 199.479 327.5C203.379 326.2 204.979 326.8 206.679 330.9C211.921 343.62 217.755 356.192 223.608 369.125Z" fill="#FF8C8B"/>
<path id="S3" d="M140.246 338.794C138.926 338.749 137.627 337.878 137.286 336.602C132.052 317.049 127.967 297.549 126.229 277.533C125.855 273.228 129.092 269.447 133.391 269.018C135.194 268.838 136.978 268.684 138.779 268.6C155.379 267.8 172.079 267.3 188.679 266.5C192.079 266.3 193.679 267.2 194.279 270.9C196.679 285.6 199.379 300.3 202.079 315C202.579 317.7 202.379 319.4 199.479 320.3C179.914 326.358 160.449 332.515 140.984 338.672C140.715 338.757 140.528 338.803 140.246 338.794Z" fill="#FF8C8B"/>
<path id="S2" d="M128.81 200.271C129.468 195.653 133.886 192.488 138.458 193.411C155.873 196.927 172.911 200.369 189.436 203.647C193.357 204.424 196.106 207.974 195.871 211.964C195.01 226.628 194.17 240.701 193.478 254.7C193.378 257.7 192.279 258.7 189.379 258.9C181.579 259.3 173.778 260.2 165.978 260.6C154.878 261.1 143.679 261.4 132.579 261.6C125.879 261.8 125.179 261.6 125.379 254.7C125.679 240.4 126.578 226.2 127.478 211.9C127.716 208.094 128.237 204.287 128.81 200.271Z" fill="#FF8C8B"/>
<path id="S1" d="M207.828 142.563C211.549 144.289 213.353 148.546 212.017 152.423C210.841 155.837 209.754 159.068 208.778 162.3C205.578 173 202.478 183.6 199.678 194.4C198.978 197.1 197.978 198 195.278 197.5C174.978 193.2 154.678 189 134.278 184.8C133.068 184.598 132.442 183.22 132.681 182.016C136.538 162.551 143.029 143.991 150.541 125.221C152.23 121 157.119 119.084 161.247 120.989C176.734 128.135 192.155 135.297 207.828 142.563Z" fill="#FF8C8B"/>
<path id="VIP3" d="M565.179 167.501C565.168 167.479 565.191 167.5 565.216 167.5C589.504 167.5 613.891 167.6 638.178 167.4C641.378 167.4 642.578 168.7 643.578 171.3C649.578 186.6 653.378 202.4 655.378 218.6C658.578 244.6 658.278 270.4 652.578 296.1C648.278 315.4 641.478 333.7 630.978 350.6C628.678 354.3 626.678 355.1 623.178 352.8C621.678 351.8 619.878 351.2 618.178 350.6C605.678 346.2 595.678 338.8 587.278 328.2C564.178 299.1 540.278 270.7 516.778 241.9C507.678 230.8 498.478 219.8 489.678 208.5C487.778 206 486.678 202.2 486.578 199C486.178 191 486.578 183 486.678 175C486.778 167.8 486.778 167.7 493.778 167.7C517.516 167.7 541.354 167.7 565.093 167.7C565.178 167.7 565.217 167.577 565.179 167.501Z" fill="#6171D2"/>
<path id="VIP1" d="M270.749 351.513C267.197 353.229 262.895 352.122 260.796 348.782C250.903 333.039 244.578 316.326 240.479 298.5C230.679 256.4 232.879 215 246.879 174.2C248.479 169.5 250.479 167.5 255.979 167.5C303.779 167.7 351.579 167.6 399.379 167.5C405.679 167.5 405.779 167.6 405.679 174C405.679 182.5 405.879 191 405.579 199.5C405.479 202.1 404.579 205.1 402.979 207.1C368.479 249.5 333.979 291.8 299.279 333.9C296.379 337.5 292.179 340.3 288.179 342.6C282.508 345.808 276.726 348.627 270.749 351.513Z" fill="#6171D2"/>
<path id="R1" d="M258.466 507.712C257.111 509.074 254.869 509.414 253.44 508.13C238.961 495.121 224.833 482.34 210.1 469.057C206.53 465.838 206.581 460.22 210.209 457.067C224.055 445.035 237.412 433.396 250.921 421.646C254.019 418.951 258.65 419.047 261.629 421.873C264.712 424.798 267.734 427.64 270.878 430.4C278.478 437.1 286.278 443.7 294.078 450.2C296.078 451.9 297.378 453.2 295.378 455.9C283.134 473.023 270.889 490.145 258.743 507.367C258.633 507.522 258.6 507.578 258.466 507.712Z" fill="#7754C7"/>
<path id="R3" d="M340.377 553.696C336.135 552.218 333.975 547.436 335.551 543.23C341.913 526.243 348.208 509.46 354.388 493.022C355.81 489.24 359.828 487.113 363.754 488.068C377.134 491.322 390.129 494.536 403.395 497.79C407.366 498.764 409.967 502.573 409.417 506.625C408.007 517.014 406.543 527.524 405.078 538.1C403.978 546.3 402.378 554.5 401.778 562.8C401.378 567.4 399.478 568.2 395.778 567.3C378.878 563.3 361.878 559.2 344.978 555.1C343.423 554.711 341.912 554.231 340.377 553.696Z" fill="#7754C7"/>
<path id="R2" d="M344.205 480.807C347.734 482.747 349.272 487.007 347.795 490.753C341.385 507.011 334.854 523.564 328.202 540.367C326.546 544.55 321.762 546.551 317.646 544.733C300.872 537.322 284.799 529.205 269.666 518.492C266.201 516.04 265.454 511.26 267.85 507.756C277.999 492.915 288.073 478.156 297.977 463.621C300.302 460.208 304.842 459.126 308.457 461.121C320.461 467.744 332.254 474.238 344.205 480.807Z" fill="#7754C7"/>
<path id="R6" d="M622.835 506.93C625.461 510.712 624.369 515.932 620.473 518.385C614.256 522.3 608.349 526.061 602.178 529.4C591.378 535.2 580.178 540.3 569.178 545.8C566.878 546.9 565.178 547 564.078 544.1C557.206 526.071 550.254 508.121 543.293 490.18C541.851 486.463 543.365 482.252 546.844 480.306C558.568 473.748 570.115 467.306 582.058 460.695C585.647 458.708 590.157 459.762 592.494 463.134C602.357 477.362 612.378 491.868 622.835 506.93Z" fill="#7754C7"/>
<path id="R5" d="M497.716 566.027C493.345 566.694 489.364 563.537 488.849 559.144C486.738 541.121 484.627 523.476 482.515 505.876C482.037 501.886 484.592 498.159 488.489 497.175C501.466 493.896 514.165 490.739 527.195 487.462C531.165 486.463 535.251 488.617 536.666 492.459C542.74 508.957 548.888 525.6 555.203 542.577C556.775 546.806 554.548 551.506 550.259 552.904C533.011 558.527 515.803 563.268 497.716 566.027Z" fill="#7754C7"/>
<path id="R4" d="M464.845 500.214C469.112 499.857 472.859 502.954 473.342 507.209C475.342 524.84 477.296 542.097 479.296 559.726C479.786 564.047 476.736 567.983 472.409 568.424C454.287 570.272 436.393 569.98 418.214 568.524C413.745 568.166 410.512 564.141 411.044 559.689C412.519 547.345 413.982 535.289 415.378 523.3C416.178 516.7 417.178 510.1 417.778 503.5C418.078 500.4 419.378 499.6 422.278 499.8C432.378 500.3 442.578 500.8 452.678 500.8C456.658 500.863 460.638 500.567 464.845 500.214Z" fill="#7754C7"/>
<path id="R7" d="M629.414 422.093C632.429 419.461 636.925 419.464 639.937 422.098C654.103 434.487 668.33 446.964 682.478 459.6C683.378 460.4 683.778 463.6 683.078 464.4C670.049 478.926 655.702 492.057 639.969 504.066C636.428 506.769 631.373 505.932 628.806 502.292C624.376 496.013 620.055 489.857 615.678 483.7C609.378 474.7 602.978 465.7 596.978 456.6C596.078 455.2 595.678 452 596.578 451.2C607.243 441.489 618.058 432.004 629.414 422.093Z" fill="#7754C7"/>
<path id="VIP2" d="M372.465 415.694C369.689 418.71 365.094 419.122 361.826 416.647C357.244 413.178 352.761 409.764 348.378 406.3C347.678 405.8 347.478 404.6 347.078 403.7C346.956 403.457 346.983 403.14 347 402.816C347.021 402.405 346.969 401.981 346.951 401.57C346.079 381.398 346.212 381.237 359.178 365.4C369.978 352.1 380.678 338.7 391.278 325.2C393.678 322.2 396.178 320.9 400.078 320.9C430.878 321.1 461.678 321.1 492.578 320.9C496.678 320.9 499.278 322.2 501.778 325.4C515.378 343.1 529.078 360.7 542.678 378.4C543.878 380 544.678 382.2 544.778 384.2C545.678 404 545.578 404 530.478 416.7C525.078 421.3 524.578 421.6 520.678 416C514.778 407.3 507.278 404.7 496.778 404.9C460.278 405.5 423.778 404.9 387.378 405C384.878 405 381.878 406.3 379.978 408C377.364 410.432 374.934 413.012 372.465 415.694Z" fill="#6171D2"/>
<path d="M393.775 52.3906C393.494 49.4844 391.009 47.7969 387.353 47.7969C383.509 47.7969 381.166 49.6719 381.166 52.2031C381.166 55.0625 384.166 56.2344 386.978 56.8906L390.166 57.7344C395.228 58.9062 400.103 61.5781 400.103 67.4844C400.103 73.4375 395.416 77.5156 387.259 77.5156C379.338 77.5156 374.369 73.7188 374.088 67.0156H380.088C380.369 70.5781 383.369 72.3125 387.213 72.3125C391.244 72.3125 394.009 70.3438 394.009 67.4375C394.009 64.7656 391.525 63.6406 387.869 62.7031L384.025 61.7188C378.447 60.2656 374.978 57.4531 374.978 52.5781C374.978 46.5781 380.322 42.5938 387.447 42.5938C394.666 42.5938 399.541 46.6719 399.634 52.3906H393.775ZM402.466 48.1719V43.0625H429.513V48.1719H419.059V77H412.966V48.1719H402.466ZM433.281 77H426.766L438.719 43.0625H446.219L458.219 77H451.703L448.891 68.6094H436.094L433.281 77ZM437.734 63.6875H447.25L442.609 50H442.328L437.734 63.6875ZM482.191 53.8906C481.113 50.2812 478.3 48.0781 474.175 48.0781C468.691 48.0781 464.753 52.3438 464.753 59.9844C464.753 67.7188 468.644 71.9844 474.316 71.9844C479.425 71.9844 482.706 68.8906 482.8 64.0625H474.925V59.2344H488.706V63.3125C488.706 72.0312 482.706 77.4688 474.316 77.4688C464.941 77.4688 458.613 70.8125 458.613 60.0312C458.613 49.1562 465.222 42.5938 474.128 42.5938C481.628 42.5938 487.394 47.2344 488.425 53.8906H482.191ZM493.037 77V43.0625H515.116V48.1719H499.131V57.4531H513.944V62.5625H499.131V71.8438H515.209V77H493.037Z" fill="white"/>
<path d="M817.164 139H814.449L819.43 124.859H822.555L827.555 139H824.84L823.668 135.504H818.336L817.164 139ZM819.02 133.453H822.984L821.051 127.75H820.934L819.02 133.453ZM833.676 124.859V139H831.117V127.34H831.039L827.738 129.449V127.125L831.234 124.859H833.676Z" fill="white"/>
<path d="M717.443 157.746C717.326 156.535 716.291 155.832 714.768 155.832C713.166 155.832 712.189 156.613 712.189 157.668C712.189 158.859 713.439 159.348 714.611 159.621L715.939 159.973C718.049 160.461 720.08 161.574 720.08 164.035C720.08 166.516 718.127 168.215 714.729 168.215C711.428 168.215 709.357 166.633 709.24 163.84H711.74C711.857 165.324 713.107 166.047 714.709 166.047C716.389 166.047 717.541 165.227 717.541 164.016C717.541 162.902 716.506 162.434 714.982 162.043L713.381 161.633C711.057 161.027 709.611 159.855 709.611 157.824C709.611 155.324 711.838 153.664 714.807 153.664C717.814 153.664 719.846 155.363 719.885 157.746H717.443ZM727.295 153.859V168H724.736V156.34H724.658L721.357 158.449V156.125L724.854 153.859H727.295Z" fill="white"/>
<path d="M629.729 470V455.859H635.041C638.283 455.859 640.021 457.676 640.021 460.371C640.021 462.295 639.143 463.721 637.482 464.395L640.529 470H637.697L634.924 464.824H632.268V470H629.729ZM632.268 462.695H634.65C636.564 462.695 637.424 461.875 637.424 460.371C637.424 458.867 636.564 457.988 634.65 457.988H632.268V462.695ZM647.314 455.859V470H644.756V458.34H644.678L641.377 460.449V458.125L644.873 455.859H647.314Z" fill="white"/>
<path d="M572.793 510V495.859H578.105C581.348 495.859 583.086 497.676 583.086 500.371C583.086 502.295 582.207 503.721 580.547 504.395L583.594 510H580.762L577.988 504.824H575.332V510H572.793ZM575.332 502.695H577.715C579.629 502.695 580.488 501.875 580.488 500.371C580.488 498.867 579.629 497.988 577.715 497.988H575.332V502.695ZM584.637 510V508.164L589.637 503.34C591.062 501.914 591.805 501.074 591.805 499.883C591.805 498.574 590.77 497.734 589.383 497.734C587.918 497.734 586.98 498.652 587 500.078H584.578C584.559 497.402 586.57 495.664 589.402 495.664C592.293 495.664 594.246 497.383 594.246 499.766C594.246 501.367 593.465 502.656 590.691 505.273L588.172 507.773V507.871H594.461V510H584.637Z" fill="white"/>
<path d="M507.5 535V520.859H512.812C516.055 520.859 517.793 522.676 517.793 525.371C517.793 527.295 516.914 528.721 515.254 529.395L518.301 535H515.469L512.695 529.824H510.039V535H507.5ZM510.039 527.695H512.422C514.336 527.695 515.195 526.875 515.195 525.371C515.195 523.867 514.336 522.988 512.422 522.988H510.039V527.695ZM524.48 535.195C521.453 535.195 519.305 533.555 519.246 531.172H521.805C521.883 532.305 523.016 533.047 524.48 533.047C526.043 533.047 527.156 532.188 527.156 530.938C527.156 529.668 526.062 528.75 524.227 528.75H522.957V526.797H524.227C525.73 526.797 526.785 525.957 526.766 524.727C526.785 523.535 525.887 522.734 524.5 522.734C523.172 522.734 522.02 523.477 521.98 524.668H519.539C519.598 522.285 521.746 520.664 524.52 520.664C527.391 520.664 529.246 522.422 529.227 524.59C529.246 526.172 528.191 527.324 526.648 527.637V527.754C528.641 528.027 529.773 529.297 529.754 531.074C529.773 533.457 527.547 535.195 524.48 535.195Z" fill="white"/>
<path d="M429.215 355.859L432.887 367.012H433.043L436.734 355.859H439.527L434.527 370H431.402L426.422 355.859H429.215ZM443.246 355.859V370H440.707V355.859H443.246ZM445.383 370V355.859H450.695C453.938 355.859 455.676 357.832 455.676 360.547C455.676 363.262 453.918 365.215 450.656 365.215H447.922V370H445.383ZM447.922 363.125H450.305C452.219 363.125 453.078 362.051 453.078 360.547C453.078 359.023 452.219 357.988 450.305 357.988H447.922V363.125ZM457.09 370V368.164L462.09 363.34C463.516 361.914 464.258 361.074 464.258 359.883C464.258 358.574 463.223 357.734 461.836 357.734C460.371 357.734 459.434 358.652 459.453 360.078H457.031C457.012 357.402 459.023 355.664 461.855 355.664C464.746 355.664 466.699 357.383 466.699 359.766C466.699 361.367 465.918 362.656 463.145 365.273L460.625 367.773V367.871H466.914V370H457.09Z" fill="white"/>
<path d="M578.65 222.859L582.322 234.012H582.479L586.17 222.859H588.963L583.963 237H580.838L575.857 222.859H578.65ZM592.682 222.859V237H590.143V222.859H592.682ZM594.818 237V222.859H600.131C603.373 222.859 605.111 224.832 605.111 227.547C605.111 230.262 603.354 232.215 600.092 232.215H597.357V237H594.818ZM597.357 230.125H599.74C601.654 230.125 602.514 229.051 602.514 227.547C602.514 226.023 601.654 224.988 599.74 224.988H597.357V230.125ZM612.268 222.859V237H609.709V225.34H609.631L606.33 227.449V225.125L609.826 222.859H612.268Z" fill="white"/>
<path d="M288.422 222.859L292.094 234.012H292.25L295.941 222.859H298.734L293.734 237H290.609L285.629 222.859H288.422ZM302.453 222.859V237H299.914V222.859H302.453ZM304.59 237V222.859H309.902C313.145 222.859 314.883 224.832 314.883 227.547C314.883 230.262 313.125 232.215 309.863 232.215H307.129V237H304.59ZM307.129 230.125H309.512C311.426 230.125 312.285 229.051 312.285 227.547C312.285 226.023 311.426 224.988 309.512 224.988H307.129V230.125ZM321.434 237.195C318.406 237.195 316.258 235.555 316.199 233.172H318.758C318.836 234.305 319.969 235.047 321.434 235.047C322.996 235.047 324.109 234.188 324.109 232.938C324.109 231.668 323.016 230.75 321.18 230.75H319.91V228.797H321.18C322.684 228.797 323.738 227.957 323.719 226.727C323.738 225.535 322.84 224.734 321.453 224.734C320.125 224.734 318.973 225.477 318.934 226.668H316.492C316.551 224.285 318.699 222.664 321.473 222.664C324.344 222.664 326.199 224.422 326.18 226.59C326.199 228.172 325.145 229.324 323.602 229.637V229.754C325.594 230.027 326.727 231.297 326.707 233.074C326.727 235.457 324.5 237.195 321.434 237.195Z" fill="white"/>
<path d="M435.363 543V528.859H440.676C443.918 528.859 445.656 530.676 445.656 533.371C445.656 535.295 444.777 536.721 443.117 537.395L446.164 543H443.332L440.559 537.824H437.902V543H435.363ZM437.902 535.695H440.285C442.199 535.695 443.059 534.875 443.059 533.371C443.059 531.867 442.199 530.988 440.285 530.988H437.902V535.695ZM446.953 540.363V538.332L453.066 528.859H456.23V538.273H458.086V540.363H456.23V543H453.809V540.363H446.953ZM449.551 538.273H453.848V531.75H453.691L449.551 538.176V538.273Z" fill="white"/>
<path d="M363.646 535V520.859H368.959C372.201 520.859 373.939 522.676 373.939 525.371C373.939 527.295 373.061 528.721 371.4 529.395L374.447 535H371.615L368.842 529.824H366.186V535H363.646ZM366.186 527.695H368.568C370.482 527.695 371.342 526.875 371.342 525.371C371.342 523.867 370.482 522.988 368.568 522.988H366.186V527.695ZM380.51 535.195C377.678 535.195 375.607 533.516 375.529 531.172H378.01C378.088 532.324 379.162 533.145 380.51 533.145C382.092 533.145 383.225 531.992 383.225 530.43C383.225 528.809 382.053 527.656 380.432 527.656C379.338 527.637 378.537 528.027 378.088 528.867H375.725L376.584 520.859H384.943V522.988H378.674L378.244 526.738H378.381C378.928 526.113 379.963 525.664 381.115 525.664C383.752 525.664 385.686 527.637 385.686 530.352C385.686 533.184 383.557 535.195 380.51 535.195Z" fill="white"/>
<path d="M298.49 510V495.859H303.803C307.045 495.859 308.783 497.676 308.783 500.371C308.783 502.295 307.904 503.721 306.244 504.395L309.291 510H306.459L303.686 504.824H301.029V510H298.49ZM301.029 502.695H303.412C305.326 502.695 306.186 501.875 306.186 500.371C306.186 498.867 305.326 497.988 303.412 497.988H301.029V502.695ZM315.627 510.195C312.873 510.176 310.1 508.535 310.119 503.32C310.119 498.477 312.326 495.664 315.783 495.664C318.518 495.664 320.393 497.383 320.705 499.668H318.186C317.932 498.594 317.072 497.871 315.783 497.871C313.732 497.871 312.58 499.688 312.58 502.656H312.717C313.439 501.445 314.807 500.723 316.35 500.723C318.889 500.723 320.842 502.637 320.842 505.312C320.842 508.125 318.752 510.215 315.627 510.195ZM315.627 508.145C317.209 508.145 318.381 506.914 318.381 505.371C318.381 503.867 317.229 502.656 315.666 502.656C314.084 502.656 312.873 503.906 312.854 505.391C312.873 506.875 314.025 508.145 315.627 508.145Z" fill="white"/>
<path d="M242.645 470V455.859H247.957C251.199 455.859 252.938 457.676 252.938 460.371C252.938 462.295 252.059 463.721 250.398 464.395L253.445 470H250.613L247.84 464.824H245.184V470H242.645ZM245.184 462.695H247.566C249.48 462.695 250.34 461.875 250.34 460.371C250.34 458.867 249.48 457.988 247.566 457.988H245.184V462.695ZM255.016 470L261.148 458.086V457.988H254.039V455.859H263.785V458.027L257.652 470H255.016Z" fill="white"/>
<path d="M171.225 157.746C171.107 156.535 170.072 155.832 168.549 155.832C166.947 155.832 165.971 156.613 165.971 157.668C165.971 158.859 167.221 159.348 168.393 159.621L169.721 159.973C171.83 160.461 173.861 161.574 173.861 164.035C173.861 166.516 171.908 168.215 168.51 168.215C165.209 168.215 163.139 166.633 163.021 163.84H165.521C165.639 165.324 166.889 166.047 168.49 166.047C170.17 166.047 171.322 165.227 171.322 164.016C171.322 162.902 170.287 162.434 168.764 162.043L167.162 161.633C164.838 161.027 163.393 159.855 163.393 157.824C163.393 155.324 165.619 153.664 168.588 153.664C171.596 153.664 173.627 155.363 173.666 157.746H171.225ZM180.471 168.195C177.326 168.195 175.1 166.516 175.1 164.211C175.1 162.414 176.428 160.949 178.127 160.676V160.598C176.643 160.285 175.627 158.996 175.627 157.453C175.627 155.266 177.678 153.664 180.471 153.664C183.244 153.664 185.295 155.266 185.295 157.453C185.295 158.996 184.26 160.285 182.795 160.598V160.676C184.494 160.949 185.842 162.414 185.842 164.211C185.842 166.516 183.596 168.195 180.471 168.195ZM180.471 166.184C182.131 166.184 183.225 165.285 183.225 163.977C183.225 162.648 182.053 161.672 180.471 161.672C178.869 161.672 177.697 162.648 177.717 163.977C177.697 165.285 178.791 166.184 180.471 166.184ZM180.471 159.777C181.838 159.777 182.814 158.918 182.814 157.688C182.814 156.496 181.857 155.656 180.471 155.656C179.064 155.656 178.107 156.477 178.107 157.688C178.107 158.918 179.084 159.777 180.471 159.777Z" fill="white"/>
<path d="M727.008 226.746C726.891 225.535 725.855 224.832 724.332 224.832C722.73 224.832 721.754 225.613 721.754 226.668C721.754 227.859 723.004 228.348 724.176 228.621L725.504 228.973C727.613 229.461 729.645 230.574 729.645 233.035C729.645 235.516 727.691 237.215 724.293 237.215C720.992 237.215 718.922 235.633 718.805 232.84H721.305C721.422 234.324 722.672 235.047 724.273 235.047C725.953 235.047 727.105 234.227 727.105 233.016C727.105 231.902 726.07 231.434 724.547 231.043L722.945 230.633C720.621 230.027 719.176 228.855 719.176 226.824C719.176 224.324 721.402 222.664 724.371 222.664C727.379 222.664 729.41 224.363 729.449 226.746H727.008ZM731.117 237V235.164L736.117 230.34C737.543 228.914 738.285 228.074 738.285 226.883C738.285 225.574 737.25 224.734 735.863 224.734C734.398 224.734 733.461 225.652 733.48 227.078H731.059C731.039 224.402 733.051 222.664 735.883 222.664C738.773 222.664 740.727 224.383 740.727 226.766C740.727 228.367 739.945 229.656 737.172 232.273L734.652 234.773V234.871H740.941V237H731.117Z" fill="white"/>
<path d="M159.359 226.746C159.242 225.535 158.207 224.832 156.684 224.832C155.082 224.832 154.105 225.613 154.105 226.668C154.105 227.859 155.355 228.348 156.527 228.621L157.855 228.973C159.965 229.461 161.996 230.574 161.996 233.035C161.996 235.516 160.043 237.215 156.645 237.215C153.344 237.215 151.273 235.633 151.156 232.84H153.656C153.773 234.324 155.023 235.047 156.625 235.047C158.305 235.047 159.457 234.227 159.457 233.016C159.457 231.902 158.422 231.434 156.898 231.043L155.297 230.633C152.973 230.027 151.527 228.855 151.527 226.824C151.527 224.324 153.754 222.664 156.723 222.664C159.73 222.664 161.762 224.363 161.801 226.746H159.359ZM163.996 237L170.129 225.086V224.988H163.02V222.859H172.766V225.027L166.633 237H163.996Z" fill="white"/>
<path d="M723.215 294.746C723.098 293.535 722.062 292.832 720.539 292.832C718.938 292.832 717.961 293.613 717.961 294.668C717.961 295.859 719.211 296.348 720.383 296.621L721.711 296.973C723.82 297.461 725.852 298.574 725.852 301.035C725.852 303.516 723.898 305.215 720.5 305.215C717.199 305.215 715.129 303.633 715.012 300.84H717.512C717.629 302.324 718.879 303.047 720.48 303.047C722.16 303.047 723.312 302.227 723.312 301.016C723.312 299.902 722.277 299.434 720.754 299.043L719.152 298.633C716.828 298.027 715.383 296.855 715.383 294.824C715.383 292.324 717.609 290.664 720.578 290.664C723.586 290.664 725.617 292.363 725.656 294.746H723.215ZM732.461 305.195C729.434 305.195 727.285 303.555 727.227 301.172H729.785C729.863 302.305 730.996 303.047 732.461 303.047C734.023 303.047 735.137 302.188 735.137 300.938C735.137 299.668 734.043 298.75 732.207 298.75H730.938V296.797H732.207C733.711 296.797 734.766 295.957 734.746 294.727C734.766 293.535 733.867 292.734 732.48 292.734C731.152 292.734 730 293.477 729.961 294.668H727.52C727.578 292.285 729.727 290.664 732.5 290.664C735.371 290.664 737.227 292.422 737.207 294.59C737.227 296.172 736.172 297.324 734.629 297.637V297.754C736.621 298.027 737.754 299.297 737.734 301.074C737.754 303.457 735.527 305.195 732.461 305.195Z" fill="white"/>
<path d="M160.205 294.746C160.088 293.535 159.053 292.832 157.529 292.832C155.928 292.832 154.951 293.613 154.951 294.668C154.951 295.859 156.201 296.348 157.373 296.621L158.701 296.973C160.811 297.461 162.842 298.574 162.842 301.035C162.842 303.516 160.889 305.215 157.49 305.215C154.189 305.215 152.119 303.633 152.002 300.84H154.502C154.619 302.324 155.869 303.047 157.471 303.047C159.15 303.047 160.303 302.227 160.303 301.016C160.303 299.902 159.268 299.434 157.744 299.043L156.143 298.633C153.818 298.027 152.373 296.855 152.373 294.824C152.373 292.324 154.6 290.664 157.568 290.664C160.576 290.664 162.607 292.363 162.646 294.746H160.205ZM169.607 305.195C166.854 305.176 164.08 303.535 164.1 298.32C164.1 293.477 166.307 290.664 169.764 290.664C172.498 290.664 174.373 292.383 174.686 294.668H172.166C171.912 293.594 171.053 292.871 169.764 292.871C167.713 292.871 166.561 294.688 166.561 297.656H166.697C167.42 296.445 168.787 295.723 170.33 295.723C172.869 295.723 174.822 297.637 174.822 300.312C174.822 303.125 172.732 305.215 169.607 305.195ZM169.607 303.145C171.189 303.145 172.361 301.914 172.361 300.371C172.361 298.867 171.209 297.656 169.646 297.656C168.064 297.656 166.854 298.906 166.834 300.391C166.854 301.875 168.006 303.145 169.607 303.145Z" fill="white"/>
<path d="M704.078 361.746C703.961 360.535 702.926 359.832 701.402 359.832C699.801 359.832 698.824 360.613 698.824 361.668C698.824 362.859 700.074 363.348 701.246 363.621L702.574 363.973C704.684 364.461 706.715 365.574 706.715 368.035C706.715 370.516 704.762 372.215 701.363 372.215C698.062 372.215 695.992 370.633 695.875 367.84H698.375C698.492 369.324 699.742 370.047 701.344 370.047C703.023 370.047 704.176 369.227 704.176 368.016C704.176 366.902 703.141 366.434 701.617 366.043L700.016 365.633C697.691 365.027 696.246 363.855 696.246 361.824C696.246 359.324 698.473 357.664 701.441 357.664C704.449 357.664 706.48 359.363 706.52 361.746H704.078ZM707.934 369.363V367.332L714.047 357.859H717.211V367.273H719.066V369.363H717.211V372H714.789V369.363H707.934ZM710.531 367.273H714.828V360.75H714.672L710.531 367.176V367.273Z" fill="white"/>
<path d="M180.361 361.746C180.244 360.535 179.209 359.832 177.686 359.832C176.084 359.832 175.107 360.613 175.107 361.668C175.107 362.859 176.357 363.348 177.529 363.621L178.857 363.973C180.967 364.461 182.998 365.574 182.998 368.035C182.998 370.516 181.045 372.215 177.646 372.215C174.346 372.215 172.275 370.633 172.158 367.84H174.658C174.775 369.324 176.025 370.047 177.627 370.047C179.307 370.047 180.459 369.227 180.459 368.016C180.459 366.902 179.424 366.434 177.9 366.043L176.299 365.633C173.975 365.027 172.529 363.855 172.529 361.824C172.529 359.324 174.756 357.664 177.725 357.664C180.732 357.664 182.764 359.363 182.803 361.746H180.361ZM189.49 372.195C186.658 372.195 184.588 370.516 184.51 368.172H186.99C187.068 369.324 188.143 370.145 189.49 370.145C191.072 370.145 192.205 368.992 192.205 367.43C192.205 365.809 191.033 364.656 189.412 364.656C188.318 364.637 187.518 365.027 187.068 365.867H184.705L185.564 357.859H193.924V359.988H187.654L187.225 363.738H187.361C187.908 363.113 188.943 362.664 190.096 362.664C192.732 362.664 194.666 364.637 194.666 367.352C194.666 370.184 192.537 372.195 189.49 372.195Z" fill="white"/>
<path d="M828.396 216H825.682L830.662 201.859H833.787L838.787 216H836.072L834.9 212.504H829.568L828.396 216ZM830.252 210.453H834.217L832.283 204.75H832.166L830.252 210.453ZM839.83 216V214.164L844.83 209.34C846.256 207.914 846.998 207.074 846.998 205.883C846.998 204.574 845.963 203.734 844.576 203.734C843.111 203.734 842.174 204.652 842.193 206.078H839.771C839.752 203.402 841.764 201.664 844.596 201.664C847.486 201.664 849.439 203.383 849.439 205.766C849.439 207.367 848.658 208.656 845.885 211.273L843.365 213.773V213.871H849.654V216H839.83Z" fill="white"/>
<path d="M828.604 293H825.889L830.869 278.859H833.994L838.994 293H836.279L835.107 289.504H829.775L828.604 293ZM830.459 287.453H834.424L832.49 281.75H832.373L830.459 287.453ZM845.174 293.195C842.146 293.195 839.998 291.555 839.939 289.172H842.498C842.576 290.305 843.709 291.047 845.174 291.047C846.736 291.047 847.85 290.188 847.85 288.938C847.85 287.668 846.756 286.75 844.92 286.75H843.65V284.797H844.92C846.424 284.797 847.479 283.957 847.459 282.727C847.479 281.535 846.58 280.734 845.193 280.734C843.865 280.734 842.713 281.477 842.674 282.668H840.232C840.291 280.285 842.439 278.664 845.213 278.664C848.084 278.664 849.939 280.422 849.92 282.59C849.939 284.172 848.885 285.324 847.342 285.637V285.754C849.334 286.027 850.467 287.297 850.447 289.074C850.467 291.457 848.24 293.195 845.174 293.195Z" fill="white"/>
<path d="M811.467 365H808.752L813.732 350.859H816.857L821.857 365H819.143L817.971 361.504H812.639L811.467 365ZM813.322 359.453H817.287L815.354 353.75H815.236L813.322 359.453ZM822.646 362.363V360.332L828.76 350.859H831.924V360.273H833.779V362.363H831.924V365H829.502V362.363H822.646ZM825.244 360.273H829.541V353.75H829.385L825.244 360.176V360.273Z" fill="white"/>
<path d="M785.25 439H782.535L787.516 424.859H790.641L795.641 439H792.926L791.754 435.504H786.422L785.25 439ZM787.105 433.453H791.07L789.137 427.75H789.02L787.105 433.453ZM801.703 439.195C798.871 439.195 796.801 437.516 796.723 435.172H799.203C799.281 436.324 800.355 437.145 801.703 437.145C803.285 437.145 804.418 435.992 804.418 434.43C804.418 432.809 803.246 431.656 801.625 431.656C800.531 431.637 799.73 432.027 799.281 432.867H796.918L797.777 424.859H806.137V426.988H799.867L799.438 430.738H799.574C800.121 430.113 801.156 429.664 802.309 429.664C804.945 429.664 806.879 431.637 806.879 434.352C806.879 437.184 804.75 439.195 801.703 439.195Z" fill="white"/>
<path d="M748.594 507H745.879L750.859 492.859H753.984L758.984 507H756.27L755.098 503.504H749.766L748.594 507ZM750.449 501.453H754.414L752.48 495.75H752.363L750.449 501.453ZM765.32 507.195C762.566 507.176 759.793 505.535 759.812 500.32C759.812 495.477 762.02 492.664 765.477 492.664C768.211 492.664 770.086 494.383 770.398 496.668H767.879C767.625 495.594 766.766 494.871 765.477 494.871C763.426 494.871 762.273 496.688 762.273 499.656H762.41C763.133 498.445 764.5 497.723 766.043 497.723C768.582 497.723 770.535 499.637 770.535 502.312C770.535 505.125 768.445 507.215 765.32 507.195ZM765.32 505.145C766.902 505.145 768.074 503.914 768.074 502.371C768.074 500.867 766.922 499.656 765.359 499.656C763.777 499.656 762.566 500.906 762.547 502.391C762.566 503.875 763.719 505.145 765.32 505.145Z" fill="white"/>
<path d="M691.248 563H688.533L693.514 548.859H696.639L701.639 563H698.924L697.752 559.504H692.42L691.248 563ZM693.104 557.453H697.068L695.135 551.75H695.018L693.104 557.453ZM703.209 563L709.342 551.086V550.988H702.232V548.859H711.979V551.027L705.846 563H703.209Z" fill="white"/>
<path d="M623.113 609H620.398L625.379 594.859H628.504L633.504 609H630.789L629.617 605.504H624.285L623.113 609ZM624.969 603.453H628.934L627 597.75H626.883L624.969 603.453ZM639.684 609.195C636.539 609.195 634.312 607.516 634.312 605.211C634.312 603.414 635.641 601.949 637.34 601.676V601.598C635.855 601.285 634.84 599.996 634.84 598.453C634.84 596.266 636.891 594.664 639.684 594.664C642.457 594.664 644.508 596.266 644.508 598.453C644.508 599.996 643.473 601.285 642.008 601.598V601.676C643.707 601.949 645.055 603.414 645.055 605.211C645.055 607.516 642.809 609.195 639.684 609.195ZM639.684 607.184C641.344 607.184 642.438 606.285 642.438 604.977C642.438 603.648 641.266 602.672 639.684 602.672C638.082 602.672 636.91 603.648 636.93 604.977C636.91 606.285 638.004 607.184 639.684 607.184ZM639.684 600.777C641.051 600.777 642.027 599.918 642.027 598.688C642.027 597.496 641.07 596.656 639.684 596.656C638.277 596.656 637.32 597.477 637.32 598.688C637.32 599.918 638.297 600.777 639.684 600.777Z" fill="white"/>
<path d="M548.594 633H545.879L550.859 618.859H553.984L558.984 633H556.27L555.098 629.504H549.766L548.594 633ZM550.449 627.453H554.414L552.48 621.75H552.363L550.449 627.453ZM565.047 618.664C567.82 618.684 570.555 620.324 570.574 625.5C570.574 630.383 568.367 633.195 564.891 633.195C562.156 633.195 560.281 631.496 559.969 629.152H562.488C562.742 630.266 563.602 630.988 564.891 630.988C566.941 630.988 568.094 629.172 568.113 626.145H567.957C567.234 627.375 565.887 628.098 564.324 628.098C561.805 628.098 559.852 626.184 559.832 623.508C559.832 620.734 561.902 618.645 565.047 618.664ZM565.066 620.715C563.484 620.715 562.293 621.945 562.312 623.449C562.312 624.973 563.445 626.164 565.027 626.164C566.59 626.164 567.82 624.895 567.801 623.43C567.801 621.984 566.648 620.715 565.066 620.715Z" fill="white"/>
<path d="M471.527 648H468.812L473.793 633.859H476.918L481.918 648H479.203L478.031 644.504H472.699L471.527 648ZM473.383 642.453H477.348L475.414 636.75H475.297L473.383 642.453ZM488.039 633.859V648H485.48V636.34H485.402L482.102 638.449V636.125L485.598 633.859H488.039ZM496.191 648.195C492.793 648.195 490.762 645.559 490.762 640.93C490.762 636.32 492.793 633.664 496.191 633.664C499.57 633.664 501.621 636.32 501.621 640.93C501.621 645.559 499.59 648.195 496.191 648.195ZM496.191 646.066C497.969 646.066 499.062 644.328 499.062 640.93C499.062 637.551 497.949 635.773 496.191 635.773C494.434 635.773 493.32 637.551 493.32 640.93C493.32 644.328 494.414 646.066 496.191 646.066Z" fill="white"/>
<path d="M398.324 651H395.609L400.59 636.859H403.715L408.715 651H406L404.828 647.504H399.496L398.324 651ZM400.18 645.453H404.145L402.211 639.75H402.094L400.18 645.453ZM414.836 636.859V651H412.277V639.34H412.199L408.898 641.449V639.125L412.395 636.859H414.836ZM423.516 636.859V651H420.957V639.34H420.879L417.578 641.449V639.125L421.074 636.859H423.516Z" fill="white"/>
<path d="M318.389 637H315.674L320.654 622.859H323.779L328.779 637H326.064L324.893 633.504H319.561L318.389 637ZM320.244 631.453H324.209L322.275 625.75H322.158L320.244 631.453ZM334.9 622.859V637H332.342V625.34H332.264L328.963 627.449V625.125L332.459 622.859H334.9ZM337.838 637V635.164L342.838 630.34C344.264 628.914 345.006 628.074 345.006 626.883C345.006 625.574 343.971 624.734 342.584 624.734C341.119 624.734 340.182 625.652 340.201 627.078H337.779C337.76 624.402 339.771 622.664 342.604 622.664C345.494 622.664 347.447 624.383 347.447 626.766C347.447 628.367 346.666 629.656 343.893 632.273L341.373 634.773V634.871H347.662V637H337.838Z" fill="white"/>
<path d="M249.596 605H246.881L251.861 590.859H254.986L259.986 605H257.271L256.1 601.504H250.768L249.596 605ZM251.451 599.453H255.416L253.482 593.75H253.365L251.451 599.453ZM266.107 590.859V605H263.549V593.34H263.471L260.17 595.449V593.125L263.666 590.859H266.107ZM274.182 605.195C271.154 605.195 269.006 603.555 268.947 601.172H271.506C271.584 602.305 272.717 603.047 274.182 603.047C275.744 603.047 276.857 602.188 276.857 600.938C276.857 599.668 275.764 598.75 273.928 598.75H272.658V596.797H273.928C275.432 596.797 276.486 595.957 276.467 594.727C276.486 593.535 275.588 592.734 274.201 592.734C272.873 592.734 271.721 593.477 271.682 594.668H269.24C269.299 592.285 271.447 590.664 274.221 590.664C277.092 590.664 278.947 592.422 278.928 594.59C278.947 596.172 277.893 597.324 276.35 597.637V597.754C278.342 598.027 279.475 599.297 279.455 601.074C279.475 603.457 277.248 605.195 274.182 605.195Z" fill="white"/>
<path d="M182.459 562H179.744L184.725 547.859H187.85L192.85 562H190.135L188.963 558.504H183.631L182.459 562ZM184.314 556.453H188.279L186.346 550.75H186.229L184.314 556.453ZM198.971 547.859V562H196.412V550.34H196.334L193.033 552.449V550.125L196.529 547.859H198.971ZM201.654 559.363V557.332L207.768 547.859H210.932V557.273H212.787V559.363H210.932V562H208.51V559.363H201.654ZM204.252 557.273H208.549V550.75H208.393L204.252 557.176V557.273Z" fill="white"/>
<path d="M127.242 507H124.527L129.508 492.859H132.633L137.633 507H134.918L133.746 503.504H128.414L127.242 507ZM129.098 501.453H133.062L131.129 495.75H131.012L129.098 501.453ZM143.754 492.859V507H141.195V495.34H141.117L137.816 497.449V495.125L141.312 492.859H143.754ZM151.711 507.195C148.879 507.195 146.809 505.516 146.73 503.172H149.211C149.289 504.324 150.363 505.145 151.711 505.145C153.293 505.145 154.426 503.992 154.426 502.43C154.426 500.809 153.254 499.656 151.633 499.656C150.539 499.637 149.738 500.027 149.289 500.867H146.926L147.785 492.859H156.145V494.988H149.875L149.445 498.738H149.582C150.129 498.113 151.164 497.664 152.316 497.664C154.953 497.664 156.887 499.637 156.887 502.352C156.887 505.184 154.758 507.195 151.711 507.195Z" fill="white"/>
<path d="M86.5859 439H83.8711L88.8516 424.859H91.9766L96.9766 439H94.2617L93.0898 435.504H87.7578L86.5859 439ZM88.4414 433.453H92.4062L90.4727 427.75H90.3555L88.4414 433.453ZM103.098 424.859V439H100.539V427.34H100.461L97.1602 429.449V427.125L100.656 424.859H103.098ZM111.328 439.195C108.574 439.176 105.801 437.535 105.82 432.32C105.82 427.477 108.027 424.664 111.484 424.664C114.219 424.664 116.094 426.383 116.406 428.668H113.887C113.633 427.594 112.773 426.871 111.484 426.871C109.434 426.871 108.281 428.688 108.281 431.656H108.418C109.141 430.445 110.508 429.723 112.051 429.723C114.59 429.723 116.543 431.637 116.543 434.312C116.543 437.125 114.453 439.215 111.328 439.195ZM111.328 437.145C112.91 437.145 114.082 435.914 114.082 434.371C114.082 432.867 112.93 431.656 111.367 431.656C109.785 431.656 108.574 432.906 108.555 434.391C108.574 435.875 109.727 437.145 111.328 437.145Z" fill="white"/>
<path d="M57.2402 370H54.5254L59.5059 355.859H62.6309L67.6309 370H64.916L63.7441 366.504H58.4121L57.2402 370ZM59.0957 364.453H63.0605L61.127 358.75H61.0098L59.0957 364.453ZM73.752 355.859V370H71.1934V358.34H71.1152L67.8145 360.449V358.125L71.3105 355.859H73.752ZM77.2168 370L83.3496 358.086V357.988H76.2402V355.859H85.9863V358.027L79.8535 370H77.2168Z" fill="white"/>
<path d="M39.1055 295H36.3906L41.3711 280.859H44.4961L49.4961 295H46.7812L45.6094 291.504H40.2773L39.1055 295ZM40.9609 289.453H44.9258L42.9922 283.75H42.875L40.9609 289.453ZM55.6172 280.859V295H53.0586V283.34H52.9805L49.6797 285.449V283.125L53.1758 280.859H55.6172ZM63.6914 295.195C60.5469 295.195 58.3203 293.516 58.3203 291.211C58.3203 289.414 59.6484 287.949 61.3477 287.676V287.598C59.8633 287.285 58.8477 285.996 58.8477 284.453C58.8477 282.266 60.8984 280.664 63.6914 280.664C66.4648 280.664 68.5156 282.266 68.5156 284.453C68.5156 285.996 67.4805 287.285 66.0156 287.598V287.676C67.7148 287.949 69.0625 289.414 69.0625 291.211C69.0625 293.516 66.8164 295.195 63.6914 295.195ZM63.6914 293.184C65.3516 293.184 66.4453 292.285 66.4453 290.977C66.4453 289.648 65.2734 288.672 63.6914 288.672C62.0898 288.672 60.918 289.648 60.9375 290.977C60.918 292.285 62.0117 293.184 63.6914 293.184ZM63.6914 286.777C65.0586 286.777 66.0352 285.918 66.0352 284.688C66.0352 283.496 65.0781 282.656 63.6914 282.656C62.2852 282.656 61.3281 283.477 61.3281 284.688C61.3281 285.918 62.3047 286.777 63.6914 286.777Z" fill="white"/>
<path d="M41.5859 218H38.8711L43.8516 203.859H46.9766L51.9766 218H49.2617L48.0898 214.504H42.7578L41.5859 218ZM43.4414 212.453H47.4062L45.4727 206.75H45.3555L43.4414 212.453ZM58.0977 203.859V218H55.5391V206.34H55.4609L52.1602 208.449V206.125L55.6562 203.859H58.0977ZM66.0547 203.664C68.8281 203.684 71.5625 205.324 71.582 210.5C71.582 215.383 69.375 218.195 65.8984 218.195C63.1641 218.195 61.2891 216.496 60.9766 214.152H63.4961C63.75 215.266 64.6094 215.988 65.8984 215.988C67.9492 215.988 69.1016 214.172 69.1211 211.145H68.9648C68.2422 212.375 66.8945 213.098 65.332 213.098C62.8125 213.098 60.8594 211.184 60.8398 208.508C60.8398 205.734 62.9102 203.645 66.0547 203.664ZM66.0742 205.715C64.4922 205.715 63.3008 206.945 63.3203 208.449C63.3203 209.973 64.4531 211.164 66.0352 211.164C67.5977 211.164 68.8281 209.895 68.8086 208.43C68.8086 206.984 67.6562 205.715 66.0742 205.715Z" fill="white"/>
<path d="M56.2598 137H53.5449L58.5254 122.859H61.6504L66.6504 137H63.9355L62.7637 133.504H57.4316L56.2598 137ZM58.1152 131.453H62.0801L60.1465 125.75H60.0293L58.1152 131.453ZM67.6934 137V135.164L72.6934 130.34C74.1191 128.914 74.8613 128.074 74.8613 126.883C74.8613 125.574 73.8262 124.734 72.4395 124.734C70.9746 124.734 70.0371 125.652 70.0566 127.078H67.6348C67.6152 124.402 69.627 122.664 72.459 122.664C75.3496 122.664 77.3027 124.383 77.3027 126.766C77.3027 128.367 76.5215 129.656 73.748 132.273L71.2285 134.773V134.871H77.5176V137H67.6934ZM84.459 137.195C81.0605 137.195 79.0293 134.559 79.0293 129.93C79.0293 125.32 81.0605 122.664 84.459 122.664C87.8379 122.664 89.8887 125.32 89.8887 129.93C89.8887 134.559 87.8574 137.195 84.459 137.195ZM84.459 135.066C86.2363 135.066 87.3301 133.328 87.3301 129.93C87.3301 126.551 86.2168 124.773 84.459 124.773C82.7012 124.773 81.5879 126.551 81.5879 129.93C81.5879 133.328 82.6816 135.066 84.459 135.066Z" fill="white"/>
</svg>
