<svg width="110" height="110" viewBox="0 0 110 110" fill="none" xmlns="http://www.w3.org/2000/svg">
<path d="M40.9414 47.5312C32.5805 47.5315 25.6246 53.5435 24.1592 61.4805H23.8516C17.3062 61.4805 12.0001 66.7867 12 73.332V73.9287C12 78.9962 16.1083 83.1045 21.1758 83.1045H29.1475C29.1604 83.1046 29.1736 83.1055 29.1865 83.1055H54.1367C57.0704 83.1055 59.4491 80.7276 59.4492 77.7939V66.0381C59.4492 55.8169 51.1625 47.5312 40.9414 47.5312Z" fill="#7E8CDA"/>
<path d="M58.3057 26C70.9049 26.0002 81.3771 35.1061 83.501 47.0957C92.1294 48.3119 98.7675 55.7246 98.7676 64.6885V67.0264C98.7676 71.3529 96.5339 75.1554 93.1592 77.3516V75.8486C93.1592 69.8722 88.3143 65.0273 82.3379 65.0273H76.6602C70.684 65.0276 65.8389 69.8724 65.8389 75.8486V78.252C65.8389 78.6202 65.8669 78.9821 65.9189 79.3359H61.0273C61.1342 78.842 61.1924 78.3296 61.1924 77.8037V66.0479L61.1855 65.5215C60.9063 54.4931 51.8789 45.6387 40.7832 45.6387C37.2433 45.6388 33.9306 46.608 31.0957 48.2959C33.6285 35.5822 44.8475 26.0002 58.3057 26Z" fill="#7E8CDA"/>
<path d="M82.0635 66.8281C86.8443 66.8284 90.7195 70.7036 90.7197 75.4844V77.8887C90.7195 80.7744 88.38 83.1143 85.4941 83.1143H72.9531C70.0675 83.1141 67.7277 80.7743 67.7275 77.8887V75.4844C67.7277 70.7035 71.6039 66.8283 76.3848 66.8281H82.0635Z" fill="#7E8CDA"/>
</svg>
