<svg width="110" height="110" viewBox="0 0 110 110" fill="none" xmlns="http://www.w3.org/2000/svg">
<path d="M77.2889 19.0007C77.6843 18.9914 78.0662 19.0768 78.4256 19.2282L79.1737 19.5427C79.7434 19.7828 80.0929 20.2509 80.2459 20.7937L80.4959 21.6823C80.6701 22.3008 80.5356 22.9272 80.0711 23.4079L79.4578 24.0427C79.2953 24.2109 79.1655 24.3753 79.0643 24.5349L78.8524 24.8688L78.6405 25.2038C78.4735 25.467 78.2866 25.7184 78.0819 25.9587L77.5565 26.5759C77.4722 26.6748 77.4153 26.7805 77.3807 26.9001L77.158 27.6716C77.086 27.9209 77.0165 28.1723 76.95 28.4245L76.7449 29.2038C76.6342 29.6236 76.4263 29.9987 76.1326 30.3171L75.578 30.9187C75.5677 30.9298 75.5655 30.9359 75.5643 30.9392C75.5627 30.9432 75.5555 30.962 75.5545 31.0036L75.5447 31.4401L75.535 31.8776C75.5206 32.4994 75.2243 33.0237 74.7215 33.3688L73.9822 33.8767C73.8437 33.9717 73.7666 34.0627 73.7215 34.1423L73.3328 34.8288C73.2405 34.9922 73.1661 35.1665 73.1102 35.3522L72.8797 36.1198C72.8334 36.274 72.806 36.4522 72.8055 36.6599L72.8035 37.5437C72.802 38.2027 72.4741 38.7425 71.9334 39.0749L71.1463 39.5593C71.1218 39.5744 71.1075 39.5859 71.1004 39.5925L70.91 40.3679C70.8114 40.7695 70.632 41.1374 70.3738 41.4606L69.8709 42.0896C69.7714 42.2142 69.697 42.3475 69.6453 42.4919L69.3778 43.2399C69.2792 43.5154 69.1695 43.7856 69.0487 44.0505L68.7215 44.7692C68.6714 44.8791 68.6365 45.014 68.6297 45.1862L68.5955 46.0534C68.5708 46.6802 68.2583 47.1969 67.7518 47.531L66.9949 48.029C66.8942 48.0954 66.8746 48.1431 66.867 48.1638L66.5926 48.9089C66.4687 49.2454 66.2891 49.552 66.0633 49.8298L66.368 49.8317L66.7664 49.8347C67.0765 49.8367 67.3883 49.8596 67.701 49.9021L68.1092 49.9577L68.5096 50.0114C68.5156 50.0081 68.5257 50.0017 68.5399 49.9909L69.2528 49.446C69.632 49.156 70.0781 48.9732 70.575 48.9548L70.9715 48.9401L71.368 48.9245C71.7018 48.9122 72.0373 48.9357 72.3729 48.9909L73.1922 49.1247C73.386 49.1566 73.5691 49.1639 73.743 49.1481L74.5301 49.0759C74.7356 49.0572 74.9388 49.0219 75.1395 48.9685L75.5223 48.8659L75.9051 48.7644C76.1924 48.6878 76.4832 48.6263 76.7762 48.5788L77.5565 48.4519C77.8251 48.4083 78.0879 48.4208 78.3367 48.486L78.8817 48.4196L78.992 48.4099C79.2538 48.3948 79.5417 48.4392 79.8162 48.5915C80.0896 48.7432 80.2789 48.9622 80.4051 49.1882L80.4549 49.2858L80.6258 49.6394L80.7947 49.9929C80.9739 50.3657 81.0644 50.7679 81.0467 51.1872L81.0155 51.9206C80.9938 52.4291 80.7703 52.858 80.4178 53.1755C80.4821 53.3255 80.5245 53.5182 80.4862 53.7429C80.4264 54.0921 80.2107 54.2954 80.1033 54.3786C79.9901 54.4663 79.8814 54.5121 79.825 54.5339C79.6322 54.6084 79.4109 54.6312 79.2918 54.6423L79.0838 54.6608C79.0554 54.7192 79.0305 54.7968 79.0252 54.9089L78.9881 55.7038C78.9617 56.2617 78.7077 56.7493 78.2606 57.0886L77.7264 57.4938L77.7362 57.8083L77.7488 58.2224C77.7683 58.8598 77.4681 59.406 76.9266 59.736L76.2147 60.1696C76.1197 60.2276 76.0986 60.2691 76.0926 60.2819L75.7879 60.9343C75.7293 61.06 75.6864 61.2024 75.6619 61.3649L75.6053 61.7419L75.5477 62.1188C75.499 62.4417 75.4159 62.7538 75.2967 63.0524L75.0291 63.7243C74.9269 63.9804 74.8116 64.2304 74.6834 64.4733L74.3485 65.1091C74.2322 65.3294 74.1117 65.5475 73.9891 65.7644L73.6356 66.3903C73.5222 66.5908 73.4113 66.7933 73.3035 66.9968L72.9676 67.6315C72.7669 68.0104 72.4735 68.3105 72.1258 68.5397L71.4442 68.9899C71.4066 69.0147 71.39 69.0322 71.3846 69.0388C71.3804 69.044 71.3784 69.0469 71.3768 69.0515L71.1385 69.739C71.0912 69.8756 71.0589 70.0324 71.0477 70.2126L71.0233 70.6071L70.9988 71.0007C70.9618 71.5947 70.6579 72.0822 70.1737 72.3942L69.5047 72.8259L69.4481 73.1413L69.3836 73.5134C69.308 73.9437 69.1193 74.3335 68.8231 74.6589L68.324 75.2067C68.3214 75.2096 68.3202 75.2116 68.3201 75.2116L68.3182 75.2194C68.3168 75.2259 68.3161 75.2378 68.3153 75.2546L68.2772 76.0485C68.2541 76.5277 68.0819 76.9774 67.7459 77.3444L67.4959 77.6188L67.2459 77.8923C67.1777 77.9668 67.1329 78.0446 67.1053 78.1345L66.9979 78.4841L66.8905 78.8347C66.7424 79.3161 66.4328 79.6888 66.035 79.9499L65.6932 80.1745L65.3631 80.3903L65.3006 80.7155L65.2293 81.0847C65.1742 81.3734 65.1021 81.6554 65.0106 81.9294L64.7791 82.6208C64.6289 83.0703 64.3426 83.429 63.9725 83.694L63.6473 83.9274L63.3875 84.114L63.3514 84.8229C63.3285 85.2718 63.1862 85.694 62.9237 86.0632L62.4744 86.694C62.1837 87.1029 61.774 87.3778 61.285 87.4909L60.5311 87.6647C60.0333 87.7798 59.5431 87.7044 59.1033 87.4714L58.744 87.281L58.3953 87.0954L58.074 87.196L57.7147 87.3093C57.2247 87.4637 56.7287 87.4188 56.2762 87.2087L55.6238 86.906L54.9686 87.2165C54.6494 87.3679 54.3168 87.4748 53.9725 87.5271L53.2547 87.6354C52.783 87.7071 52.3301 87.6129 51.9256 87.403L51.327 87.0915L50.7186 87.4323C50.2305 87.7058 49.6703 87.7601 49.1297 87.5358L48.4363 87.2478L47.742 87.5388C47.2997 87.7238 46.8242 87.7575 46.3553 87.6188L45.6365 87.406C45.5706 87.3865 45.5163 87.3859 45.4549 87.4021L44.7371 87.5915C44.2319 87.7244 43.7358 87.6447 43.2977 87.4128L42.702 87.0974L42.0985 87.4362C41.5614 87.7383 40.9484 87.7483 40.4012 87.4294L40.0555 87.2272L39.7098 87.0261C39.4536 86.8768 39.2158 86.7231 38.9998 86.5642L38.45 86.1599C38.2632 86.0223 37.8443 85.6388 37.9305 85.0153C38.0044 84.4823 38.4081 84.2007 38.5653 84.1013L39.2283 83.6813C39.2672 83.6568 39.2904 83.6322 39.3113 83.5788L39.6024 82.8366C39.7599 82.4361 40.0114 82.0831 40.366 81.8161L40.9422 81.3825C41.0557 81.2971 41.1565 81.196 41.244 81.0769L41.6766 80.487C41.8737 80.2185 42.1036 79.9801 42.3651 79.7751L42.6492 79.5524L42.9324 79.3298C43.0854 79.2099 43.2296 79.0805 43.3641 78.9411L43.8631 78.4235C44.2149 78.059 44.6641 77.8727 45.1238 77.8073L45.5565 77.7468L45.8387 77.7058L46.0565 77.1315C46.1717 76.8284 46.3112 76.5417 46.4754 76.2731L46.8651 75.6364L46.9227 75.5485C47.218 75.1209 47.652 74.873 48.1297 74.778L48.5438 74.695L48.7869 74.6472L48.8563 74.4226L48.9793 74.0261C49.1125 73.5948 49.3553 73.2031 49.7342 72.9128L50.3074 72.4743C50.4498 72.3653 50.581 72.2441 50.701 72.111L50.9422 71.8425L51.1844 71.5749C51.3468 71.3947 51.5101 71.2148 51.6737 71.0358L52.16 70.5036C52.5024 70.1291 52.9462 69.9313 53.4071 69.8571L53.8338 69.7888L54.0311 69.7565L54.1795 69.1452C54.2864 68.7047 54.5031 68.2881 54.8719 67.9704L55.4168 67.5017C55.7161 67.2439 56.0628 67.0639 56.4373 66.9519L57.2049 66.7233C57.2787 66.7012 57.2939 66.6784 57.3006 66.6696L57.742 66.0896C57.9076 65.8717 58.0827 65.6626 58.2664 65.4626L58.7537 64.9313C58.9496 64.7181 59.1604 64.5203 59.3856 64.3386L59.9461 63.8864C60.0867 63.773 60.2166 63.6479 60.3358 63.5104L60.5721 63.237L60.8094 62.9636C60.957 62.7933 61.1014 62.6193 61.242 62.4411L61.6922 61.8698C61.9154 61.5871 62.1832 61.3496 62.4901 61.1608L62.8026 60.9694L63.1141 60.7771C63.2107 60.7176 63.2906 60.6452 63.3572 60.5534L63.5721 60.2565L63.7869 59.9606C64.1266 59.4929 64.6221 59.2678 65.1278 59.2058L65.5682 59.1521L65.699 59.1354L65.7938 58.5241C65.883 57.9513 66.206 57.4071 66.8397 57.155L67.5555 56.8708C67.6034 56.8517 67.618 56.8346 67.6326 56.8112L67.8299 56.4958L68.0262 56.1794L68.0867 56.0896C68.2777 55.8199 68.5237 55.6264 68.7987 55.4997C68.6276 55.4461 68.4596 55.4043 68.2938 55.3786L67.9002 55.3181L67.5057 55.2565C67.3583 55.2337 67.2121 55.2369 67.0623 55.2663L66.6688 55.3435L66.2742 55.4206C66.0573 55.4631 65.8377 55.5217 65.616 55.5974L64.828 55.8669C64.2351 56.0693 63.6547 55.9511 63.1727 55.6374L62.3846 55.1237C62.2541 55.0388 62.1798 55.0308 62.1473 55.031H62.0526L61.7088 55.279C61.2882 55.5816 60.7933 55.7133 60.2723 55.6452L59.4832 55.5417C59.4663 55.5395 59.4494 55.5382 59.4324 55.5368C59.395 55.5497 59.3576 55.5627 59.3201 55.5759L58.9256 55.7146L58.5321 55.8542C57.9661 56.054 57.3988 55.9702 56.909 55.6853L56.4783 55.4343L55.9891 55.1726C55.9673 55.1609 55.9457 55.1505 55.9246 55.1403C55.8783 55.1273 55.8393 55.1217 55.8065 55.1208L55.0174 55.0993C54.9771 55.0983 54.9014 55.1058 54.7752 55.1823L53.9871 55.6608C53.5538 55.9236 53.0519 56.0539 52.5184 55.9655L51.7293 55.8347C51.5218 55.8003 51.3154 55.7837 51.1102 55.7849L50.7166 55.7878L50.3221 55.7897C50.0429 55.7913 49.7633 55.7854 49.4842 55.7731L48.6961 55.739C48.2966 55.7214 47.9149 55.6165 47.5555 55.445C47.0882 55.5798 46.6164 55.5247 46.1873 55.3425L46.0155 55.2692L45.9207 55.3024C45.7833 55.3512 45.5261 55.4371 45.2547 55.4255C45.1288 55.4201 44.8375 55.3857 44.578 55.1569L44.0086 55.2839C43.3818 55.4229 42.7911 55.2294 42.3582 54.7751L41.7606 54.1481C41.3757 53.7441 41.1799 53.2293 41.2137 52.6638L41.2381 52.2419L41.2635 51.82C41.2879 51.4117 41.3889 51.0195 41.5643 50.6501L41.9246 49.8894C42.1541 49.4064 42.5379 49.0499 43.034 48.8542L43.8201 48.5446C43.9479 48.4942 44.0358 48.4304 44.1014 48.3571L44.6287 47.7673C44.8775 47.4896 45.1668 47.2569 45.491 47.071L46.1922 46.6687C46.3525 46.5767 46.4936 46.4698 46.617 46.3474L47.1766 45.7917C47.2977 45.6716 47.4072 45.5311 47.5028 45.3659L47.9158 44.6511C48.1696 44.2124 48.5486 43.893 49.0155 43.7097L49.7303 43.4294L49.8426 43.0153L49.9647 42.5661L49.9979 42.4577C50.0828 42.2037 50.223 41.9561 50.4383 41.7487C50.6853 41.511 50.9817 41.3732 51.2811 41.3073L52.1414 41.1179L52.2957 40.7927L52.4774 40.4089C52.6624 40.0188 52.9274 39.6808 53.2752 39.4177L53.9071 38.9392C53.9964 38.8715 54.0756 38.7827 54.1424 38.6579L54.536 37.9226C54.795 37.4389 55.2107 37.1061 55.7215 36.9421L56.5487 36.6765C56.5849 36.6648 56.5986 36.6545 56.6004 36.653C56.6017 36.6519 56.6029 36.6508 56.6043 36.6491C56.606 36.6471 56.6101 36.642 56.6151 36.6335L57.0321 35.9235C57.2733 35.5119 57.6201 35.1961 58.0516 34.9938L58.4266 34.8171L58.8006 34.6423C58.8205 34.6329 58.8286 34.6261 58.8319 34.6228C58.8355 34.6189 58.8474 34.6059 58.8621 34.5729L59.2108 33.7888C59.3822 33.4039 59.6265 33.0632 59.949 32.7878L60.5496 32.2761C60.7667 32.0908 60.9897 31.9118 61.2196 31.7409L61.8563 31.2683C62.0183 31.1478 62.1674 31.0138 62.3035 30.8659L62.8397 30.2839C63.0356 30.0711 63.2387 29.866 63.45 29.6696L64.0281 29.1325C64.3784 28.8072 64.8044 28.6164 65.2567 28.5271L66.1639 28.3483C66.2159 28.3381 66.2382 28.3257 66.243 28.3229L66.7166 27.6755C66.8374 27.5101 66.9473 27.3267 67.0457 27.1237L67.4149 26.362C67.5811 26.019 67.7943 25.7076 68.0574 25.4372L68.6082 24.8718C68.7998 24.6749 68.9951 24.4816 69.1932 24.2917L69.7615 23.7458C70.014 23.5038 70.296 23.2969 70.6033 23.1247L70.9569 22.9265L71.3104 22.7292C71.531 22.6056 71.7468 22.4766 71.9578 22.3435L72.6356 21.9157C72.7661 21.8333 72.8772 21.7335 72.9715 21.614L73.4656 20.987C73.6695 20.7287 73.8962 20.4926 74.1444 20.279L74.742 19.7644C74.9343 19.5989 75.1879 19.3932 75.4422 19.2849L75.5828 19.2253L75.7244 19.1647L75.8328 19.1237C76.0918 19.0382 76.3754 19.0222 76.5848 19.0173L77.2889 19.0007Z" fill="#1F2692"/>
<path d="M68.3699 22.4538C68.7653 22.4446 69.1473 22.5299 69.5066 22.6813L70.2547 22.9968C70.824 23.2369 71.173 23.7043 71.326 24.2468L71.577 25.1354C71.7512 25.7539 71.6167 26.3802 71.1522 26.861L70.5389 27.4958C70.3762 27.6642 70.2466 27.8293 70.1453 27.989L69.9334 28.3229L69.7205 28.6569C69.5535 28.9202 69.3677 29.1724 69.1629 29.4128L68.6375 30.03C68.5534 30.1287 68.4963 30.2338 68.4617 30.3532L68.2391 31.1247C68.167 31.3741 68.0976 31.6253 68.0311 31.8776L67.825 32.6569C67.7143 33.0767 67.5072 33.4518 67.2137 33.7702L66.659 34.3727C66.6481 34.3846 66.6455 34.3902 66.6443 34.3933C66.6427 34.3973 66.6365 34.4155 66.6355 34.4567L66.6248 34.8942L66.615 35.3317C66.6007 35.9535 66.3044 36.4778 65.8016 36.8229L65.0623 37.3308C64.9242 37.4256 64.8476 37.516 64.8025 37.5954L64.4139 38.2829C64.3215 38.4463 64.2471 38.6205 64.1912 38.8063L64.076 39.1892L63.9607 39.5729C63.9144 39.7271 63.8871 39.9054 63.8865 40.113L63.8846 40.9977C63.8829 41.6565 63.555 42.1967 63.0145 42.529L62.6209 42.7712L62.2273 43.0124C62.2026 43.0276 62.1886 43.04 62.1814 43.0466L61.991 43.822C61.8925 44.2235 61.712 44.5905 61.4539 44.9138L60.952 45.5436C60.8525 45.6682 60.778 45.8008 60.7264 45.945L60.5926 46.319L60.4588 46.694C60.3602 46.9695 60.2505 47.2398 60.1297 47.5046L59.8016 48.2224C59.7514 48.3323 59.7175 48.4679 59.7107 48.6403L59.6766 49.5075C59.6518 50.1342 59.3393 50.6501 58.8328 50.9841L58.076 51.4831C57.9753 51.5495 57.9547 51.5962 57.9471 51.6169L57.6736 52.362C57.5495 52.6993 57.3689 53.0065 57.1424 53.2849L57.4451 53.2878L57.8445 53.2907C58.1547 53.2927 58.4664 53.3147 58.7791 53.3571L59.1873 53.4128L59.5877 53.4665C59.5938 53.4632 59.6042 53.4575 59.618 53.447L60.3299 52.902C60.7092 52.6119 61.1561 52.4283 61.6531 52.4099L62.4461 52.3806C62.7799 52.3682 63.1154 52.3907 63.451 52.446L64.2703 52.5808C64.4638 52.6126 64.6464 52.6189 64.8201 52.6032L65.2147 52.5681L65.6072 52.5319C65.8128 52.5133 66.0159 52.478 66.2166 52.4245L66.6004 52.322L66.9832 52.2204C67.1976 52.1633 67.414 52.1158 67.6316 52.0749C67.6993 52.0589 67.7738 52.0415 67.8484 52.027L68.4451 51.9118C68.6721 51.8678 68.9234 51.8289 69.1961 51.7956L69.9637 51.7018L70.074 51.6921C70.3358 51.677 70.6237 51.7214 70.8982 51.8737C71.1714 52.0253 71.3599 52.2446 71.4861 52.4704L71.5369 52.5681L71.8768 53.2751C72.0558 53.6479 72.1464 54.0502 72.1287 54.4694L72.0975 55.2028C72.0746 55.7412 71.8244 56.1894 71.4354 56.5114C71.5297 56.6718 71.6127 56.908 71.5633 57.1979C71.5036 57.5475 71.2878 57.7505 71.1805 57.8337C71.0671 57.9216 70.9584 57.9682 70.9022 57.9899C70.7096 58.0643 70.4891 58.0863 70.3699 58.0974L70.1131 58.1208C70.1103 58.1426 70.1084 58.166 70.1072 58.1911L70.0887 58.5886L70.0691 58.986C70.0428 59.5439 69.7897 60.0315 69.3426 60.3708L68.8084 60.7761L68.8172 61.0905L68.8299 61.5046C68.8494 62.142 68.55 62.6882 68.0086 63.0183L67.2967 63.4518C67.2011 63.5101 67.1796 63.5515 67.1736 63.5642L66.8699 64.2175C66.8114 64.3431 66.7674 64.4848 66.743 64.6472L66.6297 65.4011C66.581 65.7239 66.4979 66.036 66.3787 66.3347L66.1111 67.0065C66.0088 67.2627 65.8927 67.5125 65.7645 67.7556L65.4295 68.3913C65.3133 68.6115 65.1937 68.8298 65.0711 69.0466L64.7176 69.6726C64.6042 69.8731 64.4933 70.0755 64.3855 70.279L64.0496 70.9138C63.849 71.2926 63.5554 71.5928 63.2078 71.822L62.5252 72.2722C62.4873 72.2972 62.4708 72.3146 62.4656 72.321C62.4615 72.3261 62.4604 72.3292 62.4588 72.3337L62.2205 73.0212C62.1732 73.1579 62.1409 73.3146 62.1297 73.4948L62.1053 73.8893L62.0809 74.2829C62.0438 74.877 61.739 75.3644 61.2547 75.6765L60.5857 76.1081L60.5301 76.4235L60.4647 76.7956C60.389 77.2259 60.2013 77.6157 59.9051 77.9411L59.4061 78.489C59.4033 78.4919 59.4022 78.4938 59.4022 78.4938L59.4002 78.5017C59.3989 78.5081 59.3971 78.52 59.3963 78.5368L59.3582 79.3308C59.3351 79.8098 59.1638 80.2597 58.8279 80.6267L58.5779 80.9011L58.327 81.1745C58.2589 81.2489 58.2149 81.327 58.1873 81.4167L58.0789 81.7663L57.9725 82.1169C57.8244 82.5984 57.5139 82.971 57.116 83.2321L56.7742 83.4567L56.4441 83.6726L56.3816 83.9977L56.3113 84.3669C56.2562 84.6556 56.1831 84.9376 56.0916 85.2116L55.8611 85.903C55.711 86.3526 55.4247 86.7121 55.0545 86.9772L54.7283 87.2106L54.4695 87.3962L54.4324 88.1061C54.4095 88.5549 54.2671 88.9763 54.0047 89.3454L53.5564 89.9763C53.2656 90.3852 52.8551 90.66 52.366 90.7731L51.6131 90.947C51.115 91.0622 50.6243 90.9868 50.1844 90.7536L49.825 90.5632L49.4764 90.3776L49.1561 90.4782L48.7967 90.5915C48.3066 90.7459 47.8097 90.7011 47.3572 90.4909L46.7049 90.1882L46.0506 90.4987C45.7314 90.6502 45.3979 90.757 45.0535 90.8093L44.3357 90.9177C43.864 90.9893 43.4121 90.8951 43.0076 90.6852L42.408 90.3737L41.7996 90.7145C41.3116 90.988 40.7523 91.0423 40.2117 90.8181L39.5174 90.53L38.823 90.821C38.3809 91.0058 37.9051 91.0398 37.4363 90.9011L36.7186 90.6882C36.6525 90.6687 36.5983 90.6681 36.5369 90.6843L35.8191 90.8737C35.3139 91.0067 34.8178 90.9269 34.3797 90.695L33.783 90.3796L33.1805 90.7185C32.6434 91.0206 32.0305 91.0305 31.4832 90.7116L31.1365 90.5095L30.7908 90.3083C30.5346 90.1589 30.2969 90.0053 30.0809 89.8464L29.532 89.4421C29.3453 89.3047 28.9253 88.9213 29.0115 88.2976C29.0855 87.7642 29.4904 87.4827 29.6473 87.3835L30.3104 86.9636C30.349 86.9391 30.3714 86.9142 30.3924 86.861L30.5389 86.4899L30.6844 86.1188C30.8419 85.7184 31.0925 85.3653 31.4471 85.0983L31.7361 84.8815L32.0242 84.6647C32.1377 84.5793 32.2376 84.4781 32.325 84.3591L32.7576 83.7692C32.9549 83.5006 33.1855 83.2624 33.4471 83.0573L33.7303 82.8347L34.0145 82.612C34.1673 82.4922 34.3107 82.3626 34.4451 82.2233L34.9451 81.7058C35.2968 81.3413 35.7452 81.155 36.2049 81.0895L36.6375 81.029L36.9207 80.988L37.1385 80.4138C37.2538 80.1106 37.3932 79.8239 37.5574 79.5554L37.9461 78.9186L38.0037 78.8308C38.2991 78.403 38.7338 78.1552 39.2117 78.0602L39.6258 77.9772L39.8689 77.9294L39.9383 77.7048L40.0613 77.3083C40.1946 76.877 40.4372 76.4853 40.8162 76.195L41.3895 75.7565C41.5319 75.6475 41.663 75.5264 41.783 75.3933L42.0242 75.1257L42.2654 74.8571C42.428 74.6768 42.592 74.4971 42.7557 74.3181L43.242 73.7858C43.5845 73.4114 44.0283 73.2135 44.4891 73.1393L44.9148 73.071L45.1131 73.0388L45.2615 72.4274C45.3684 71.9872 45.5845 71.5713 45.9529 71.2536L46.2254 71.0183L46.4979 70.7839C46.7972 70.526 47.1446 70.3462 47.5193 70.2341L48.2859 70.0056C48.3599 69.9834 48.3759 69.9607 48.3826 69.9518L48.824 69.3718C48.9896 69.154 49.1638 68.9447 49.3475 68.7448L49.8348 68.2136C50.0308 68.0002 50.2422 67.8027 50.4676 67.6208L51.0281 67.1686C51.1687 67.0552 51.2986 66.9302 51.4178 66.7927L51.6541 66.5192L51.8904 66.2468C52.0381 66.0765 52.1824 65.9015 52.323 65.7233L52.7742 65.152C52.9975 64.8693 53.2651 64.6318 53.5721 64.4431L53.8836 64.2517L54.1961 64.0593C54.2925 63.9999 54.3718 63.9272 54.4383 63.8356L54.6531 63.5388L54.8689 63.2429C55.2086 62.7751 55.7041 62.55 56.2098 62.488L56.6492 62.4343L56.7801 62.4177L56.8758 61.8063C56.965 61.2336 57.2871 60.6894 57.9207 60.4372L58.6365 60.153C58.6846 60.1339 58.699 60.1169 58.7137 60.0935L58.9109 59.778L59.1082 59.4616L59.1678 59.3718C59.3095 59.1716 59.4828 59.0152 59.6746 58.8952C59.5728 58.8697 59.4718 58.8502 59.3719 58.8347L58.9773 58.7731L58.5838 58.7116C58.4364 58.6888 58.2902 58.692 58.1404 58.7214L57.7459 58.7985L57.3523 58.8757C57.1354 58.9182 56.9158 58.9777 56.6941 59.0534L55.9061 59.322C55.3131 59.5245 54.7328 59.4062 54.2508 59.0925L53.4627 58.5798C53.3316 58.4945 53.2568 58.4868 53.2244 58.487H53.1297L52.7898 58.7331C52.3691 59.0358 51.8736 59.1666 51.3523 59.0983L50.5643 58.9948C50.5481 58.9927 50.5317 58.9922 50.5154 58.9909C50.4765 59.0043 50.4372 59.0172 50.3982 59.031L50.0037 59.1696L49.6092 59.3093C49.0433 59.509 48.4768 59.4252 47.9871 59.1403L47.4881 58.8503L47.0701 58.6267C47.0506 58.6162 47.0304 58.6076 47.0115 58.5983C46.9611 58.5833 46.9186 58.5778 46.8836 58.5768L46.49 58.5651L46.0955 58.5544C46.0553 58.5533 45.9798 58.5617 45.8533 58.6384L45.0652 59.1159C44.6318 59.3789 44.1293 59.5101 43.5955 59.4216L43.202 59.3552L42.8074 59.2907C42.5998 59.2563 42.3936 59.2398 42.1883 59.2409L41.7938 59.2429L41.4002 59.2448C41.121 59.2464 40.8414 59.2414 40.5623 59.2292L39.7742 59.195C39.3746 59.1775 38.9921 59.0717 38.6326 58.9001C38.1654 59.0348 37.6944 58.9806 37.2654 58.7985L37.0926 58.7243L36.9979 58.7585C36.8604 58.8073 36.6039 58.8921 36.3328 58.8806C36.2067 58.8752 35.9134 58.8417 35.6531 58.611L35.0887 58.737C34.4621 58.8759 33.8721 58.6834 33.4393 58.2292L32.8416 57.6013C32.4568 57.1973 32.261 56.6833 32.2947 56.1179L32.3191 55.696L32.3445 55.2741C32.3689 54.8657 32.4698 54.4727 32.6453 54.1032L33.0057 53.3435C33.235 52.8606 33.6182 52.5041 34.1141 52.3083L34.9012 51.9977C35.0287 51.9474 35.1159 51.8834 35.1814 51.8102L35.7098 51.2204C35.9585 50.9428 36.2478 50.711 36.5721 50.5251L37.2732 50.1218C37.4335 50.0299 37.5747 49.9229 37.698 49.8005L38.2576 49.2448C38.3786 49.1247 38.4883 48.9842 38.5838 48.819L38.9969 48.1042C39.2506 47.6658 39.6289 47.3471 40.0955 47.1638L40.8113 46.8825L40.9227 46.4685L41.0457 46.0202L41.0779 45.9108C41.1629 45.6567 41.3039 45.4093 41.5193 45.2018C41.7664 44.9642 42.0628 44.8263 42.3621 44.7604L43.2225 44.572L43.3758 44.2458L43.5584 43.862C43.7434 43.4719 44.0085 43.1339 44.3563 42.8708L44.9871 42.3933C45.0766 42.3255 45.1555 42.2361 45.2225 42.111L45.616 41.3757C45.875 40.8921 46.2908 40.5602 46.8016 40.3962L47.6297 40.1306C47.6648 40.1193 47.678 40.109 47.6805 40.1071C47.682 40.1059 47.6837 40.1041 47.6854 40.1022C47.6872 40.1001 47.6914 40.0956 47.6961 40.0876L48.1121 39.3767C48.3535 38.9648 48.7009 38.6492 49.1326 38.447L49.5066 38.2712L49.8816 38.0954C49.9014 38.0861 49.9087 38.0792 49.9119 38.0759C49.9156 38.0721 49.9274 38.0592 49.9422 38.0261L50.2918 37.2419C50.4633 36.8571 50.7075 36.5163 51.0301 36.2409L51.6307 35.7292C51.8476 35.544 52.0708 35.3658 52.3006 35.195L52.9373 34.7214C53.0993 34.601 53.2485 34.4668 53.3846 34.319L53.9197 33.737C54.1156 33.5243 54.3197 33.3201 54.5311 33.1237L55.1092 32.5866C55.4595 32.2613 55.8855 32.0705 56.3377 31.9811L57.2449 31.8015C57.2978 31.791 57.32 31.7784 57.324 31.7761L57.7967 31.1296C57.9176 30.9642 58.0283 30.7799 58.1268 30.5768L58.4959 29.8151C58.6622 29.4722 58.8754 29.1617 59.1385 28.8913L59.6893 28.3249C59.8807 28.1282 60.0753 27.9346 60.2732 27.7448L60.8426 27.1989C61.095 26.957 61.3771 26.7509 61.6844 26.5788L62.0369 26.3806L62.3914 26.1823C62.612 26.0588 62.8279 25.9297 63.0389 25.7966L63.7166 25.3688C63.847 25.2865 63.9573 25.1865 64.0516 25.0671L64.5467 24.4411C64.7505 24.1828 64.9762 23.9457 65.2244 23.7321L65.8221 23.2185C66.0142 23.0531 66.268 22.8473 66.5223 22.739L66.6639 22.6784L66.8045 22.6188L66.9139 22.5768C67.1729 22.4913 67.4565 22.4753 67.6658 22.4704L68.3699 22.4538Z" fill="#FF5E32"/>
</svg>
