<svg width="110" height="110" viewBox="0 0 110 110" fill="none" xmlns="http://www.w3.org/2000/svg">
<path d="M55.5126 22.0409C54.425 21.8555 53.2388 22.306 52.4338 23.2776C36.6328 42.3065 32 52.1051 32 64.9143C32 77.6642 42.2974 88 55 88C67.7026 88 78 77.6642 78 64.9143C78 60.2114 76.9518 56.6134 74.6124 52.857C73.607 51.2443 68.5996 44.6302 67.2196 42.5502C63.8254 37.439 60.9011 31.7586 58.082 24.205C57.6384 23.021 56.6002 22.2262 55.5126 22.0409ZM44.8117 48.5362C45.3504 48.3444 45.9268 48.2996 46.4678 48.6158C47.552 49.2476 47.9937 50.7377 47.4328 51.9591C45.9842 55.1157 45.5095 58.1804 45.7082 60.7426C45.8142 62.1107 44.9221 63.342 43.7076 63.4614C42.4931 63.5833 41.3978 62.5759 41.2918 61.2077C41.0224 57.7351 41.654 53.7252 43.5 49.7028C43.7804 49.0934 44.2729 48.7302 44.8117 48.5362Z" fill="#D4CBBF"/>
</svg>
