<svg width="110" height="110" viewBox="0 0 110 110" fill="none" xmlns="http://www.w3.org/2000/svg">
<path d="M68.1247 61.1038C68.3163 61.0994 68.5014 61.1408 68.6755 61.2142L69.0378 61.3665C69.3139 61.4829 69.4832 61.71 69.5573 61.973L69.6784 62.4036C69.7629 62.7034 69.6985 63.0075 69.4734 63.2406L69.1755 63.5482C69.0968 63.6296 69.0341 63.7092 68.9851 63.7865L68.8825 63.9486L68.779 64.1107C68.6981 64.2382 68.6077 64.3605 68.5085 64.4769L68.2546 64.7757C68.2138 64.8236 68.1864 64.875 68.1697 64.9329L68.0613 65.307C68.0264 65.4276 67.9929 65.5491 67.9607 65.6712L67.8611 66.0492C67.8074 66.2527 67.7065 66.4348 67.5642 66.5892L67.2956 66.8802C67.2903 66.886 67.2894 66.8895 67.2888 66.891C67.288 66.893 67.2844 66.9016 67.2839 66.9212L67.2741 67.3451C67.2672 67.6464 67.1234 67.9004 66.8796 68.0677L66.5212 68.3138C66.4541 68.3599 66.4171 68.4041 66.3952 68.4427L66.2068 68.7757C66.162 68.8549 66.1264 68.9396 66.0993 69.0296L66.0437 69.2152L65.987 69.4007C65.9646 69.4755 65.9521 69.5627 65.9519 69.6634L65.9509 70.0911C65.9502 70.4104 65.7909 70.6722 65.529 70.8333L65.3386 70.9505L65.1472 71.0677C65.1356 71.0749 65.1292 71.0811 65.1257 71.0843L65.0329 71.4603C64.9852 71.655 64.8974 71.8329 64.7722 71.9896L64.529 72.2943C64.4808 72.3547 64.4447 72.4196 64.4197 72.4896L64.3552 72.6712L64.2898 72.8519C64.242 72.9855 64.1892 73.117 64.1306 73.2454L63.9714 73.5931C63.9472 73.6463 63.9308 73.7119 63.9275 73.7952L63.9109 74.2161C63.8988 74.5198 63.748 74.7701 63.5027 74.932L63.1355 75.1732C63.0867 75.2054 63.0767 75.2286 63.073 75.2386L62.9402 75.5999C62.8793 75.7653 62.791 75.916 62.6794 76.0521L62.8239 76.0531L63.0173 76.054C63.1676 76.055 63.3189 76.0657 63.4704 76.0863L63.6677 76.1136L63.862 76.14C63.8649 76.1384 63.8699 76.1354 63.8767 76.1302L64.2224 75.8656C64.4062 75.7251 64.6222 75.6362 64.863 75.6273L65.2478 75.6136C65.4093 75.6077 65.5717 75.6181 65.7341 75.6449L66.1316 75.7103C66.2254 75.7257 66.314 75.7286 66.3982 75.721L66.5896 75.7044L66.78 75.6868C66.8796 75.6778 66.9777 75.66 67.0749 75.6341L67.2605 75.5843L67.446 75.5355C67.5853 75.4984 67.7268 75.4687 67.8689 75.4456L68.2468 75.3841C68.3783 75.3628 68.507 75.3683 68.6286 75.4007L68.8991 75.3685L68.9519 75.3636C69.0788 75.3563 69.2192 75.3777 69.3523 75.4515C69.4844 75.5249 69.5753 75.6313 69.6364 75.7406L69.6618 75.7874L69.7439 75.9593L69.8259 76.1302C69.9127 76.3109 69.9565 76.5061 69.948 76.7093L69.9333 77.0648C69.9227 77.3152 69.8102 77.5255 69.6345 77.68C69.6642 77.7518 69.6848 77.8426 69.6667 77.9486C69.6377 78.1176 69.5332 78.2158 69.4812 78.2562C69.4262 78.2988 69.3737 78.3218 69.3464 78.3324C69.253 78.3685 69.1454 78.3787 69.0876 78.3841L68.9968 78.3919C68.9828 78.4203 68.9711 78.4582 68.9685 78.513L68.9597 78.7064L68.9499 78.8988C68.9371 79.169 68.8149 79.4052 68.5984 79.5697L68.3386 79.766L68.3435 79.9183L68.3493 80.1195C68.3587 80.4283 68.2133 80.693 67.9509 80.8529L67.6062 81.0628C67.5596 81.0912 67.5494 81.1115 67.5466 81.1175L67.3991 81.4339C67.3708 81.4947 67.3495 81.5634 67.3376 81.6419L67.2829 82.0072C67.2593 82.1637 67.2196 82.3155 67.1618 82.4603L67.032 82.7855C66.9824 82.9096 66.9261 83.031 66.864 83.1488L66.7019 83.4564C66.6456 83.5631 66.5875 83.6696 66.5281 83.7747L66.3562 84.0775C66.3012 84.1747 66.2473 84.2728 66.195 84.3714L66.032 84.679C65.9348 84.8626 65.7931 85.0084 65.6247 85.1195L65.2937 85.3372C65.2756 85.3492 65.268 85.3584 65.2654 85.3617C65.2634 85.3641 65.2622 85.3654 65.2614 85.3675L65.1462 85.7005C65.1233 85.7667 65.1077 85.8427 65.1023 85.93L65.0906 86.1214L65.0779 86.3128C65.0598 86.6005 64.9129 86.8364 64.6784 86.9876L64.3542 87.1966L64.3269 87.3499L64.2947 87.5296C64.258 87.7381 64.1676 87.9276 64.0241 88.0853L63.782 88.3509C63.7809 88.352 63.7802 88.3526 63.78 88.3529L63.779 88.3568C63.7784 88.3598 63.7775 88.3655 63.7771 88.3734L63.7585 88.7591C63.7473 88.9912 63.6644 89.2092 63.5017 89.387L63.2595 89.6527C63.2264 89.6888 63.2045 89.7263 63.1911 89.7699L63.1384 89.9398L63.0866 90.1087C63.0149 90.3422 62.8645 90.5231 62.6716 90.6497L62.5066 90.7581L62.3464 90.8636L62.3161 91.0208L62.282 91.1995C62.2553 91.3394 62.2198 91.476 62.1755 91.6087L62.0642 91.9437C61.9914 92.1615 61.8519 92.3357 61.6726 92.4642L61.5154 92.5775L61.3894 92.6673L61.3718 93.012C61.3607 93.2295 61.291 93.4337 61.1638 93.6126L60.946 93.9183C60.8051 94.1164 60.6068 94.2492 60.3698 94.304L60.0046 94.389C59.7632 94.4448 59.5254 94.4083 59.3122 94.2952L59.1384 94.2025L58.9695 94.1126L58.8142 94.1615L58.6394 94.2161C58.4019 94.291 58.1614 94.2701 57.9421 94.1683L57.6257 94.0208L57.3083 94.1722C57.1538 94.2455 56.9926 94.2963 56.8259 94.3216L56.4773 94.3743C56.2487 94.409 56.0297 94.3637 55.8337 94.262L55.5437 94.1107L55.2488 94.2767C55.0122 94.4093 54.7403 94.4352 54.4782 94.3265L54.1423 94.1868L53.8054 94.3275C53.5911 94.417 53.3607 94.4337 53.1335 94.3665L52.7859 94.264C52.7539 94.2545 52.7277 94.2543 52.698 94.262L52.3493 94.3529C52.1045 94.4173 51.8644 94.3793 51.6521 94.2669L51.363 94.1136L51.071 94.2786C50.8107 94.4251 50.513 94.4293 50.2478 94.2747L50.0808 94.1771L49.9128 94.0794C49.7886 94.007 49.6738 93.9319 49.5691 93.8548L49.3025 93.6595C49.212 93.5929 49.0087 93.4071 49.0505 93.1048C49.0863 92.8464 49.282 92.7096 49.3581 92.6615L49.6794 92.4583C49.6982 92.4464 49.7093 92.4343 49.7195 92.4085L49.7907 92.2288L49.8611 92.0492C49.9374 91.8551 50.0593 91.6834 50.2312 91.554L50.3708 91.4495L50.5105 91.3441C50.5655 91.3027 50.6136 91.2534 50.656 91.1956L50.8659 90.9105C50.9615 90.7803 51.0731 90.6642 51.1999 90.5648L51.3376 90.4574L51.4753 90.349C51.5493 90.2909 51.6192 90.2279 51.6843 90.1605L51.9265 89.9095C52.0969 89.733 52.3141 89.6433 52.5368 89.6117L52.7468 89.5814L52.8835 89.5618L52.989 89.2835C53.0449 89.1366 53.1125 88.9976 53.1921 88.8675L53.3806 88.5589L53.4089 88.5169C53.552 88.3096 53.7623 88.189 53.9939 88.1429L54.195 88.1029L54.3122 88.0794L54.3464 87.971L54.406 87.7786C54.4706 87.5696 54.5885 87.3793 54.7722 87.2386L55.0495 87.0267C55.1184 86.9739 55.1819 86.9153 55.24 86.8509L55.4743 86.5911C55.5531 86.5038 55.6323 86.4162 55.7116 86.3294L55.947 86.0716C56.1129 85.8901 56.3282 85.7941 56.5515 85.7581L56.7585 85.7249L56.8542 85.7093L56.9265 85.4134C56.9783 85.2 57.0828 84.9981 57.2614 84.8441L57.3933 84.7298L57.5261 84.6165C57.6711 84.4917 57.8388 84.4042 58.0202 84.3499L58.3923 84.2396C58.4281 84.2289 58.4359 84.2175 58.4392 84.2132L58.6531 83.932C58.7333 83.8264 58.818 83.7251 58.907 83.6283L59.1433 83.3704C59.2382 83.2672 59.3408 83.1714 59.4499 83.0833L59.7214 82.8646C59.7895 82.8096 59.8521 82.7486 59.9099 82.682L60.0241 82.5492L60.1394 82.4173C60.211 82.3347 60.2811 82.2498 60.3493 82.1634L60.5671 81.887C60.6753 81.75 60.8051 81.6348 60.9538 81.5433L61.2566 81.3577C61.3034 81.3289 61.3415 81.2929 61.3738 81.2484L61.5827 80.9613C61.7473 80.7348 61.9872 80.6261 62.2322 80.596L62.446 80.5697L62.5095 80.5618L62.5554 80.265C62.5987 79.9875 62.7552 79.724 63.0622 79.6019L63.4089 79.4642C63.4322 79.4549 63.4389 79.4463 63.446 79.4349L63.5417 79.2826L63.6374 79.1292L63.6667 79.0853C63.7583 78.956 63.876 78.8625 64.0075 78.8011C63.9228 78.7743 63.8396 78.7543 63.7575 78.7415L63.5661 78.7113L63.3757 78.682C63.3043 78.6709 63.2334 78.6726 63.1609 78.6868L62.7781 78.7611C62.6731 78.7817 62.567 78.8104 62.4597 78.847L62.0779 78.9779C61.7904 79.076 61.5088 79.0186 61.2751 78.8665L60.8933 78.6175C60.8298 78.5762 60.7937 78.5725 60.7781 78.5726H60.7312L60.573 78.6868C60.3691 78.8336 60.1293 78.8976 59.8767 78.8646L59.4948 78.8148C59.4888 78.814 59.4823 78.8144 59.4763 78.8138C59.4536 78.8215 59.4306 78.8283 59.4079 78.8363L59.2165 78.9036L59.0261 78.971C58.752 79.0678 58.4772 79.0279 58.24 78.89L57.8572 78.6673C57.7888 78.6276 57.7395 78.6175 57.7048 78.6165L57.5134 78.6107L57.323 78.6058C57.3035 78.6053 57.2662 78.6086 57.2048 78.6458L56.823 78.8783C56.613 79.0055 56.3696 79.0686 56.1111 79.0257L55.9197 78.9935L55.7292 78.9622C55.6286 78.9456 55.528 78.9373 55.4284 78.9378L55.238 78.9388L55.0466 78.9398C54.9115 78.9405 54.7764 78.9379 54.6413 78.932L54.2585 78.9163C54.0649 78.9078 53.8799 78.8559 53.7058 78.7728C53.4793 78.8381 53.2507 78.8123 53.0427 78.724L52.9597 78.6878L52.9138 78.7044C52.8472 78.7281 52.7221 78.7696 52.5906 78.764C52.5288 78.7613 52.3852 78.7443 52.2585 78.6302L51.9939 78.6898C51.6902 78.7571 51.4038 78.6629 51.1941 78.4427L50.905 78.139C50.7186 77.9433 50.6231 77.6941 50.6394 77.4202L50.6511 77.2152L50.6638 77.0111C50.6756 76.8132 50.7243 76.6227 50.8093 76.4437L50.9841 76.0755C51.0953 75.8414 51.2817 75.6684 51.5222 75.5736L51.9031 75.4232C51.9648 75.3988 52.007 75.3678 52.0388 75.3324L52.2947 75.0462C52.4152 74.9117 52.5555 74.7994 52.7126 74.7093L53.0525 74.514C53.1302 74.4694 53.1987 74.4171 53.2585 74.3577L53.53 74.0892C53.5887 74.031 53.6409 73.9622 53.6872 73.8822L53.8884 73.5365C54.0114 73.3239 54.1944 73.1693 54.4206 73.0804L54.7673 72.9437L54.822 72.7435L54.8806 72.5257L54.8972 72.473C54.9384 72.3498 55.0066 72.2298 55.1111 72.1292C55.2308 72.0142 55.3743 71.9473 55.5193 71.9154L55.9363 71.8236L56.0105 71.6663L56.0993 71.4798C56.189 71.2909 56.3166 71.1268 56.4851 70.9993L56.7917 70.7679C56.8351 70.7351 56.8736 70.6917 56.906 70.6312L57.0964 70.2747C57.2219 70.0405 57.4232 69.8796 57.6706 69.8001L58.072 69.6712C58.0896 69.6656 58.0965 69.6602 58.0974 69.6595L58.0993 69.6576C58.1003 69.6565 58.1021 69.6544 58.1042 69.6507L58.3064 69.306C58.4233 69.1065 58.5914 68.9538 58.8005 68.8558L58.9822 68.7699L59.1638 68.6849C59.1728 68.6806 59.1767 68.6778 59.1784 68.6761C59.1802 68.6743 59.186 68.6676 59.1931 68.6517L59.363 68.2718C59.4461 68.0853 59.564 67.92 59.7204 67.7865L60.0114 67.5384C60.1167 67.4486 60.2252 67.3624 60.3366 67.2796L60.6443 67.0501C60.7228 66.9918 60.7951 66.9264 60.8611 66.8548L61.1208 66.5726C61.2158 66.4695 61.3152 66.3709 61.4177 66.2757L61.697 66.015C61.8668 65.8573 62.0735 65.7653 62.2927 65.722L62.7322 65.6351C62.758 65.63 62.7693 65.6235 62.7712 65.6224L62.9997 65.3089C63.0583 65.2288 63.1122 65.1397 63.1599 65.0413L63.3386 64.6722C63.4192 64.506 63.5226 64.355 63.6501 64.224L63.9167 63.9495C64.0096 63.8541 64.1049 63.7603 64.2009 63.6683L64.4763 63.4036C64.5986 63.2864 64.7356 63.1863 64.8845 63.1029L65.2263 62.9115C65.3332 62.8516 65.4385 62.7885 65.5407 62.724L65.8689 62.5169C65.9322 62.477 65.9862 62.4284 66.032 62.3704L66.2712 62.0667C66.37 61.9416 66.4801 61.8275 66.6003 61.724L66.8904 61.474C66.9834 61.3939 67.1062 61.295 67.2292 61.2425L67.3659 61.1839L67.4187 61.1634C67.5441 61.122 67.6815 61.115 67.7829 61.1126L68.1247 61.1038Z" fill="#A3ACE5"/>
<path d="M63.7937 62.7777C63.9852 62.7732 64.1704 62.8137 64.3445 62.8871L64.7068 63.0404C64.9828 63.1567 65.1521 63.383 65.2263 63.6458L65.3484 64.0775C65.4326 64.3771 65.3674 64.6805 65.1423 64.9134L64.8455 65.221C64.7667 65.3026 64.7031 65.382 64.6541 65.4593L64.449 65.7835C64.3681 65.911 64.2777 66.0333 64.1785 66.1498L63.9236 66.4486C63.8828 66.4965 63.8554 66.5479 63.8386 66.6058L63.7302 66.9798C63.6953 67.1007 63.6619 67.2228 63.6296 67.3451L63.53 67.722C63.4764 67.9255 63.3755 68.1077 63.2332 68.2621L62.9646 68.554C62.9595 68.5596 62.9583 68.5623 62.9578 68.5638C62.957 68.5658 62.9533 68.5749 62.9529 68.5951L62.9431 69.0189C62.9361 69.3201 62.7932 69.5743 62.5496 69.7415L62.1912 69.9876C62.1241 70.0337 62.0861 70.077 62.0642 70.1156L61.8757 70.4486C61.831 70.5278 61.7954 70.6125 61.7683 70.7025L61.7127 70.888L61.657 71.0746C61.6345 71.1493 61.6211 71.2356 61.6209 71.3363L61.6199 71.765C61.619 72.0842 61.46 72.3462 61.198 72.5072L61.0076 72.6244L60.8162 72.7415C60.8048 72.7486 60.7982 72.754 60.7947 72.7572L60.7019 73.1331C60.6542 73.3277 60.5671 73.5058 60.4421 73.6624L60.198 73.9681C60.1499 74.0284 60.1136 74.0926 60.0886 74.1624L59.9597 74.5257C59.9119 74.6592 59.8581 74.79 59.7996 74.9183L59.6414 75.266C59.6171 75.3193 59.5997 75.3855 59.5964 75.4691L59.5798 75.889C59.5679 76.1927 59.417 76.4429 59.1716 76.6048L58.8044 76.847C58.7558 76.8792 58.7456 76.9015 58.7419 76.9115L58.6091 77.2728C58.5494 77.4351 58.4629 77.583 58.3543 77.7171L58.5066 77.7181L58.7 77.7201C58.85 77.7211 59.0008 77.7318 59.1521 77.7523L59.3503 77.7787L59.5447 77.805C59.5476 77.8034 59.5527 77.8003 59.5593 77.7953L59.9041 77.5316C60.0879 77.391 60.3048 77.3022 60.5457 77.2933L60.738 77.2865L60.9294 77.2787C61.0912 77.2727 61.2541 77.2841 61.4168 77.3109L61.8142 77.3753C61.9081 77.3908 61.9966 77.3947 62.0808 77.3871L62.2712 77.3695L62.4627 77.3519C62.5621 77.3429 62.6604 77.326 62.7576 77.3001L63.1287 77.2005C63.2499 77.1682 63.3725 77.1421 63.4959 77.1205C63.5113 77.1173 63.527 77.1137 63.5427 77.1107L63.8328 77.054C63.9426 77.0328 64.0641 77.0145 64.196 76.9984L64.5681 76.9525L64.6218 76.9476C64.7486 76.9403 64.8883 76.9617 65.0212 77.0355C65.1537 77.109 65.2452 77.216 65.3064 77.3255L65.3308 77.3724L65.4128 77.5433L65.4949 77.7152C65.5817 77.8959 65.6256 78.091 65.6169 78.2943L65.6023 78.6498C65.5912 78.9084 65.4717 79.1239 65.2859 79.2796C65.3319 79.3573 65.3734 79.4723 65.3494 79.6136C65.3204 79.783 65.2159 79.8818 65.1638 79.9222C65.1091 79.9646 65.0564 79.9868 65.0291 79.9974C64.9356 80.0335 64.828 80.0438 64.7703 80.0492L64.6423 80.0609C64.6408 80.0723 64.6381 80.0847 64.6375 80.098L64.6199 80.4828C64.6071 80.753 64.4838 80.9892 64.2673 81.1537L64.0076 81.3499L64.0125 81.5033L64.0183 81.7035C64.0278 82.0123 63.8831 82.2769 63.6209 82.4369L63.2752 82.6478C63.2295 82.6757 63.2185 82.6953 63.2156 82.7015L63.0691 83.0179C63.0407 83.0789 63.0194 83.1481 63.0076 83.2269L62.9802 83.4095L62.9519 83.5921C62.9283 83.7485 62.8885 83.8997 62.8308 84.0443L62.7009 84.3705C62.6514 84.4946 62.5951 84.616 62.533 84.7337L62.3709 85.0414C62.3146 85.148 62.2564 85.2537 62.197 85.3587L62.0252 85.6624C61.9702 85.7596 61.9172 85.8578 61.865 85.9564L61.7019 86.264C61.6046 86.4477 61.4623 86.5933 61.2937 86.7044L60.9627 86.9222C60.945 86.9339 60.9371 86.9423 60.9343 86.9456C60.9323 86.9482 60.9312 86.9503 60.9304 86.9525L60.8152 87.2855C60.7923 87.3517 60.7767 87.4277 60.7712 87.515L60.7595 87.7064L60.7468 87.8968C60.7289 88.1848 60.5822 88.4214 60.3474 88.5726L60.0232 88.7816L59.9959 88.9339L59.9646 89.1146C59.928 89.323 59.8365 89.5116 59.6931 89.6693L59.4509 89.9359C59.4498 89.9371 59.449 89.9378 59.449 89.9378L59.448 89.9417C59.4474 89.9449 59.4464 89.9504 59.446 89.9583L59.4275 90.3431C59.4163 90.5754 59.3336 90.7941 59.1707 90.972L59.0496 91.1039L58.9285 91.2367C58.8954 91.2728 58.8735 91.3112 58.8601 91.3548L58.8084 91.5238L58.7566 91.6937C58.6849 91.927 58.5342 92.1072 58.3416 92.2337L58.1755 92.3431L58.0154 92.4476L57.9851 92.6048L57.9509 92.7845C57.9242 92.9244 57.8888 93.061 57.8445 93.1937L57.7332 93.5287C57.6604 93.7466 57.521 93.9207 57.3416 94.0492L57.1843 94.1624L57.0584 94.2523L57.0408 94.596C57.0297 94.8136 56.96 95.0177 56.8328 95.1966L56.616 95.5033C56.475 95.7014 56.2758 95.8342 56.0388 95.889L55.6736 95.973C55.4323 96.0288 55.1944 95.9923 54.9812 95.8792L54.8074 95.7874L54.6384 95.6976L54.4832 95.7464L54.3084 95.8011C54.071 95.8758 53.8303 95.8541 53.6111 95.7523L53.2957 95.6058L52.9783 95.7562C52.8236 95.8296 52.6618 95.8813 52.4949 95.9066L52.1472 95.9593C51.9186 95.994 51.6987 95.9478 51.5027 95.846L51.2127 95.6956L50.9177 95.8607C50.6812 95.9932 50.4102 96.0191 50.1482 95.9105L49.8113 95.7708L49.4753 95.9124C49.2611 96.002 49.0306 96.0186 48.8035 95.9515L48.4548 95.848C48.4229 95.8385 48.3967 95.8382 48.3669 95.846L48.0183 95.9378C47.7736 96.0021 47.5333 95.9632 47.321 95.8509L47.032 95.6986L46.74 95.8626C46.4799 96.009 46.1829 96.014 45.9177 95.8597L45.7498 95.7611L45.5818 95.6634C45.4577 95.5911 45.3427 95.5168 45.238 95.4398L44.9714 95.2445C44.8809 95.1779 44.6776 94.9913 44.7195 94.6888C44.7553 94.4309 44.9508 94.2948 45.0271 94.2464L45.3484 94.0423C45.3672 94.0304 45.3783 94.0184 45.3884 93.9925L45.4597 93.8128L45.53 93.6331C45.6064 93.4391 45.7283 93.2684 45.9002 93.139L46.1794 92.9281C46.2345 92.8867 46.2835 92.8383 46.3259 92.7806L46.5349 92.4945C46.6304 92.3644 46.7423 92.2491 46.8689 92.1498L47.0066 92.0414L47.1443 91.9339C47.2184 91.8758 47.2881 91.813 47.3533 91.7455L47.5955 91.4945C47.7659 91.3179 47.983 91.2274 48.2058 91.1956L48.4158 91.1664L48.5525 91.1468L48.658 90.8685C48.7138 90.7216 48.7815 90.5826 48.8611 90.4525L49.0496 90.1439L49.0779 90.1009C49.221 89.8937 49.4313 89.773 49.6628 89.7269L49.864 89.6878L49.9822 89.6644L50.0154 89.555L50.075 89.3636C50.1395 89.1545 50.2574 88.9643 50.4412 88.8236L50.7185 88.6107C50.7875 88.5579 50.8508 88.4994 50.9089 88.4349L51.1433 88.1751C51.2221 88.0877 51.3013 88.0002 51.3806 87.9134L51.616 87.6556C51.782 87.474 51.9981 87.3781 52.2214 87.3421L52.4275 87.3099L52.5232 87.2943L52.5955 86.9974C52.6473 86.784 52.7518 86.582 52.9304 86.4281L53.0632 86.3148L53.1951 86.2005C53.3401 86.0757 53.5087 85.9892 53.6902 85.9349L54.0613 85.8236C54.0967 85.813 54.1049 85.8025 54.1082 85.7982L54.322 85.516C54.4022 85.4105 54.487 85.3091 54.5759 85.2123L54.8123 84.9554C54.9072 84.852 55.0097 84.7564 55.1189 84.6683L55.3904 84.4486C55.4583 84.3937 55.5212 84.3334 55.5789 84.2669L55.6941 84.1341L55.8084 84.0013C55.8799 83.9188 55.9502 83.8347 56.0183 83.7484L56.2371 83.472C56.3453 83.3349 56.475 83.2188 56.6238 83.1273L56.7742 83.0345L56.9255 82.9417C56.9724 82.9129 57.0114 82.8778 57.0437 82.8333L57.1472 82.6898L57.2517 82.5462C57.4163 82.3195 57.657 82.2101 57.9021 82.18L58.115 82.1537L58.1785 82.1458L58.2244 81.8499C58.2676 81.5724 58.4242 81.3091 58.7312 81.1869L59.0779 81.0482C59.1012 81.0389 59.1089 81.0312 59.116 81.0199L59.2107 80.8665L59.3064 80.7132L59.3357 80.6703C59.4053 80.5719 59.4902 80.4943 59.5847 80.4359C59.5361 80.4238 59.4879 80.414 59.4402 80.4066L59.2488 80.3773L59.0584 80.347C58.9869 80.3359 58.9152 80.3377 58.8425 80.3519L58.6521 80.389L58.4607 80.4271C58.3557 80.4477 58.2496 80.4764 58.1423 80.513L57.7605 80.6429C57.4731 80.7411 57.1914 80.6836 56.9578 80.5316L56.5759 80.2835C56.5126 80.2424 56.4765 80.2386 56.4607 80.2386H56.4109L56.2429 80.3607C56.039 80.5074 55.7983 80.5705 55.5457 80.5374L55.1638 80.4876C55.1554 80.4865 55.1468 80.4873 55.1384 80.4867C55.1226 80.4921 55.1064 80.4967 55.0906 80.5023L54.8992 80.5697L54.7087 80.6371C54.4344 80.7339 54.159 80.6931 53.9216 80.555L53.8142 80.4925L53.4705 80.3089C53.4542 80.3002 53.437 80.2945 53.4216 80.2874C53.4088 80.285 53.3977 80.2819 53.3875 80.2816L53.196 80.2767L53.0056 80.2708C52.9861 80.2703 52.9488 80.2746 52.8875 80.3119L52.5056 80.5433C52.2956 80.6707 52.0523 80.7346 51.7937 80.6917L51.6023 80.6595L51.4119 80.6273C51.3112 80.6106 51.2106 80.6033 51.1111 80.6039L50.9207 80.6048L50.7293 80.6058C50.5939 80.6066 50.4583 80.6039 50.323 80.598L49.9412 80.5814C49.7476 80.5729 49.5626 80.5219 49.3884 80.4388C49.1619 80.5042 48.9333 80.4773 48.7253 80.389L48.6414 80.3539L48.5955 80.3695C48.5288 80.3931 48.4046 80.4347 48.2732 80.429C48.2122 80.4264 48.0709 80.4101 47.9451 80.2992L47.6628 80.3626C47.3594 80.4298 47.0737 80.3364 46.864 80.1165L46.574 79.8119C46.3875 79.6161 46.292 79.3671 46.3084 79.0931L46.321 78.888L46.3328 78.6839C46.3446 78.486 46.3932 78.2956 46.4783 78.1165L46.6531 77.7484C46.7643 77.5143 46.9507 77.3413 47.1912 77.2464L47.572 77.096C47.6339 77.0716 47.676 77.0407 47.7078 77.0052L47.9636 76.7191C48.0841 76.5846 48.2245 76.4723 48.3816 76.3822L48.7214 76.1869C48.7991 76.1424 48.8677 76.0908 48.9275 76.0316L49.199 75.7621C49.2576 75.7039 49.3109 75.636 49.3572 75.556L49.5574 75.2093C49.6803 74.9968 49.8635 74.8421 50.0896 74.7533L50.4363 74.6165L50.491 74.4164L50.5505 74.1986L50.5662 74.1458C50.6074 74.0227 50.6757 73.9026 50.78 73.8021C50.8997 73.687 51.0432 73.6201 51.1882 73.5882L51.6052 73.4974L51.6794 73.3392L51.7683 73.1527C51.858 72.9638 51.9866 72.8006 52.155 72.6732L52.4607 72.4408C52.5041 72.408 52.5425 72.3646 52.575 72.304L52.7654 71.9476C52.8909 71.7133 53.0931 71.5525 53.3406 71.473L53.741 71.3441C53.7584 71.3385 53.7654 71.3341 53.7664 71.3333C53.767 71.3328 53.7676 71.3322 53.7683 71.3314C53.7691 71.3304 53.7708 71.3276 53.7732 71.3236L53.9753 70.9789C54.0923 70.7795 54.2605 70.6267 54.4695 70.5287L54.8328 70.3587C54.842 70.3544 54.8457 70.3507 54.8474 70.349C54.8492 70.3472 54.8549 70.3406 54.8621 70.3246L55.032 69.9447C55.1151 69.7581 55.233 69.5928 55.3894 69.4593L55.6804 69.2113C55.7856 69.1215 55.8942 69.0353 56.0056 68.9525L56.3142 68.723C56.3927 68.6646 56.4651 68.5993 56.531 68.5277L56.7908 68.2464C56.8857 68.1433 56.9842 68.0438 57.0867 67.9486L57.3669 67.6878C57.5366 67.5304 57.7427 67.4381 57.9617 67.3949L58.4011 67.308C58.4269 67.3029 58.4382 67.2964 58.4402 67.2953L58.6697 66.9818C58.7282 66.9017 58.7812 66.8125 58.8289 66.7142L59.0076 66.3451C59.0882 66.1789 59.1916 66.0279 59.3191 65.8968L59.5867 65.6224C59.6794 65.5271 59.774 65.4331 59.8699 65.3412L60.1453 65.0775C60.2676 64.9602 60.4045 64.8601 60.5535 64.7767L60.7244 64.68L60.8962 64.5843C61.0031 64.5245 61.1076 64.4623 61.2097 64.3978L61.5378 64.1898C61.6011 64.1499 61.6553 64.1021 61.7009 64.0443L61.9412 63.7406C62.04 63.6154 62.149 63.5003 62.2693 63.3968L62.5593 63.1478C62.6524 63.0677 62.775 62.9679 62.8982 62.9154L63.0349 62.8568L63.0877 62.8373C63.2132 62.7958 63.3514 62.7879 63.4529 62.7855L63.7937 62.7777Z" fill="#FF5E32"/>
<path d="M39.8887 40.9141C31.3958 40.9142 24.3297 47.021 22.8408 55.083H22.3408C15.7953 55.083 10.4893 60.3901 10.4893 66.9355V67.874C10.4894 72.9414 14.5976 77.0488 19.665 77.0488H27.7852C27.8112 77.0492 27.8372 77.0508 27.8633 77.0508H53.376C56.3097 77.0508 58.6884 74.673 58.6885 71.7393V59.7139C58.6885 49.3311 50.2714 40.9141 39.8887 40.9141Z" fill="#1F2792"/>
<path d="M57.5264 19.0449C70.3114 19.0453 80.9397 28.2761 83.1123 40.4365C91.8619 41.5437 98.6279 49.0143 98.6279 58.0645V60.9141C98.6279 65.2928 96.3397 69.1342 92.8965 71.3174V69.5439C92.8965 63.5677 88.0514 58.7229 82.0752 58.7227H76.0332C70.0568 58.7229 65.2129 63.5679 65.2129 69.5439V72.2051C65.2129 72.5511 65.2381 72.8913 65.2842 73.2246H60.2773C60.3763 72.7485 60.4287 72.2554 60.4287 71.75V59.7246L60.4219 59.1904C60.1383 48.0042 50.981 39.0235 39.7266 39.0234C36.1267 39.0235 32.7582 40.0112 29.8779 41.7314C32.4359 28.7976 43.8417 19.0449 57.5264 19.0449Z" fill="#1F2792"/>
<path d="M81.7959 60.5156C86.577 60.5156 90.4531 64.3917 90.4531 69.1729V71.834C90.4531 74.7199 88.1135 77.0596 85.2275 77.0596H72.3232C69.4373 77.0596 67.0977 74.7199 67.0977 71.834V69.1729C67.0977 64.3917 70.9738 60.5156 75.7549 60.5156H81.7959Z" fill="#1F2792"/>
</svg>
